MulatAbay-Thin.ufo
<glyph name="parenright" format="2">
  <advance width="623"/>
  <unicode hex="0029"/>
  <note>
uni0029
</note>
  <outline>
    <contour>
      <point x="47" y="-470" type="line"/>
      <point x="201.667" y="-372.667"/>
      <point x="336.167" y="-150.167"/>
      <point x="407.5" y="130.5" type="curve" smooth="yes"/>
      <point x="443.167" y="270.833"/>
      <point x="461" y="416"/>
      <point x="461" y="566" type="curve" smooth="yes"/>
      <point x="461" y="880.667"/>
      <point x="387.5" y="1164.667"/>
      <point x="257.5" y="1386" type="curve" smooth="yes"/>
      <point x="192.5" y="1496.667"/>
      <point x="122.333" y="1575.667"/>
      <point x="47" y="1623" type="curve"/>
      <point x="28" y="1580" type="line"/>
      <point x="161.333" y="1492"/>
      <point x="288" y="1266.833"/>
      <point x="356" y="995.5" type="curve" smooth="yes"/>
      <point x="390" y="859.833"/>
      <point x="407" y="724.667"/>
      <point x="407" y="590" type="curve" smooth="yes"/>
      <point x="407" y="292.667"/>
      <point x="339.667" y="21"/>
      <point x="221" y="-195" type="curve" smooth="yes"/>
      <point x="161.667" y="-303"/>
      <point x="97.333" y="-380.333"/>
      <point x="28" y="-427" type="curve"/>
    </contour>
  </outline>
</glyph>
<glyph name="zero" format="2">
  <advance width="1121"/>
  <unicode hex="0030"/>
  <note>
uni0030
</note>
  <outline>
    <contour>
      <point x="562" y="-20" type="curve" smooth="yes"/>
      <point x="836.667" y="-20"/>
      <point x="996" y="203.333"/>
      <point x="996" y="594" type="curve" smooth="yes"/>
      <point x="996" y="858" type="line" smooth="yes"/>
      <point x="996" y="1250"/>
      <point x="836" y="1477"/>
      <point x="560" y="1477" type="curve" smooth="yes"/>
      <point x="285.333" y="1477"/>
      <point x="125" y="1248.667"/>
      <point x="125" y="862" type="curve" smooth="yes"/>
      <point x="125" y="598" type="line" smooth="yes"/>
      <point x="125" y="206"/>
      <point x="288.667" y="-20"/>
    </contour>
    <contour>
      <point x="562" y="34" type="curve" smooth="yes"/>
      <point x="320.667" y="34"/>
      <point x="179" y="244"/>
      <point x="179" y="596" type="curve" smooth="yes"/>
      <point x="179" y="857" type="line" smooth="yes"/>
      <point x="179" y="1215.667"/>
      <point x="314.667" y="1423"/>
      <point x="560" y="1423" type="curve" smooth="yes"/>
      <point x="804" y="1423"/>
      <point x="942" y="1215.333"/>
      <point x="942" y="862" type="curve" smooth="yes"/>
      <point x="942" y="601" type="line" smooth="yes"/>
      <point x="942" y="242.333"/>
      <point x="804.667" y="34"/>
    </contour>
  </outline>
</glyph>
<glyph name="eight" format="2">
  <advance width="1121"/>
  <unicode hex="0038"/>
  <note>
uni0038
</note>
  <outline>
    <contour>
      <point x="565" y="-20" type="curve" smooth="yes"/>
      <point x="845" y="-20"/>
      <point x="1028" y="132.333"/>
      <point x="1028" y="379" type="curve" smooth="yes"/>
      <point x="1028" y="549.667"/>
      <point x="905.667" y="694.333"/>
      <point x="715" y="745" type="curve"/>
      <point x="875" y="793"/>
      <point x="986" y="923.333"/>
      <point x="986" y="1086" type="curve" smooth="yes"/>
      <point x="986" y="1320.667"/>
      <point x="814.333" y="1476"/>
      <point x="561" y="1476" type="curve" smooth="yes"/>
      <point x="309" y="1476"/>
      <point x="141" y="1326"/>
      <point x="141" y="1086" type="curve" smooth="yes"/>
      <point x="141" y="923.333"/>
      <point x="248" y="793"/>
      <point x="408" y="745" type="curve"/>
      <point x="217.333" y="694.333"/>
      <point x="100" y="551"/>
      <point x="100" y="379" type="curve" smooth="yes"/>
      <point x="100" y="132.333"/>
      <point x="279.667" y="-20"/>
    </contour>
    <contour>
      <point x="565" y="34" type="curve" smooth="yes"/>
      <point x="314.333" y="34"/>
      <point x="154" y="168.667"/>
      <point x="154" y="374" type="curve" smooth="yes"/>
      <point x="154" y="575.333"/>
      <point x="321.667" y="718"/>
      <point x="563" y="718" type="curve" smooth="yes"/>
      <point x="803" y="718"/>
      <point x="973" y="574"/>
      <point x="973" y="374" type="curve" smooth="yes"/>
      <point x="973" y="170"/>
      <point x="810.333" y="34"/>
    </contour>
    <contour>
      <point x="563" y="772" type="curve" smooth="yes"/>
      <point x="344.333" y="772"/>
      <point x="195" y="901.667"/>
      <point x="195" y="1091" type="curve" smooth="yes"/>
      <point x="195" y="1289.667"/>
      <point x="346.333" y="1422"/>
      <point x="561" y="1422" type="curve" smooth="yes"/>
      <point x="770.333" y="1422"/>
      <point x="932" y="1280.333"/>
      <point x="932" y="1091" type="curve" smooth="yes"/>
      <point x="932" y="904.333"/>
      <point x="779" y="772"/>
    </contour>
  </outline>
</glyph>
<glyph name="G" format="2">
  <advance width="1406"/>
  <unicode hex="0047"/>
  <note>
uni0047
</note>
  <outline>
    <contour>
      <point x="729" y="-20" type="curve" smooth="yes"/>
      <point x="950.333" y="-20"/>
      <point x="1152.667" y="54.667"/>
      <point x="1226" y="156" type="curve"/>
      <point x="1226" y="660" type="line"/>
      <point x="727" y="660" type="line"/>
      <point x="727" y="605" type="line"/>
      <point x="1172" y="605" type="line"/>
      <point x="1172" y="181" type="line"/>
      <point x="1109.333" y="99.667"/>
      <point x="923.667" y="34"/>
      <point x="729" y="34" type="curve" smooth="yes"/>
      <point x="408" y="34"/>
      <point x="222" y="294"/>
      <point x="222" y="620" type="curve" smooth="yes"/>
      <point x="222" y="852" type="line" smooth="yes"/>
      <point x="222" y="1083"/>
      <point x="418.667" y="1422"/>
      <point x="712" y="1422" type="curve" smooth="yes"/>
      <point x="972" y="1422"/>
      <point x="1134" y="1294"/>
      <point x="1170" y="1062" type="curve"/>
      <point x="1224" y="1062" type="line"/>
      <point x="1194.667" y="1318"/>
      <point x="1001.333" y="1476"/>
      <point x="712" y="1476" type="curve" smooth="yes"/>
      <point x="320.923" y="1474.205"/>
      <point x="168" y="1027"/>
      <point x="168" y="858" type="curve" smooth="yes"/>
      <point x="168" y="608" type="line" smooth="yes"/>
      <point x="168" y="255"/>
      <point x="384" y="-20"/>
    </contour>
  </outline>
</glyph>
<glyph name="O" format="2">
  <advance width="1364"/>
  <unicode hex="004F"/>
  <note>
uni004F
</note>
  <outline>
    <contour>
      <point x="683" y="-20" type="curve" smooth="yes"/>
      <point x="900.333" y="-20"/>
      <point x="1073.5" y="90.5"/>
      <point x="1163.5" y="284.5" type="curve" smooth="yes"/>
      <point x="1208.5" y="381.5"/>
      <point x="1231" y="493"/>
      <point x="1231" y="619" type="curve" smooth="yes"/>
      <point x="1231" y="837" type="line" smooth="yes"/>
      <point x="1231" y="1086.333"/>
      <point x="1136.833" y="1290.5"/>
      <point x="969.5" y="1396.5" type="curve" smooth="yes"/>
      <point x="885.833" y="1449.5"/>
      <point x="789.667" y="1476"/>
      <point x="681" y="1476" type="curve" smooth="yes"/>
      <point x="465" y="1476"/>
      <point x="290.5" y="1365.667"/>
      <point x="200.5" y="1171" type="curve" smooth="yes"/>
      <point x="155.5" y="1073.667"/>
      <point x="133" y="962.333"/>
      <point x="133" y="837" type="curve" smooth="yes"/>
      <point x="133" y="627" type="line" smooth="yes"/>
      <point x="133" y="419"/>
      <point x="194" y="251"/>
      <point x="300" y="138" type="curve" smooth="yes"/>
      <point x="395" y="37"/>
      <point x="527" y="-20"/>
    </contour>
    <contour>
      <point x="683" y="34" type="curve" smooth="yes"/>
      <point x="355" y="34"/>
      <point x="188" y="296"/>
      <point x="188" y="619" type="curve" smooth="yes"/>
      <point x="188" y="832" type="line" smooth="yes"/>
      <point x="188" y="1196"/>
      <point x="381" y="1422"/>
      <point x="681" y="1422" type="curve" smooth="yes"/>
      <point x="985" y="1422"/>
      <point x="1177" y="1191"/>
      <point x="1177" y="839" type="curve" smooth="yes"/>
      <point x="1177" y="627" type="line" smooth="yes"/>
      <point x="1177" y="260.333"/>
      <point x="987" y="34"/>
    </contour>
  </outline>
</glyph>
<glyph name="P" format="2">
  <advance width="1230"/>
  <unicode hex="0050"/>
  <note>
uni0050
</note>
  <outline>
    <contour>
      <point x="200" y="0" type="line"/>
      <point x="254" y="0" type="line"/>
      <point x="254" y="615" type="line"/>
      <point x="662" y="615" type="line" smooth="yes"/>
      <point x="958" y="617.667"/>
      <point x="1125" y="767"/>
      <point x="1125" y="1031" type="curve" smooth="yes"/>
      <point x="1125" y="1297.667"/>
      <point x="952.333" y="1456"/>
      <point x="655" y="1456" type="curve" smooth="yes"/>
      <point x="200" y="1456" type="line"/>
    </contour>
    <contour>
      <point x="254" y="669" type="line"/>
      <point x="254" y="1402" type="line"/>
      <point x="655" y="1402" type="line" smooth="yes"/>
      <point x="917.667" y="1402"/>
      <point x="1071" y="1263.667"/>
      <point x="1071" y="1029" type="curve" smooth="yes"/>
      <point x="1071" y="802.333"/>
      <point x="917.667" y="669"/>
      <point x="655" y="669" type="curve" smooth="yes"/>
    </contour>
  </outline>
</glyph>
<glyph name="R" format="2">
  <advance width="1340"/>
  <unicode hex="0052"/>
  <note>
uni0052
</note>
  <outline>
    <contour>
      <point x="195" y="0" type="line"/>
      <point x="249" y="0" type="line"/>
      <point x="249" y="623" type="line"/>
      <point x="754" y="623" type="line"/>
      <point x="1141" y="0" type="line"/>
      <point x="1206" y="0" type="line"/>
      <point x="809" y="637" type="line"/>
      <point x="999.667" y="673"/>
      <point x="1137" y="837.333"/>
      <point x="1137" y="1036" type="curve" smooth="yes"/>
      <point x="1137" y="1294.667"/>
      <point x="951" y="1456"/>
      <point x="659" y="1456" type="curve" smooth="yes"/>
      <point x="195" y="1456" type="line"/>
    </contour>
    <contour>
      <point x="249" y="677" type="line"/>
      <point x="249" y="1402" type="line"/>
      <point x="655" y="1402" type="line" smooth="yes"/>
      <point x="920.333" y="1402"/>
      <point x="1083" y="1262.667"/>
      <point x="1083" y="1036" type="curve" smooth="yes"/>
      <point x="1083" y="829.333"/>
      <point x="932" y="677"/>
      <point x="708" y="677" type="curve" smooth="yes"/>
    </contour>
  </outline>
</glyph>
<glyph name="U" format="2">
  <advance width="1365"/>
  <unicode hex="0055"/>
  <note>
uni0055
</note>
  <outline>
    <contour>
      <point x="683" y="-20" type="curve" smooth="yes"/>
      <point x="988.333" y="-20"/>
      <point x="1180" y="162"/>
      <point x="1180" y="470" type="curve" smooth="yes"/>
      <point x="1180" y="1456" type="line"/>
      <point x="1126" y="1456" type="line"/>
      <point x="1126" y="473" type="line" smooth="yes"/>
      <point x="1126" y="202.333"/>
      <point x="951" y="34"/>
      <point x="683" y="34" type="curve" smooth="yes"/>
      <point x="415" y="34"/>
      <point x="239" y="202.667"/>
      <point x="239" y="472" type="curve" smooth="yes"/>
      <point x="239" y="1456" type="line"/>
      <point x="185" y="1456" type="line"/>
      <point x="185" y="466" type="line" smooth="yes"/>
      <point x="186.333" y="163.333"/>
      <point x="377.667" y="-20"/>
    </contour>
  </outline>
</glyph>
<glyph name="W" format="2">
  <advance width="1855"/>
  <unicode hex="0057"/>
  <note>
uni0057
</note>
  <outline>
    <contour>
      <point x="454" y="0" type="line"/>
      <point x="515" y="0" type="line"/>
      <point x="928" y="1368" type="line"/>
      <point x="1340" y="0" type="line"/>
      <point x="1401" y="0" type="line"/>
      <point x="1793" y="1456" type="line"/>
      <point x="1734" y="1456" type="line"/>
      <point x="1366" y="90" type="line"/>
      <point x="959" y="1456" type="line"/>
      <point x="899" y="1456" type="line"/>
      <point x="489" y="90" type="line"/>
      <point x="121" y="1456" type="line"/>
      <point x="61" y="1456" type="line"/>
    </contour>
  </outline>
</glyph>
<glyph name="a" format="2">
  <advance width="1081"/>
  <unicode hex="0061"/>
  <note>
uni0061
</note>
  <outline>
    <contour>
      <point x="425" y="-20" type="curve" smooth="yes"/>
      <point x="611.667" y="-20"/>
      <point x="765.667" y="59.333"/>
      <point x="851" y="198" type="curve"/>
      <point x="851" y="112"/>
      <point x="857.667" y="46"/>
      <point x="871" y="0" type="curve"/>
      <point x="933" y="0" type="line"/>
      <point x="933" y="9" type="line"/>
      <point x="914.333" y="51.667"/>
      <point x="905" y="132.333"/>
      <point x="905" y="251" type="curve" smooth="yes"/>
      <point x="905" y="768" type="line" smooth="yes"/>
      <point x="901" y="980"/>
      <point x="754.333" y="1102"/>
      <point x="521" y="1102" type="curve" smooth="yes"/>
      <point x="359" y="1102"/>
      <point x="223" y="1029"/>
      <point x="159" y="922" type="curve" smooth="yes"/>
      <point x="135" y="881"/>
      <point x="121" y="835"/>
      <point x="121" y="786" type="curve"/>
      <point x="175" y="784" type="line"/>
      <point x="175" y="933.333"/>
      <point x="323.667" y="1048"/>
      <point x="521" y="1048" type="curve" smooth="yes"/>
      <point x="733" y="1048"/>
      <point x="851" y="943.333"/>
      <point x="851" y="762" type="curve" smooth="yes"/>
      <point x="851" y="604" type="line"/>
      <point x="584" y="604" type="line" smooth="yes"/>
      <point x="286.667" y="601.333"/>
      <point x="92" y="472.667"/>
      <point x="92" y="274" type="curve" smooth="yes"/>
      <point x="92" y="99.333"/>
      <point x="225" y="-20"/>
    </contour>
    <contour>
      <point x="425" y="33" type="curve" smooth="yes"/>
      <point x="263.667" y="33"/>
      <point x="146" y="138"/>
      <point x="146" y="270" type="curve" smooth="yes"/>
      <point x="146" y="475"/>
      <point x="389" y="549"/>
      <point x="601" y="549" type="curve" smooth="yes"/>
      <point x="851" y="549" type="line"/>
      <point x="851" y="292" type="line"/>
      <point x="777.667" y="128"/>
      <point x="627.667" y="33"/>
    </contour>
  </outline>
</glyph>
<glyph name="c" format="2">
  <advance width="1039"/>
  <unicode hex="0063"/>
  <note>
uni0063
</note>
  <outline>
    <contour>
      <point x="539" y="-20" type="curve" smooth="yes"/>
      <point x="761.667" y="-20"/>
      <point x="929.333" y="118.667"/>
      <point x="940" y="328" type="curve"/>
      <point x="886" y="328" type="line"/>
      <point x="874" y="144"/>
      <point x="735" y="34"/>
      <point x="539" y="34" type="curve" smooth="yes"/>
      <point x="297.667" y="34"/>
      <point x="151" y="217.333"/>
      <point x="151" y="520" type="curve" smooth="yes"/>
      <point x="151" y="555" type="line" smooth="yes"/>
      <point x="151" y="864.333"/>
      <point x="295.667" y="1048"/>
      <point x="537" y="1048" type="curve" smooth="yes"/>
      <point x="738.333" y="1048"/>
      <point x="876.667" y="919.667"/>
      <point x="886" y="725" type="curve"/>
      <point x="940" y="725" type="line"/>
      <point x="930.667" y="953"/>
      <point x="766.333" y="1102"/>
      <point x="537" y="1102" type="curve" smooth="yes"/>
      <point x="269" y="1102"/>
      <point x="97" y="890"/>
      <point x="97" y="562" type="curve" smooth="yes"/>
      <point x="97" y="526" type="line" smooth="yes"/>
      <point x="97" y="190"/>
      <point x="268.333" y="-20"/>
    </contour>
  </outline>
</glyph>
<glyph name="g" format="2">
  <advance width="1123"/>
  <unicode hex="0067"/>
  <note>
uni0067
</note>
  <outline>
    <contour>
      <point x="541" y="-436" type="curve" smooth="yes"/>
      <point x="793" y="-436"/>
      <point x="950" y="-266.333"/>
      <point x="950" y="19" type="curve" smooth="yes"/>
      <point x="950" y="1082" type="line"/>
      <point x="895" y="1082" type="line"/>
      <point x="895" y="884" type="line"/>
      <point x="819" y="1026.667"/>
      <point x="690.333" y="1102"/>
      <point x="529" y="1102" type="curve" smooth="yes"/>
      <point x="275.667" y="1102"/>
      <point x="121" y="897.333"/>
      <point x="121" y="538" type="curve" smooth="yes"/>
      <point x="121" y="191.333"/>
      <point x="276.333" y="-20"/>
      <point x="527" y="-20" type="curve" smooth="yes"/>
      <point x="688.333" y="-20"/>
      <point x="820.333" y="48.333"/>
      <point x="895" y="171" type="curve"/>
      <point x="895" y="5" type="line" smooth="yes"/>
      <point x="891" y="-241.667"/>
      <point x="761.667" y="-383"/>
      <point x="539" y="-383" type="curve" smooth="yes"/>
      <point x="404.333" y="-383"/>
      <point x="309" y="-324.667"/>
      <point x="225" y="-218" type="curve"/>
      <point x="187" y="-254" type="line"/>
      <point x="272.333" y="-371.333"/>
      <point x="395.667" y="-436"/>
    </contour>
    <contour>
      <point x="526" y="34" type="curve" smooth="yes"/>
      <point x="304.667" y="34"/>
      <point x="176" y="221.667"/>
      <point x="176" y="531" type="curve" smooth="yes"/>
      <point x="176" y="871"/>
      <point x="305.333" y="1048"/>
      <point x="528" y="1048" type="curve" smooth="yes"/>
      <point x="714" y="1048"/>
      <point x="836.333" y="954.333"/>
      <point x="895" y="767" type="curve"/>
      <point x="895" y="276" type="line"/>
      <point x="841.667" y="122.667"/>
      <point x="708.667" y="34"/>
    </contour>
  </outline>
</glyph>
<glyph name="h" format="2">
  <advance width="1121"/>
  <unicode hex="0068"/>
  <note>
uni0068
</note>
  <outline>
    <contour>
      <point x="172" y="0" type="line"/>
      <point x="226" y="0" type="line"/>
      <point x="226" y="693" type="line"/>
      <point x="274" y="902.333"/>
      <point x="420.333" y="1049"/>
      <point x="607" y="1049" type="curve" smooth="yes"/>
      <point x="809.667" y="1049"/>
      <point x="898.667" y="940"/>
      <point x="900" y="708" type="curve" smooth="yes"/>
      <point x="900" y="0" type="line"/>
      <point x="954" y="0" type="line"/>
      <point x="954" y="706" type="line" smooth="yes"/>
      <point x="952.667" y="971.333"/>
      <point x="842" y="1102"/>
      <point x="610" y="1102" type="curve" smooth="yes"/>
      <point x="443.333" y="1102"/>
      <point x="296.667" y="998"/>
      <point x="226" y="830" type="curve"/>
      <point x="226" y="1536" type="line"/>
      <point x="172" y="1536" type="line"/>
    </contour>
  </outline>
</glyph>
<glyph name="j" format="2">
  <advance width="445"/>
  <unicode hex="006A"/>
  <note>
uni006A
</note>
  <outline>
    <contour>
      <point x="-45" y="-437" type="curve" smooth="yes"/>
      <point x="135" y="-437"/>
      <point x="240" y="-329"/>
      <point x="240" y="-129" type="curve" smooth="yes"/>
      <point x="240" y="1082" type="line"/>
      <point x="186" y="1082" type="line"/>
      <point x="186" y="-129" type="line" smooth="yes"/>
      <point x="186" y="-290.333"/>
      <point x="104.333" y="-383"/>
      <point x="-45" y="-383" type="curve" smooth="yes"/>
      <point x="-76.333" y="-383"/>
      <point x="-108" y="-377"/>
      <point x="-140" y="-365" type="curve"/>
      <point x="-143" y="-417" type="line"/>
      <point x="-110.333" y="-430.333"/>
      <point x="-77.667" y="-437"/>
    </contour>
    <contour>
      <point x="218" y="1365" type="curve" smooth="yes"/>
      <point x="248.667" y="1365"/>
      <point x="274" y="1389.333"/>
      <point x="274" y="1420" type="curve" smooth="yes"/>
      <point x="274" y="1450.667"/>
      <point x="248.667" y="1476"/>
      <point x="218" y="1476" type="curve" smooth="yes"/>
      <point x="187.333" y="1476"/>
      <point x="163" y="1450.667"/>
      <point x="163" y="1420" type="curve" smooth="yes"/>
      <point x="163" y="1389.333"/>
      <point x="187.333" y="1365"/>
    </contour>
  </outline>
</glyph>
<glyph name="o" format="2">
  <advance width="1127"/>
  <unicode hex="006F"/>
  <note>
uni006F
</note>
  <outline>
    <contour>
      <point x="565" y="-20" type="curve" smooth="yes"/>
      <point x="865" y="-20"/>
      <point x="1037" y="226"/>
      <point x="1037" y="568" type="curve" smooth="yes"/>
      <point x="1037" y="868"/>
      <point x="853" y="1102"/>
      <point x="563" y="1102" type="curve" smooth="yes"/>
      <point x="267" y="1102"/>
      <point x="90" y="858"/>
      <point x="90" y="562" type="curve" smooth="yes"/>
      <point x="94" y="140"/>
      <point x="411" y="-20"/>
    </contour>
    <contour>
      <point x="565" y="34" type="curve" smooth="yes"/>
      <point x="386" y="34"/>
      <point x="144" y="228"/>
      <point x="144" y="552" type="curve" smooth="yes"/>
      <point x="144" y="837.333"/>
      <point x="316.333" y="1048"/>
      <point x="563" y="1048" type="curve" smooth="yes"/>
      <point x="824" y="1048"/>
      <point x="983" y="818"/>
      <point x="983" y="562" type="curve" smooth="yes"/>
      <point x="983" y="239"/>
      <point x="812" y="34"/>
    </contour>
  </outline>
</glyph>
<glyph name="cent" format="2">
  <advance width="1110"/>
  <unicode hex="00A2"/>
  <note>
uni00A2
</note>
  <outline>
    <contour>
      <point x="549" y="-245" type="line"/>
      <point x="604" y="-245" type="line"/>
      <point x="604" y="-19" type="line"/>
      <point x="810.667" y="-8.333"/>
      <point x="966.333" y="128"/>
      <point x="977" y="328" type="curve"/>
      <point x="923" y="328" type="line"/>
      <point x="911" y="144"/>
      <point x="772" y="34"/>
      <point x="576" y="34" type="curve" smooth="yes"/>
      <point x="334.667" y="34"/>
      <point x="188" y="217.333"/>
      <point x="188" y="520" type="curve" smooth="yes"/>
      <point x="188" y="555" type="line" smooth="yes"/>
      <point x="188" y="864.333"/>
      <point x="332.667" y="1048"/>
      <point x="574" y="1048" type="curve" smooth="yes"/>
      <point x="775.333" y="1048"/>
      <point x="913.667" y="919.667"/>
      <point x="923" y="725" type="curve"/>
      <point x="977" y="725" type="line"/>
      <point x="967.667" y="942.333"/>
      <point x="821.333" y="1086.333"/>
      <point x="604" y="1101" type="curve"/>
      <point x="604" y="1318" type="line"/>
      <point x="549" y="1318" type="line"/>
      <point x="549" y="1101" type="line"/>
      <point x="294.333" y="1087.667"/>
      <point x="134" y="882"/>
      <point x="134" y="562" type="curve" smooth="yes"/>
      <point x="134" y="526" type="line" smooth="yes"/>
      <point x="134" y="199.333"/>
      <point x="294.333" y="-5.667"/>
      <point x="549" y="-19" type="curve"/>
    </contour>
  </outline>
</glyph>
<glyph name="currency" format="2">
  <advance width="1502"/>
  <unicode hex="00A4"/>
  <note>
uni00A4
</note>
  <outline>
    <contour>
      <point x="1339" y="-27" type="line"/>
      <point x="1380" y="13" type="line"/>
      <point x="1198" y="199" type="line"/>
      <point x="1292" y="315.667"/>
      <point x="1339" y="452"/>
      <point x="1339" y="608" type="curve" smooth="yes"/>
      <point x="1339" y="770"/>
      <point x="1288.333" y="910.333"/>
      <point x="1187" y="1029" type="curve"/>
      <point x="1380" y="1225" type="line"/>
      <point x="1339" y="1265" type="line"/>
      <point x="1148" y="1070" type="line"/>
      <point x="1041.333" y="1172.667"/>
      <point x="902.333" y="1234"/>
      <point x="745" y="1234" type="curve" smooth="yes"/>
      <point x="590.333" y="1234"/>
      <point x="456" y="1180"/>
      <point x="342" y="1072" type="curve"/>
      <point x="154" y="1264" type="line"/>
      <point x="114" y="1225" type="line"/>
      <point x="303" y="1032" type="line"/>
      <point x="200.333" y="913.333"/>
      <point x="149" y="772"/>
      <point x="149" y="608" type="curve" smooth="yes"/>
      <point x="149" y="450"/>
      <point x="197" y="312.333"/>
      <point x="293" y="195" type="curve"/>
      <point x="114" y="13" type="line"/>
      <point x="154" y="-26" type="line"/>
      <point x="330" y="154" type="line"/>
      <point x="435" y="47"/>
      <point x="570" y="-10"/>
      <point x="706" y="-19" type="curve" smooth="yes"/>
      <point x="869" y="-30"/>
      <point x="1034" y="28"/>
      <point x="1159" y="156" type="curve"/>
    </contour>
    <contour>
      <point x="745" y="33" type="curve" smooth="yes"/>
      <point x="446" y="33"/>
      <point x="204" y="294"/>
      <point x="204" y="608" type="curve" smooth="yes"/>
      <point x="204" y="919"/>
      <point x="446" y="1181"/>
      <point x="745" y="1181" type="curve" smooth="yes"/>
      <point x="1036" y="1181"/>
      <point x="1285" y="928"/>
      <point x="1285" y="608" type="curve" smooth="yes"/>
      <point x="1285" y="297"/>
      <point x="1046" y="33"/>
    </contour>
  </outline>
</glyph>
<glyph name="registered" format="2">
  <advance width="1674"/>
  <unicode hex="00AE"/>
  <note>
uni00AE
</note>
  <outline>
    <contour>
      <point x="825" y="-21" type="curve" smooth="yes"/>
      <point x="1087.667" y="-21"/>
      <point x="1322.667" y="128.667"/>
      <point x="1444" y="358" type="curve" smooth="yes"/>
      <point x="1504.667" y="472.667"/>
      <point x="1535" y="596.333"/>
      <point x="1535" y="729" type="curve" smooth="yes"/>
      <point x="1535" y="998.333"/>
      <point x="1403.167" y="1243.833"/>
      <point x="1182.5" y="1376.5" type="curve" smooth="yes"/>
      <point x="1072.167" y="1442.833"/>
      <point x="953" y="1476"/>
      <point x="825" y="1476" type="curve" smooth="yes"/>
      <point x="569" y="1476"/>
      <point x="333.167" y="1334.667"/>
      <point x="208.5" y="1104" type="curve" smooth="yes"/>
      <point x="146.167" y="988.667"/>
      <point x="115" y="863.667"/>
      <point x="115" y="729" type="curve" smooth="yes"/>
      <point x="115" y="463.667"/>
      <point x="241.833" y="220.5"/>
      <point x="462.5" y="82.5" type="curve" smooth="yes"/>
      <point x="572.833" y="13.5"/>
      <point x="693.667" y="-21"/>
    </contour>
    <contour>
      <point x="825" y="34" type="curve" smooth="yes"/>
      <point x="589" y="34"/>
      <point x="373" y="168.5"/>
      <point x="257" y="382.5" type="curve" smooth="yes"/>
      <point x="199" y="489.5"/>
      <point x="170" y="605"/>
      <point x="170" y="729" type="curve" smooth="yes"/>
      <point x="170" y="978.333"/>
      <point x="293.167" y="1204"/>
      <point x="496.5" y="1328" type="curve" smooth="yes"/>
      <point x="598.167" y="1390"/>
      <point x="707.667" y="1421"/>
      <point x="825" y="1421" type="curve" smooth="yes"/>
      <point x="1062" y="1421"/>
      <point x="1279" y="1284"/>
      <point x="1392" y="1075.5" type="curve" smooth="yes"/>
      <point x="1450" y="969.167"/>
      <point x="1479" y="853.667"/>
      <point x="1479" y="729" type="curve" smooth="yes"/>
      <point x="1479" y="486"/>
      <point x="1360" y="256"/>
      <point x="1153" y="128" type="curve" smooth="yes"/>
      <point x="1051.667" y="65.333"/>
      <point x="942.333" y="34"/>
    </contour>
    <contour>
      <point x="593" y="326" type="line"/>
      <point x="648" y="326" type="line"/>
      <point x="648" y="678" type="line"/>
      <point x="873" y="678" type="line" smooth="yes"/>
      <point x="998.333" y="675.333"/>
      <point x="1044" y="624.667"/>
      <point x="1044" y="502" type="curve" smooth="yes"/>
      <point x="1044" y="408.667"/>
      <point x="1048.667" y="350"/>
      <point x="1058" y="326" type="curve"/>
      <point x="1117" y="326" type="line"/>
      <point x="1117" y="342" type="line"/>
      <point x="1105.667" y="374.667"/>
      <point x="1100" y="428"/>
      <point x="1100" y="502" type="curve" smooth="yes"/>
      <point x="1100" y="614.667"/>
      <point x="1056" y="684"/>
      <point x="968" y="710" type="curve"/>
      <point x="1070" y="751.333"/>
      <point x="1121" y="820"/>
      <point x="1121" y="916" type="curve" smooth="yes"/>
      <point x="1121" y="1076"/>
      <point x="1024.667" y="1156"/>
      <point x="832" y="1156" type="curve" smooth="yes"/>
      <point x="593" y="1156" type="line"/>
    </contour>
    <contour>
      <point x="648" y="734" type="line"/>
      <point x="648" y="1101" type="line"/>
      <point x="846" y="1101" type="line" smooth="yes"/>
      <point x="1002" y="1098.333"/>
      <point x="1066" y="1047.667"/>
      <point x="1066" y="917" type="curve" smooth="yes"/>
      <point x="1066" y="807.667"/>
      <point x="981" y="734"/>
      <point x="853" y="734" type="curve" smooth="yes"/>
    </contour>
  </outline>
</glyph>
<glyph name="twosuperior" format="2">
  <advance width="728"/>
  <unicode hex="00B2"/>
  <note>
uni00B2
</note>
  <outline>
    <contour>
      <point x="108" y="664" type="line"/>
      <point x="651" y="664" type="line"/>
      <point x="651" y="713" type="line"/>
      <point x="175" y="713" type="line"/>
      <point x="492" y="1031" type="line" smooth="yes"/>
      <point x="567.333" y="1113"/>
      <point x="605" y="1185.333"/>
      <point x="605" y="1248" type="curve" smooth="yes"/>
      <point x="605" y="1378.667"/>
      <point x="510.667" y="1464"/>
      <point x="356" y="1464" type="curve" smooth="yes"/>
      <point x="197.333" y="1464"/>
      <point x="86" y="1363.333"/>
      <point x="86" y="1226" type="curve"/>
      <point x="140" y="1226" type="line"/>
      <point x="140" y="1339.333"/>
      <point x="220" y="1415"/>
      <point x="356" y="1415" type="curve" smooth="yes"/>
      <point x="485.333" y="1415"/>
      <point x="551" y="1349.667"/>
      <point x="551" y="1247" type="curve" smooth="yes"/>
      <point x="551" y="1179"/>
      <point x="503.333" y="1105.667"/>
      <point x="398" y="1003" type="curve" smooth="yes"/>
      <point x="108" y="708" type="line"/>
    </contour>
  </outline>
</glyph>
<glyph name="AE" format="2">
  <advance width="1816"/>
  <unicode hex="00C6"/>
  <note>
uni00C6
</note>
  <outline>
    <contour>
      <point x="50" y="0" type="line"/>
      <point x="115" y="0" type="line"/>
      <point x="371" y="425" type="line"/>
      <point x="998" y="425" type="line"/>
      <point x="1016" y="0" type="line"/>
      <point x="1768" y="0" type="line"/>
      <point x="1768" y="54" type="line"/>
      <point x="1067" y="54" type="line"/>
      <point x="1039" y="732" type="line"/>
      <point x="1625" y="732" type="line"/>
      <point x="1625" y="786" type="line"/>
      <point x="1037" y="786" type="line"/>
      <point x="1011" y="1402" type="line"/>
      <point x="1707" y="1402" type="line"/>
      <point x="1707" y="1456" type="line"/>
      <point x="931" y="1456" type="line"/>
    </contour>
    <contour>
      <point x="403" y="478" type="line"/>
      <point x="957" y="1398" type="line"/>
      <point x="996" y="478" type="line"/>
    </contour>
  </outline>
</glyph>
<glyph name="Thorn" format="2">
  <advance width="1219"/>
  <unicode hex="00DE"/>
  <note>
uni00DE
</note>
  <outline>
    <contour>
      <point x="200" y="0" type="line"/>
      <point x="254" y="0" type="line"/>
      <point x="254" y="334" type="line"/>
      <point x="639" y="334" type="line" smooth="yes"/>
      <point x="907" y="339.333"/>
      <point x="1075" y="498"/>
      <point x="1075" y="738" type="curve" smooth="yes"/>
      <point x="1075" y="910"/>
      <point x="989" y="1041"/>
      <point x="840" y="1103" type="curve" smooth="yes"/>
      <point x="780" y="1128"/>
      <point x="710" y="1142"/>
      <point x="631" y="1143" type="curve" smooth="yes"/>
      <point x="254" y="1143" type="line"/>
      <point x="254" y="1456" type="line"/>
      <point x="200" y="1456" type="line"/>
    </contour>
    <contour>
      <point x="254" y="388" type="line"/>
      <point x="254" y="1089" type="line"/>
      <point x="640" y="1089" type="line" smooth="yes"/>
      <point x="872" y="1083.667"/>
      <point x="1021" y="940"/>
      <point x="1021" y="736" type="curve" smooth="yes"/>
      <point x="1021" y="533.333"/>
      <point x="866.333" y="388"/>
      <point x="625" y="388" type="curve" smooth="yes"/>
    </contour>
  </outline>
</glyph>
<glyph name="oe" format="2">
  <advance width="1924"/>
  <unicode hex="0153"/>
  <note>
uni0153
</note>
  <outline>
    <contour>
      <point x="567" y="-20" type="curve" smooth="yes"/>
      <point x="779" y="-20"/>
      <point x="949" y="108.333"/>
      <point x="1013" y="331" type="curve"/>
      <point x="1074.333" y="121.667"/>
      <point x="1248" y="-20"/>
      <point x="1444" y="-20" type="curve" smooth="yes"/>
      <point x="1606" y="-20"/>
      <point x="1729.667" y="27.667"/>
      <point x="1815" y="123" type="curve"/>
      <point x="1786" y="165" type="line"/>
      <point x="1712" y="77.667"/>
      <point x="1598" y="34"/>
      <point x="1444" y="34" type="curve" smooth="yes"/>
      <point x="1170" y="34"/>
      <point x="1044" y="255"/>
      <point x="1044" y="577" type="curve"/>
      <point x="1855" y="577" type="line"/>
      <point x="1855" y="656" type="line" smooth="yes"/>
      <point x="1855" y="928"/>
      <point x="1687.667" y="1102"/>
      <point x="1441" y="1102" type="curve" smooth="yes"/>
      <point x="1241" y="1102"/>
      <point x="1076.333" y="961.667"/>
      <point x="1015" y="747" type="curve"/>
      <point x="952.333" y="967"/>
      <point x="786.333" y="1102"/>
      <point x="565" y="1102" type="curve" smooth="yes"/>
      <point x="382.333" y="1102"/>
      <point x="230.833" y="1005.167"/>
      <point x="151.5" y="840.5" type="curve" smooth="yes"/>
      <point x="111.833" y="758.167"/>
      <point x="92" y="665.333"/>
      <point x="92" y="562" type="curve" smooth="yes"/>
      <point x="92" y="514" type="line" smooth="yes"/>
      <point x="92" y="140"/>
      <point x="411" y="-20"/>
    </contour>
    <contour>
      <point x="567" y="34" type="curve" smooth="yes"/>
      <point x="303" y="34"/>
      <point x="146" y="320"/>
      <point x="146" y="520" type="curve" smooth="yes"/>
      <point x="146" y="837.333"/>
      <point x="318.333" y="1048"/>
      <point x="565" y="1048" type="curve" smooth="yes"/>
      <point x="836" y="1048"/>
      <point x="985" y="818"/>
      <point x="985" y="531" type="curve" smooth="yes"/>
      <point x="985" y="239"/>
      <point x="813.667" y="34"/>
    </contour>
    <contour>
      <point x="1047" y="631" type="line"/>
      <point x="1072.333" y="876.333"/>
      <point x="1230.333" y="1048"/>
      <point x="1441" y="1048" type="curve" smooth="yes"/>
      <point x="1650.333" y="1048"/>
      <point x="1801" y="889.333"/>
      <point x="1801" y="664" type="curve" smooth="yes"/>
      <point x="1801" y="631" type="line"/>
    </contour>
  </outline>
</glyph>
<glyph name="ogonek" format="2">
  <advance width="471"/>
  <unicode hex="02DB"/>
  <note>
uni02DB
</note>
  <outline>
    <contour>
      <point x="218" y="-395" type="curve" smooth="yes"/>
      <point x="264.667" y="-395"/>
      <point x="306.667" y="-380.333"/>
      <point x="344" y="-351" type="curve"/>
      <point x="328" y="-303" type="line"/>
      <point x="292.667" y="-328.333"/>
      <point x="256" y="-341"/>
      <point x="218" y="-341" type="curve" smooth="yes"/>
      <point x="156" y="-341"/>
      <point x="125" y="-309.333"/>
      <point x="125" y="-246" type="curve" smooth="yes"/>
      <point x="125" y="-166"/>
      <point x="250" y="-49"/>
      <point x="313" y="0" type="curve"/>
      <point x="270" y="20" type="line"/>
      <point x="137.333" y="-79.333"/>
      <point x="71" y="-168"/>
      <point x="71" y="-246" type="curve" smooth="yes"/>
      <point x="71" y="-347.333"/>
      <point x="128.667" y="-395"/>
    </contour>
  </outline>
</glyph>
<glyph name="hungarumlaut" format="2">
  <advance width="783"/>
  <unicode hex="02DD"/>
  <note>
uni02DD
</note>
  <outline>
    <contour>
      <point x="381" y="1232" type="line"/>
      <point x="454" y="1232" type="line"/>
      <point x="742" y="1536" type="line"/>
      <point x="662" y="1536" type="line"/>
    </contour>
    <contour>
      <point x="146" y="1232" type="line"/>
      <point x="215" y="1232" type="line"/>
      <point x="458" y="1536" type="line"/>
      <point x="382" y="1536" type="line"/>
    </contour>
  </outline>
</glyph>
<glyph name="dblgravecomb" format="2">
  <unicode hex="030F"/>
  <note>
uni030F
</note>
  <outline>
    <contour>
      <point x="-671" y="1252" type="line"/>
      <point x="-598" y="1252" type="line"/>
      <point x="-889" y="1518" type="line"/>
      <point x="-969" y="1518" type="line"/>
    </contour>
    <contour>
      <point x="-442" y="1252" type="line"/>
      <point x="-373" y="1252" type="line"/>
      <point x="-619" y="1518" type="line"/>
      <point x="-695" y="1518" type="line"/>
    </contour>
  </outline>
</glyph>
<glyph name="ha-ethiopic" format="2">
  <advance width="1241"/>
  <unicode hex="1200"/>
  <outline>
    <contour>
      <point x="617" y="-20" type="curve" smooth="yes"/>
      <point x="848" y="-23"/>
      <point x="1012" y="121"/>
      <point x="1012" y="385" type="curve" smooth="yes"/>
      <point x="1012" y="1082" type="line"/>
      <point x="957" y="1082" type="line"/>
      <point x="957" y="385" type="line" smooth="yes"/>
      <point x="957" y="163"/>
      <point x="822" y="34"/>
      <point x="615" y="34" type="curve" smooth="yes"/>
      <point x="420" y="34"/>
      <point x="282" y="163"/>
      <point x="282" y="385" type="curve" smooth="yes"/>
      <point x="282" y="1082" type="line"/>
      <point x="228" y="1082" type="line"/>
      <point x="228" y="385" type="line" smooth="yes"/>
      <point x="228" y="121"/>
      <point x="375" y="-17"/>
    </contour>
  </outline>
</glyph>
<glyph name="hu-ethiopic" format="2">
  <advance width="1241"/>
  <unicode hex="1201"/>
  <outline>
    <contour>
      <point x="617" y="-20" type="curve" smooth="yes"/>
      <point x="848" y="-23"/>
      <point x="1012" y="121"/>
      <point x="1012" y="385" type="curve" smooth="yes"/>
      <point x="1012" y="1082" type="line"/>
      <point x="957" y="1082" type="line"/>
      <point x="957" y="385" type="line" smooth="yes"/>
      <point x="957" y="163"/>
      <point x="822" y="34"/>
      <point x="615" y="34" type="curve" smooth="yes"/>
      <point x="420" y="34"/>
      <point x="282" y="163"/>
      <point x="282" y="385" type="curve" smooth="yes"/>
      <point x="282" y="1082" type="line"/>
      <point x="228" y="1082" type="line"/>
      <point x="228" y="385" type="line" smooth="yes"/>
      <point x="228" y="121"/>
      <point x="375" y="-17"/>
    </contour>
    <contour>
      <point x="1128" y="559" type="curve" smooth="yes"/>
      <point x="1159" y="559"/>
      <point x="1184" y="583"/>
      <point x="1184" y="614" type="curve" smooth="yes"/>
      <point x="1184" y="645"/>
      <point x="1159" y="670"/>
      <point x="1128" y="670" type="curve" smooth="yes"/>
      <point x="1097" y="670"/>
      <point x="1073" y="645"/>
      <point x="1073" y="614" type="curve" smooth="yes"/>
      <point x="1073" y="583"/>
      <point x="1097" y="559"/>
    </contour>
  </outline>
</glyph>
<glyph name="hi-ethiopic" format="2">
  <advance width="1241"/>
  <unicode hex="1202"/>
  <outline>
    <contour>
      <point x="617" y="-20" type="curve" smooth="yes"/>
      <point x="848" y="-23"/>
      <point x="1012" y="121"/>
      <point x="1012" y="385" type="curve" smooth="yes"/>
      <point x="1012" y="1082" type="line"/>
      <point x="957" y="1082" type="line"/>
      <point x="957" y="385" type="line" smooth="yes"/>
      <point x="957" y="163"/>
      <point x="822" y="34"/>
      <point x="615" y="34" type="curve" smooth="yes"/>
      <point x="420" y="34"/>
      <point x="282" y="163"/>
      <point x="282" y="385" type="curve" smooth="yes"/>
      <point x="282" y="1082" type="line"/>
      <point x="228" y="1082" type="line"/>
      <point x="228" y="385" type="line" smooth="yes"/>
      <point x="228" y="121"/>
      <point x="375" y="-17"/>
    </contour>
    <contour>
      <point x="975" y="-356" type="curve" smooth="yes"/>
      <point x="1006" y="-356"/>
      <point x="1031" y="-332"/>
      <point x="1031" y="-301" type="curve" smooth="yes"/>
      <point x="1031" y="-270"/>
      <point x="1006" y="-245"/>
      <point x="975" y="-245" type="curve" smooth="yes"/>
      <point x="944" y="-245"/>
      <point x="920" y="-270"/>
      <point x="920" y="-301" type="curve" smooth="yes"/>
      <point x="920" y="-332"/>
      <point x="944" y="-356"/>
    </contour>
    <contour>
      <point x="818" y="-356" type="line"/>
      <point x="875" y="-356" type="line"/>
      <point x="875" y="-2" type="line"/>
      <point x="818" y="-2" type="line"/>
    </contour>
  </outline>
</glyph>
<glyph name="haa-ethiopic" format="2">
  <advance width="1241"/>
  <unicode hex="1203"/>
  <outline>
    <contour>
      <point x="617" y="-20" type="curve" smooth="yes"/>
      <point x="848" y="-23"/>
      <point x="1012" y="121"/>
      <point x="1012" y="385" type="curve" smooth="yes"/>
      <point x="1012" y="1082" type="line"/>
      <point x="957" y="1082" type="line"/>
      <point x="957" y="385" type="line" smooth="yes"/>
      <point x="957" y="163"/>
      <point x="822" y="34"/>
      <point x="615" y="34" type="curve" smooth="yes"/>
      <point x="420" y="34"/>
      <point x="282" y="163"/>
      <point x="282" y="385" type="curve" smooth="yes"/>
      <point x="282" y="1082" type="line"/>
      <point x="228" y="1082" type="line"/>
      <point x="228" y="385" type="line" smooth="yes"/>
      <point x="228" y="121"/>
      <point x="375" y="-17"/>
    </contour>
    <contour>
      <point x="818" y="-356" type="line"/>
      <point x="875" y="-356" type="line"/>
      <point x="875" y="-2" type="line"/>
      <point x="818" y="-2" type="line"/>
    </contour>
  </outline>
</glyph>
<glyph name="hee-ethiopic" format="2">
  <advance width="1241"/>
  <unicode hex="1204"/>
  <outline>
    <contour>
      <point x="617" y="-20" type="curve" smooth="yes"/>
      <point x="848" y="-23"/>
      <point x="1012" y="121"/>
      <point x="1012" y="385" type="curve" smooth="yes"/>
      <point x="1012" y="1082" type="line"/>
      <point x="957" y="1082" type="line"/>
      <point x="957" y="385" type="line" smooth="yes"/>
      <point x="957" y="163"/>
      <point x="822" y="34"/>
      <point x="615" y="34" type="curve" smooth="yes"/>
      <point x="420" y="34"/>
      <point x="282" y="163"/>
      <point x="282" y="385" type="curve" smooth="yes"/>
      <point x="282" y="1082" type="line"/>
      <point x="228" y="1082" type="line"/>
      <point x="228" y="385" type="line" smooth="yes"/>
      <point x="228" y="121"/>
      <point x="375" y="-17"/>
    </contour>
    <contour>
      <point x="878" y="-407" type="curve" smooth="yes"/>
      <point x="1003" y="-407"/>
      <point x="1100" y="-310"/>
      <point x="1100" y="-186" type="curve" smooth="yes"/>
      <point x="1100" y="-61"/>
      <point x="1003" y="41"/>
      <point x="878" y="41" type="curve" smooth="yes"/>
      <point x="757" y="41"/>
      <point x="656" y="-56"/>
      <point x="656" y="-186" type="curve" smooth="yes"/>
      <point x="656" y="-316"/>
      <point x="758" y="-407"/>
    </contour>
    <contour>
      <point x="877" y="-369" type="curve" smooth="yes"/>
      <point x="775" y="-369"/>
      <point x="702" y="-298"/>
      <point x="702" y="-195" type="curve" smooth="yes"/>
      <point x="702" y="-87"/>
      <point x="775" y="-15"/>
      <point x="877" y="-15" type="curve" smooth="yes"/>
      <point x="979" y="-15"/>
      <point x="1052" y="-87"/>
      <point x="1052" y="-195" type="curve" smooth="yes"/>
      <point x="1052" y="-298"/>
      <point x="979" y="-369"/>
    </contour>
  </outline>
</glyph>
<glyph name="ho-ethiopic" format="2">
  <advance width="1241"/>
  <unicode hex="1206"/>
  <outline>
    <contour>
      <point x="617" y="-20" type="curve" smooth="yes"/>
      <point x="848" y="-23"/>
      <point x="1012" y="121"/>
      <point x="1012" y="385" type="curve" smooth="yes"/>
      <point x="1012" y="1082" type="line"/>
      <point x="957" y="1082" type="line"/>
      <point x="957" y="385" type="line" smooth="yes"/>
      <point x="957" y="163"/>
      <point x="822" y="34"/>
      <point x="615" y="34" type="curve" smooth="yes"/>
      <point x="420" y="34"/>
      <point x="282" y="163"/>
      <point x="282" y="385" type="curve" smooth="yes"/>
      <point x="282" y="1082" type="line"/>
      <point x="228" y="1082" type="line"/>
      <point x="228" y="385" type="line" smooth="yes"/>
      <point x="228" y="121"/>
      <point x="375" y="-17"/>
    </contour>
    <contour>
      <point x="789" y="826" type="curve" smooth="yes"/>
      <point x="914" y="826"/>
      <point x="1011" y="923"/>
      <point x="1011" y="1047" type="curve" smooth="yes"/>
      <point x="1011" y="1172"/>
      <point x="914" y="1274"/>
      <point x="789" y="1274" type="curve" smooth="yes"/>
      <point x="668" y="1274"/>
      <point x="567" y="1177"/>
      <point x="567" y="1047" type="curve" smooth="yes"/>
      <point x="567" y="917"/>
      <point x="669" y="826"/>
    </contour>
    <contour>
      <point x="788" y="864" type="curve" smooth="yes"/>
      <point x="686" y="864"/>
      <point x="613" y="935"/>
      <point x="613" y="1038" type="curve" smooth="yes"/>
      <point x="613" y="1146"/>
      <point x="686" y="1218"/>
      <point x="788" y="1218" type="curve" smooth="yes"/>
      <point x="890" y="1218"/>
      <point x="963" y="1146"/>
      <point x="963" y="1038" type="curve" smooth="yes"/>
      <point x="963" y="935"/>
      <point x="890" y="864"/>
    </contour>
  </outline>
</glyph>
<glyph name="lu-ethiopic" format="2">
  <advance width="1241"/>
  <unicode hex="1209"/>
  <outline>
    <contour>
      <point x="232" y="0" type="line"/>
      <point x="286" y="0" type="line"/>
      <point x="286" y="693" type="line"/>
      <point x="334" y="902"/>
      <point x="480" y="1049"/>
      <point x="667" y="1049" type="curve" smooth="yes"/>
      <point x="870" y="1049"/>
      <point x="960" y="940"/>
      <point x="960" y="708" type="curve" smooth="yes"/>
      <point x="960" y="0" type="line"/>
      <point x="1014" y="0" type="line"/>
      <point x="1014" y="706" type="line" smooth="yes"/>
      <point x="1014" y="971"/>
      <point x="902" y="1102"/>
      <point x="670" y="1102" type="curve" smooth="yes"/>
      <point x="503" y="1102"/>
      <point x="357" y="998"/>
      <point x="286" y="830" type="curve"/>
      <point x="286" y="1536" type="line"/>
      <point x="232" y="1536" type="line"/>
    </contour>
    <contour>
      <point x="1104" y="622" type="curve" smooth="yes"/>
      <point x="1135" y="622"/>
      <point x="1160" y="646"/>
      <point x="1160" y="677" type="curve" smooth="yes"/>
      <point x="1160" y="708"/>
      <point x="1135" y="733"/>
      <point x="1104" y="733" type="curve" smooth="yes"/>
      <point x="1073" y="733"/>
      <point x="1049" y="708"/>
      <point x="1049" y="677" type="curve" smooth="yes"/>
      <point x="1049" y="646"/>
      <point x="1073" y="622"/>
    </contour>
  </outline>
</glyph>
<glyph name="lee-ethiopic" format="2">
  <advance width="1241"/>
  <unicode hex="120C"/>
  <outline>
    <contour>
      <point x="232" y="0" type="line"/>
      <point x="286" y="0" type="line"/>
      <point x="286" y="693" type="line"/>
      <point x="334" y="902"/>
      <point x="480" y="1049"/>
      <point x="667" y="1049" type="curve" smooth="yes"/>
      <point x="870" y="1049"/>
      <point x="960" y="940"/>
      <point x="960" y="708" type="curve" smooth="yes"/>
      <point x="960" y="0" type="line"/>
      <point x="1014" y="0" type="line"/>
      <point x="1014" y="706" type="line" smooth="yes"/>
      <point x="1014" y="971"/>
      <point x="902" y="1102"/>
      <point x="670" y="1102" type="curve" smooth="yes"/>
      <point x="503" y="1102"/>
      <point x="357" y="998"/>
      <point x="286" y="830" type="curve"/>
      <point x="286" y="1536" type="line"/>
      <point x="232" y="1536" type="line"/>
    </contour>
    <contour>
      <point x="796" y="-297" type="curve" smooth="yes"/>
      <point x="921" y="-297"/>
      <point x="1018" y="-200"/>
      <point x="1018" y="-76" type="curve" smooth="yes"/>
      <point x="1018" y="49"/>
      <point x="921" y="151"/>
      <point x="796" y="151" type="curve" smooth="yes"/>
      <point x="675" y="151"/>
      <point x="574" y="54"/>
      <point x="574" y="-76" type="curve" smooth="yes"/>
      <point x="574" y="-206"/>
      <point x="676" y="-297"/>
    </contour>
    <contour>
      <point x="795" y="-259" type="curve" smooth="yes"/>
      <point x="693" y="-259"/>
      <point x="620" y="-188"/>
      <point x="620" y="-85" type="curve" smooth="yes"/>
      <point x="620" y="23"/>
      <point x="693" y="95"/>
      <point x="795" y="95" type="curve" smooth="yes"/>
      <point x="897" y="95"/>
      <point x="970" y="23"/>
      <point x="970" y="-85" type="curve" smooth="yes"/>
      <point x="970" y="-188"/>
      <point x="897" y="-259"/>
    </contour>
  </outline>
</glyph>
<glyph name="le-ethiopic" format="2">
  <advance width="1241"/>
  <unicode hex="120D"/>
  <outline>
    <contour>
      <point x="232" y="0" type="line"/>
      <point x="286" y="0" type="line"/>
      <point x="286" y="693" type="line"/>
      <point x="334" y="902"/>
      <point x="480" y="1049"/>
      <point x="667" y="1049" type="curve" smooth="yes"/>
      <point x="870" y="1049"/>
      <point x="960" y="940"/>
      <point x="960" y="708" type="curve" smooth="yes"/>
      <point x="960" y="0" type="line"/>
      <point x="1014" y="0" type="line"/>
      <point x="1014" y="706" type="line" smooth="yes"/>
      <point x="1014" y="971"/>
      <point x="902" y="1102"/>
      <point x="670" y="1102" type="curve" smooth="yes"/>
      <point x="503" y="1102"/>
      <point x="357" y="998"/>
      <point x="286" y="830" type="curve"/>
      <point x="286" y="1536" type="line"/>
      <point x="232" y="1536" type="line"/>
    </contour>
    <contour>
      <point x="462" y="-147" type="curve" smooth="yes"/>
      <point x="579" y="-147"/>
      <point x="680" y="-58"/>
      <point x="680" y="69" type="curve" smooth="yes"/>
      <point x="680" y="197"/>
      <point x="581" y="291"/>
      <point x="462" y="291" type="curve" smooth="yes"/>
      <point x="340" y="291"/>
      <point x="244" y="192"/>
      <point x="244" y="69" type="curve" smooth="yes"/>
      <point x="244" y="-53"/>
      <point x="340" y="-147"/>
    </contour>
    <contour>
      <point x="462" y="-91" type="curve" smooth="yes"/>
      <point x="368" y="-91"/>
      <point x="300" y="-26"/>
      <point x="300" y="69" type="curve" smooth="yes"/>
      <point x="300" y="169"/>
      <point x="368" y="235"/>
      <point x="462" y="235" type="curve" smooth="yes"/>
      <point x="556" y="235"/>
      <point x="624" y="169"/>
      <point x="624" y="69" type="curve" smooth="yes"/>
      <point x="624" y="-26"/>
      <point x="556" y="-91"/>
    </contour>
  </outline>
</glyph>
<glyph name="lo-ethiopic" format="2">
  <advance width="1241"/>
  <unicode hex="120E"/>
  <outline>
    <contour>
      <point x="232" y="0" type="line"/>
      <point x="286" y="0" type="line"/>
      <point x="286" y="693" type="line"/>
      <point x="334" y="902"/>
      <point x="480" y="1049"/>
      <point x="667" y="1049" type="curve" smooth="yes"/>
      <point x="870" y="1049"/>
      <point x="960" y="940"/>
      <point x="960" y="708" type="curve" smooth="yes"/>
      <point x="960" y="0" type="line"/>
      <point x="1014" y="0" type="line"/>
      <point x="1014" y="706" type="line" smooth="yes"/>
      <point x="1014" y="971"/>
      <point x="902" y="1102"/>
      <point x="670" y="1102" type="curve" smooth="yes"/>
      <point x="503" y="1102"/>
      <point x="357" y="998"/>
      <point x="286" y="830" type="curve"/>
      <point x="286" y="1536" type="line"/>
      <point x="232" y="1536" type="line"/>
    </contour>
    <contour>
      <point x="966" y="415" type="curve" smooth="yes"/>
      <point x="1091" y="415"/>
      <point x="1188" y="512"/>
      <point x="1188" y="636" type="curve" smooth="yes"/>
      <point x="1188" y="761"/>
      <point x="1091" y="863"/>
      <point x="966" y="863" type="curve" smooth="yes"/>
      <point x="845" y="863"/>
      <point x="744" y="766"/>
      <point x="744" y="636" type="curve" smooth="yes"/>
      <point x="744" y="506"/>
      <point x="846" y="415"/>
    </contour>
    <contour>
      <point x="965" y="453" type="curve" smooth="yes"/>
      <point x="863" y="453"/>
      <point x="790" y="524"/>
      <point x="790" y="627" type="curve" smooth="yes"/>
      <point x="790" y="735"/>
      <point x="863" y="807"/>
      <point x="965" y="807" type="curve" smooth="yes"/>
      <point x="1067" y="807"/>
      <point x="1140" y="735"/>
      <point x="1140" y="627" type="curve" smooth="yes"/>
      <point x="1140" y="524"/>
      <point x="1067" y="453"/>
    </contour>
  </outline>
</glyph>
<glyph name="mee-ethiopic" format="2">
  <advance width="1980"/>
  <unicode hex="121C"/>
  <outline>
    <contour>
      <point x="366" y="0" type="curve" smooth="yes"/>
      <point x="604" y="0" type="line" smooth="yes"/>
      <point x="848" y="0"/>
      <point x="860" y="133"/>
      <point x="860" y="240" type="curve" smooth="yes"/>
      <point x="860" y="862" type="line" smooth="yes"/>
      <point x="860" y="913"/>
      <point x="1088" y="909"/>
      <point x="1088" y="862" type="curve" smooth="yes"/>
      <point x="1088" y="234" type="line" smooth="yes"/>
      <point x="1088" y="128"/>
      <point x="1149" y="0"/>
      <point x="1332" y="0" type="curve" smooth="yes"/>
      <point x="1601" y="0" type="line" smooth="yes"/>
      <point x="1741" y="0"/>
      <point x="1753" y="20"/>
      <point x="1753" y="166" type="curve" smooth="yes"/>
      <point x="1753" y="725" type="line" smooth="yes"/>
      <point x="1753" y="1006"/>
      <point x="1635" y="1102"/>
      <point x="1398" y="1102" type="curve" smooth="yes"/>
      <point x="1236" y="1102"/>
      <point x="1151" y="1050"/>
      <point x="1101" y="946" type="curve"/>
      <point x="870" y="946" type="line"/>
      <point x="838" y="1036"/>
      <point x="757" y="1100"/>
      <point x="592" y="1098" type="curve" smooth="yes"/>
      <point x="256" y="1094"/>
      <point x="232" y="966"/>
      <point x="232" y="800" type="curve" smooth="yes"/>
      <point x="232" y="166" type="line" smooth="yes"/>
      <point x="232" y="13"/>
      <point x="249" y="0"/>
    </contour>
    <contour>
      <point x="291" y="50" type="line"/>
      <point x="291" y="805" type="line" smooth="yes"/>
      <point x="291" y="986"/>
      <point x="350" y="1056"/>
      <point x="612" y="1056" type="curve" smooth="yes"/>
      <point x="780" y="1056"/>
      <point x="807" y="995"/>
      <point x="807" y="786" type="curve" smooth="yes"/>
      <point x="807" y="270" type="line" smooth="yes"/>
      <point x="807" y="76"/>
      <point x="767" y="50"/>
      <point x="576" y="50" type="curve" smooth="yes"/>
    </contour>
    <contour>
      <point x="1698" y="50" type="line"/>
      <point x="1436" y="50" type="line" smooth="yes"/>
      <point x="1199" y="50"/>
      <point x="1144" y="110"/>
      <point x="1144" y="366" type="curve" smooth="yes"/>
      <point x="1144" y="773" type="line" smooth="yes"/>
      <point x="1144" y="986"/>
      <point x="1206" y="1042"/>
      <point x="1396" y="1049" type="curve" smooth="yes"/>
      <point x="1560" y="1055"/>
      <point x="1698" y="1024"/>
      <point x="1698" y="719" type="curve" smooth="yes"/>
    </contour>
    <contour>
      <point x="1529" y="-407" type="curve" smooth="yes"/>
      <point x="1654" y="-407"/>
      <point x="1751" y="-310"/>
      <point x="1751" y="-186" type="curve" smooth="yes"/>
      <point x="1751" y="-61"/>
      <point x="1654" y="41"/>
      <point x="1529" y="41" type="curve" smooth="yes"/>
      <point x="1408" y="41"/>
      <point x="1307" y="-56"/>
      <point x="1307" y="-186" type="curve" smooth="yes"/>
      <point x="1307" y="-316"/>
      <point x="1409" y="-407"/>
    </contour>
    <contour>
      <point x="1528" y="-369" type="curve" smooth="yes"/>
      <point x="1426" y="-369"/>
      <point x="1353" y="-298"/>
      <point x="1353" y="-195" type="curve" smooth="yes"/>
      <point x="1353" y="-87"/>
      <point x="1426" y="-15"/>
      <point x="1528" y="-15" type="curve" smooth="yes"/>
      <point x="1630" y="-15"/>
      <point x="1703" y="-87"/>
      <point x="1703" y="-195" type="curve" smooth="yes"/>
      <point x="1703" y="-298"/>
      <point x="1630" y="-369"/>
    </contour>
  </outline>
</glyph>
<glyph name="mo-ethiopic" format="2">
  <advance width="1980"/>
  <unicode hex="121E"/>
  <outline>
    <contour>
      <point x="366" y="0" type="curve" smooth="yes"/>
      <point x="604" y="0" type="line" smooth="yes"/>
      <point x="848" y="0"/>
      <point x="860" y="133"/>
      <point x="860" y="240" type="curve" smooth="yes"/>
      <point x="860" y="862" type="line" smooth="yes"/>
      <point x="860" y="913"/>
      <point x="1088" y="909"/>
      <point x="1088" y="862" type="curve" smooth="yes"/>
      <point x="1088" y="234" type="line" smooth="yes"/>
      <point x="1088" y="128"/>
      <point x="1149" y="0"/>
      <point x="1332" y="0" type="curve" smooth="yes"/>
      <point x="1601" y="0" type="line" smooth="yes"/>
      <point x="1741" y="0"/>
      <point x="1753" y="20"/>
      <point x="1753" y="166" type="curve" smooth="yes"/>
      <point x="1753" y="725" type="line" smooth="yes"/>
      <point x="1753" y="1006"/>
      <point x="1635" y="1102"/>
      <point x="1398" y="1102" type="curve" smooth="yes"/>
      <point x="1236" y="1102"/>
      <point x="1151" y="1050"/>
      <point x="1101" y="946" type="curve"/>
      <point x="870" y="946" type="line"/>
      <point x="838" y="1036"/>
      <point x="757" y="1100"/>
      <point x="592" y="1098" type="curve" smooth="yes"/>
      <point x="256" y="1094"/>
      <point x="232" y="966"/>
      <point x="232" y="800" type="curve" smooth="yes"/>
      <point x="232" y="166" type="line" smooth="yes"/>
      <point x="232" y="13"/>
      <point x="249" y="0"/>
    </contour>
    <contour>
      <point x="291" y="50" type="line"/>
      <point x="291" y="805" type="line" smooth="yes"/>
      <point x="291" y="986"/>
      <point x="350" y="1056"/>
      <point x="612" y="1056" type="curve" smooth="yes"/>
      <point x="780" y="1056"/>
      <point x="807" y="995"/>
      <point x="807" y="786" type="curve" smooth="yes"/>
      <point x="807" y="270" type="line" smooth="yes"/>
      <point x="807" y="76"/>
      <point x="767" y="50"/>
      <point x="576" y="50" type="curve" smooth="yes"/>
    </contour>
    <contour>
      <point x="1698" y="50" type="line"/>
      <point x="1436" y="50" type="line" smooth="yes"/>
      <point x="1199" y="50"/>
      <point x="1144" y="110"/>
      <point x="1144" y="366" type="curve" smooth="yes"/>
      <point x="1144" y="773" type="line" smooth="yes"/>
      <point x="1144" y="986"/>
      <point x="1206" y="1042"/>
      <point x="1396" y="1049" type="curve" smooth="yes"/>
      <point x="1560" y="1055"/>
      <point x="1698" y="1024"/>
      <point x="1698" y="719" type="curve" smooth="yes"/>
    </contour>
    <contour>
      <point x="764" y="-354" type="line" name="❌"/>
      <point x="821" y="-354" type="line" name="❌"/>
      <point x="821" y="0" type="line"/>
      <point x="764" y="0" type="line"/>
    </contour>
  </outline>
</glyph>
<glyph name="szaa-ethiopic" format="2">
  <advance width="1976"/>
  <unicode hex="1223"/>
  <outline>
    <contour>
      <point x="575" y="-20" type="curve" smooth="yes"/>
      <point x="754" y="-20"/>
      <point x="909" y="80"/>
      <point x="973" y="236" type="curve"/>
      <point x="1009" y="55"/>
      <point x="1178" y="-20"/>
      <point x="1359" y="-20" type="curve" smooth="yes"/>
      <point x="1578" y="-20"/>
      <point x="1747" y="162"/>
      <point x="1747" y="399" type="curve" smooth="yes"/>
      <point x="1747" y="1082" type="line"/>
      <point x="1692" y="1082" type="line"/>
      <point x="1692" y="398" type="line" smooth="yes"/>
      <point x="1692" y="207"/>
      <point x="1539" y="33"/>
      <point x="1362" y="33" type="curve" smooth="yes"/>
      <point x="1157" y="33"/>
      <point x="1016" y="138"/>
      <point x="1016" y="355" type="curve" smooth="yes"/>
      <point x="1016" y="1082" type="line"/>
      <point x="962" y="1082" type="line"/>
      <point x="962" y="362" type="line" smooth="yes"/>
      <point x="962" y="259"/>
      <point x="836" y="37"/>
      <point x="578" y="33" type="curve" smooth="yes"/>
      <point x="374" y="30"/>
      <point x="282" y="143"/>
      <point x="282" y="380" type="curve" smooth="yes"/>
      <point x="282" y="1082" type="line"/>
      <point x="228" y="1082" type="line"/>
      <point x="228" y="376" type="line" smooth="yes"/>
      <point x="228" y="112"/>
      <point x="342" y="-20"/>
    </contour>
    <contour>
      <point x="1558" y="-356" type="line"/>
      <point x="1615" y="-356" type="line"/>
      <point x="1615" y="-2" type="line"/>
      <point x="1558" y="-2" type="line"/>
    </contour>
  </outline>
</glyph>
<glyph name="szee-ethiopic" format="2">
  <advance width="1976"/>
  <unicode hex="1224"/>
  <outline>
    <contour>
      <point x="575" y="-20" type="curve" smooth="yes"/>
      <point x="754" y="-20"/>
      <point x="909" y="80"/>
      <point x="973" y="236" type="curve"/>
      <point x="1009" y="55"/>
      <point x="1178" y="-20"/>
      <point x="1359" y="-20" type="curve" smooth="yes"/>
      <point x="1578" y="-20"/>
      <point x="1747" y="162"/>
      <point x="1747" y="399" type="curve" smooth="yes"/>
      <point x="1747" y="1082" type="line"/>
      <point x="1692" y="1082" type="line"/>
      <point x="1692" y="398" type="line" smooth="yes"/>
      <point x="1692" y="207"/>
      <point x="1539" y="33"/>
      <point x="1362" y="33" type="curve" smooth="yes"/>
      <point x="1157" y="33"/>
      <point x="1016" y="138"/>
      <point x="1016" y="355" type="curve" smooth="yes"/>
      <point x="1016" y="1082" type="line"/>
      <point x="962" y="1082" type="line"/>
      <point x="962" y="362" type="line" smooth="yes"/>
      <point x="962" y="259"/>
      <point x="836" y="37"/>
      <point x="578" y="33" type="curve" smooth="yes"/>
      <point x="374" y="30"/>
      <point x="282" y="143"/>
      <point x="282" y="380" type="curve" smooth="yes"/>
      <point x="282" y="1082" type="line"/>
      <point x="228" y="1082" type="line"/>
      <point x="228" y="376" type="line" smooth="yes"/>
      <point x="228" y="112"/>
      <point x="342" y="-20"/>
    </contour>
    <contour>
      <point x="1514" y="-407" type="curve" smooth="yes"/>
      <point x="1639" y="-407"/>
      <point x="1736" y="-310"/>
      <point x="1736" y="-186" type="curve" smooth="yes"/>
      <point x="1736" y="-61"/>
      <point x="1639" y="41"/>
      <point x="1514" y="41" type="curve" smooth="yes"/>
      <point x="1393" y="41"/>
      <point x="1292" y="-56"/>
      <point x="1292" y="-186" type="curve" smooth="yes"/>
      <point x="1292" y="-316"/>
      <point x="1394" y="-407"/>
    </contour>
    <contour>
      <point x="1513" y="-369" type="curve" smooth="yes"/>
      <point x="1411" y="-369"/>
      <point x="1338" y="-298"/>
      <point x="1338" y="-195" type="curve" smooth="yes"/>
      <point x="1338" y="-87"/>
      <point x="1411" y="-15"/>
      <point x="1513" y="-15" type="curve" smooth="yes"/>
      <point x="1615" y="-15"/>
      <point x="1688" y="-87"/>
      <point x="1688" y="-195" type="curve" smooth="yes"/>
      <point x="1688" y="-298"/>
      <point x="1615" y="-369"/>
    </contour>
  </outline>
</glyph>
<glyph name="ra-ethiopic" format="2">
  <advance width="1157"/>
  <unicode hex="1228"/>
  <outline>
    <contour>
      <point x="627" y="-20" type="curve" smooth="yes"/>
      <point x="829" y="-20"/>
      <point x="1030" y="155"/>
      <point x="1067" y="276" type="curve"/>
      <point x="1006" y="276" type="line"/>
      <point x="987" y="188"/>
      <point x="799" y="34"/>
      <point x="607" y="34" type="curve" smooth="yes"/>
      <point x="336" y="34"/>
      <point x="300" y="270"/>
      <point x="300" y="517" type="curve" smooth="yes"/>
      <point x="300" y="1082" type="line"/>
      <point x="245" y="1082" type="line"/>
      <point x="245" y="524" type="line" smooth="yes"/>
      <point x="245" y="187"/>
      <point x="334" y="-20"/>
    </contour>
  </outline>
</glyph>
<glyph name="ru-ethiopic" format="2">
  <advance width="1106"/>
  <unicode hex="1229"/>
  <outline>
    <contour>
      <point x="627" y="-20" type="curve" smooth="yes"/>
      <point x="829" y="-20"/>
      <point x="1030" y="155"/>
      <point x="1067" y="276" type="curve"/>
      <point x="1006" y="276" type="line"/>
      <point x="987" y="188"/>
      <point x="799" y="34"/>
      <point x="607" y="34" type="curve" smooth="yes"/>
      <point x="336" y="34"/>
      <point x="300" y="270"/>
      <point x="300" y="517" type="curve" smooth="yes"/>
      <point x="300" y="1082" type="line"/>
      <point x="245" y="1082" type="line"/>
      <point x="245" y="524" type="line" smooth="yes"/>
      <point x="245" y="187"/>
      <point x="334" y="-20"/>
    </contour>
    <contour>
      <point x="767" y="-178" type="curve" smooth="yes"/>
      <point x="798" y="-178"/>
      <point x="823" y="-154"/>
      <point x="823" y="-123" type="curve" smooth="yes"/>
      <point x="823" y="-92"/>
      <point x="798" y="-67"/>
      <point x="767" y="-67" type="curve" smooth="yes"/>
      <point x="736" y="-67"/>
      <point x="712" y="-92"/>
      <point x="712" y="-123" type="curve" smooth="yes"/>
      <point x="712" y="-154"/>
      <point x="736" y="-178"/>
    </contour>
  </outline>
</glyph>
<glyph name="ri-ethiopic" format="2">
  <advance width="1157"/>
  <unicode hex="122A"/>
  <outline>
    <contour>
      <point x="627" y="-20" type="curve" smooth="yes"/>
      <point x="829" y="-20"/>
      <point x="1030" y="155"/>
      <point x="1067" y="276" type="curve"/>
      <point x="1006" y="276" type="line"/>
      <point x="987" y="188"/>
      <point x="799" y="34"/>
      <point x="607" y="34" type="curve" smooth="yes"/>
      <point x="336" y="34"/>
      <point x="300" y="270"/>
      <point x="300" y="517" type="curve" smooth="yes"/>
      <point x="300" y="1082" type="line"/>
      <point x="245" y="1082" type="line"/>
      <point x="245" y="524" type="line" smooth="yes"/>
      <point x="245" y="187"/>
      <point x="334" y="-20"/>
    </contour>
    <contour>
      <point x="1055" y="294" type="line"/>
      <point x="1055" y="560" type="line"/>
      <point x="888" y="560" type="line"/>
      <point x="888" y="512" type="line"/>
      <point x="1005" y="512" type="line"/>
      <point x="1005" y="294" type="line"/>
    </contour>
  </outline>
</glyph>
<glyph name="re-ethiopic" format="2">
  <advance width="1081"/>
  <unicode hex="122D"/>
  <outline>
    <contour>
      <point x="602" y="-21" type="curve" smooth="yes"/>
      <point x="804" y="-21"/>
      <point x="801" y="-21"/>
      <point x="931" y="-21" type="curve"/>
      <point x="931" y="32" type="line"/>
      <point x="826" y="32"/>
      <point x="774" y="32"/>
      <point x="582" y="32" type="curve" smooth="yes"/>
      <point x="311" y="32"/>
      <point x="275" y="270"/>
      <point x="275" y="517" type="curve" smooth="yes"/>
      <point x="275" y="1082" type="line"/>
      <point x="220" y="1082" type="line"/>
      <point x="220" y="524" type="line" smooth="yes"/>
      <point x="220" y="187"/>
      <point x="309" y="-19"/>
    </contour>
    <contour>
      <point x="242" y="1038" type="line"/>
      <point x="757" y="1038" type="line"/>
      <point x="757" y="1082" type="line"/>
      <point x="242" y="1082" type="line"/>
    </contour>
  </outline>
</glyph>
<glyph name="ro-ethiopic" format="2">
  <advance width="1081"/>
  <unicode hex="122E"/>
  <outline>
    <contour>
      <point x="602" y="-21" type="curve" smooth="yes"/>
      <point x="804" y="-21"/>
      <point x="801" y="-21"/>
      <point x="931" y="-21" type="curve"/>
      <point x="931" y="32" type="line"/>
      <point x="826" y="32"/>
      <point x="774" y="32"/>
      <point x="582" y="32" type="curve" smooth="yes"/>
      <point x="311" y="32"/>
      <point x="275" y="270"/>
      <point x="275" y="517" type="curve" smooth="yes"/>
      <point x="275" y="1082" type="line"/>
      <point x="220" y="1082" type="line"/>
      <point x="220" y="524" type="line" smooth="yes"/>
      <point x="220" y="187"/>
      <point x="309" y="-19"/>
    </contour>
    <contour>
      <point x="587" y="766" type="curve" smooth="yes"/>
      <point x="712" y="766"/>
      <point x="809" y="863"/>
      <point x="809" y="987" type="curve" smooth="yes"/>
      <point x="809" y="1112"/>
      <point x="712" y="1214"/>
      <point x="587" y="1214" type="curve" smooth="yes"/>
      <point x="466" y="1214"/>
      <point x="365" y="1117"/>
      <point x="365" y="987" type="curve" smooth="yes"/>
      <point x="365" y="857"/>
      <point x="467" y="766"/>
    </contour>
    <contour>
      <point x="586" y="804" type="curve" smooth="yes"/>
      <point x="484" y="804"/>
      <point x="411" y="875"/>
      <point x="411" y="978" type="curve" smooth="yes"/>
      <point x="411" y="1086"/>
      <point x="484" y="1158"/>
      <point x="586" y="1158" type="curve" smooth="yes"/>
      <point x="688" y="1158"/>
      <point x="761" y="1086"/>
      <point x="761" y="978" type="curve" smooth="yes"/>
      <point x="761" y="875"/>
      <point x="688" y="804"/>
    </contour>
  </outline>
</glyph>
<glyph name="rwa-ethiopic" format="2">
  <advance width="1157"/>
  <unicode hex="122F"/>
  <outline>
    <contour>
      <point x="627" y="-20" type="curve" smooth="yes"/>
      <point x="829" y="-20"/>
      <point x="1030" y="155"/>
      <point x="1067" y="276" type="curve"/>
      <point x="1006" y="276" type="line"/>
      <point x="987" y="188"/>
      <point x="799" y="34"/>
      <point x="607" y="34" type="curve" smooth="yes"/>
      <point x="336" y="34"/>
      <point x="300" y="270"/>
      <point x="300" y="517" type="curve" smooth="yes"/>
      <point x="300" y="1082" type="line"/>
      <point x="245" y="1082" type="line"/>
      <point x="245" y="524" type="line" smooth="yes"/>
      <point x="245" y="187"/>
      <point x="334" y="-20"/>
    </contour>
    <contour>
      <point x="805" y="305" type="line"/>
      <point x="865" y="305" type="line"/>
      <point x="1060" y="571" type="line"/>
      <point x="994" y="571" type="line"/>
    </contour>
    <contour>
      <point x="79" y="1138" type="line"/>
      <point x="594" y="1138" type="line"/>
      <point x="594" y="1182" type="line"/>
      <point x="79" y="1182" type="line"/>
    </contour>
  </outline>
</glyph>
<glyph name="shu-ethiopic" format="2">
  <advance width="1242"/>
  <unicode hex="1239"/>
  <outline>
    <contour>
      <point x="232" y="0" type="line"/>
      <point x="286" y="0" type="line"/>
      <point x="286" y="716" type="line" smooth="yes"/>
      <point x="286" y="862"/>
      <point x="319" y="1061"/>
      <point x="614" y="1061" type="curve" smooth="yes"/>
      <point x="926" y="1061"/>
      <point x="960" y="872"/>
      <point x="960" y="716" type="curve" smooth="yes"/>
      <point x="960" y="0" type="line"/>
      <point x="1015" y="0" type="line"/>
      <point x="1015" y="715" type="line" smooth="yes"/>
      <point x="1015" y="973"/>
      <point x="863" y="1111"/>
      <point x="608" y="1111" type="curve"/>
      <point x="344" y="1093"/>
      <point x="232" y="957"/>
      <point x="232" y="748" type="curve" smooth="yes"/>
    </contour>
    <contour>
      <point x="1103" y="628" type="curve" smooth="yes"/>
      <point x="1134" y="628"/>
      <point x="1159" y="652"/>
      <point x="1159" y="683" type="curve" smooth="yes"/>
      <point x="1159" y="714"/>
      <point x="1134" y="739"/>
      <point x="1103" y="739" type="curve" smooth="yes"/>
      <point x="1072" y="739"/>
      <point x="1048" y="714"/>
      <point x="1048" y="683" type="curve" smooth="yes"/>
      <point x="1048" y="652"/>
      <point x="1072" y="628"/>
    </contour>
    <contour>
      <point x="584" y="1122" type="line"/>
      <point x="644" y="1122" type="line"/>
      <point x="644" y="1388" type="line"/>
      <point x="584" y="1388" type="line"/>
    </contour>
    <component base="_smart.hat" xOffset="649" yOffset="1270"/>
  </outline>
</glyph>
<glyph name="qee-ethiopic" format="2">
  <advance width="1529"/>
  <unicode hex="1244"/>
  <outline>
    <contour>
      <point x="588" y="-20" type="curve" smooth="yes"/>
      <point x="630" y="-20"/>
      <point x="667" y="-8"/>
      <point x="756" y="37" type="curve"/>
      <point x="786" y="38" type="line"/>
      <point x="829" y="7"/>
      <point x="862" y="-20"/>
      <point x="941" y="-20" type="curve" smooth="yes"/>
      <point x="1192" y="-20"/>
      <point x="1347" y="191"/>
      <point x="1347" y="538" type="curve" smooth="yes"/>
      <point x="1347" y="897"/>
      <point x="1196" y="1102"/>
      <point x="939" y="1102" type="curve" smooth="yes"/>
      <point x="889" y="1102"/>
      <point x="843" y="1095"/>
      <point x="802" y="1082" type="curve"/>
      <point x="735" y="1081" type="line"/>
      <point x="689" y="1096"/>
      <point x="641" y="1102"/>
      <point x="590" y="1102" type="curve" smooth="yes"/>
      <point x="337" y="1102"/>
      <point x="182" y="897"/>
      <point x="182" y="552" type="curve" smooth="yes"/>
      <point x="182" y="191"/>
      <point x="334" y="-20"/>
    </contour>
    <contour>
      <point x="587" y="34" type="curve" smooth="yes"/>
      <point x="364" y="34"/>
      <point x="238" y="224"/>
      <point x="238" y="531" type="curve" smooth="yes"/>
      <point x="238" y="871"/>
      <point x="368" y="1048"/>
      <point x="589" y="1048" type="curve" smooth="yes"/>
      <point x="643" y="1048"/>
      <point x="692" y="1040"/>
      <point x="735" y="1024" type="curve"/>
      <point x="735" y="70" type="line"/>
      <point x="682" y="46"/>
      <point x="632" y="34"/>
    </contour>
    <contour>
      <point x="942" y="34" type="curve" smooth="yes"/>
      <point x="900" y="34"/>
      <point x="859" y="40"/>
      <point x="805" y="65" type="curve"/>
      <point x="805" y="1028" type="line"/>
      <point x="840" y="1039"/>
      <point x="874" y="1045"/>
      <point x="905" y="1048" type="curve" smooth="yes"/>
      <point x="1162" y="1071"/>
      <point x="1291" y="842"/>
      <point x="1291" y="531" type="curve" smooth="yes"/>
      <point x="1291" y="224"/>
      <point x="1173" y="34"/>
    </contour>
    <contour>
      <point x="769" y="-407" type="curve" smooth="yes"/>
      <point x="894" y="-407"/>
      <point x="991" y="-310"/>
      <point x="991" y="-186" type="curve" smooth="yes"/>
      <point x="991" y="-61"/>
      <point x="894" y="41"/>
      <point x="769" y="41" type="curve" smooth="yes"/>
      <point x="648" y="41"/>
      <point x="547" y="-56"/>
      <point x="547" y="-186" type="curve" smooth="yes"/>
      <point x="547" y="-316"/>
      <point x="649" y="-407"/>
    </contour>
    <contour>
      <point x="768" y="-369" type="curve" smooth="yes"/>
      <point x="666" y="-369"/>
      <point x="593" y="-298"/>
      <point x="593" y="-195" type="curve" smooth="yes"/>
      <point x="593" y="-87"/>
      <point x="666" y="-15"/>
      <point x="768" y="-15" type="curve" smooth="yes"/>
      <point x="870" y="-15"/>
      <point x="943" y="-87"/>
      <point x="943" y="-195" type="curve" smooth="yes"/>
      <point x="943" y="-298"/>
      <point x="870" y="-369"/>
    </contour>
    <contour>
      <point x="734" y="1110" type="line"/>
      <point x="794" y="1110" type="line"/>
      <point x="794" y="1376" type="line"/>
      <point x="734" y="1376" type="line"/>
    </contour>
  </outline>
</glyph>
<glyph name="qhe-ethiopic" format="2">
  <advance width="1529"/>
  <unicode hex="1255"/>
  <outline>
    <contour>
      <point x="588" y="-20" type="curve" smooth="yes"/>
      <point x="630" y="-20"/>
      <point x="667" y="-8"/>
      <point x="756" y="37" type="curve"/>
      <point x="786" y="38" type="line"/>
      <point x="829" y="7"/>
      <point x="862" y="-20"/>
      <point x="941" y="-20" type="curve" smooth="yes"/>
      <point x="1192" y="-20"/>
      <point x="1347" y="191"/>
      <point x="1347" y="538" type="curve" smooth="yes"/>
      <point x="1347" y="897"/>
      <point x="1196" y="1102"/>
      <point x="939" y="1102" type="curve" smooth="yes"/>
      <point x="889" y="1102"/>
      <point x="843" y="1095"/>
      <point x="802" y="1082" type="curve"/>
      <point x="735" y="1081" type="line"/>
      <point x="689" y="1096"/>
      <point x="641" y="1102"/>
      <point x="590" y="1102" type="curve" smooth="yes"/>
      <point x="337" y="1102"/>
      <point x="182" y="897"/>
      <point x="182" y="552" type="curve" smooth="yes"/>
      <point x="182" y="191"/>
      <point x="334" y="-20"/>
    </contour>
    <contour>
      <point x="587" y="34" type="curve" smooth="yes"/>
      <point x="364" y="34"/>
      <point x="238" y="224"/>
      <point x="238" y="531" type="curve" smooth="yes"/>
      <point x="238" y="871"/>
      <point x="368" y="1048"/>
      <point x="589" y="1048" type="curve" smooth="yes"/>
      <point x="643" y="1048"/>
      <point x="692" y="1040"/>
      <point x="735" y="1024" type="curve"/>
      <point x="735" y="70" type="line"/>
      <point x="682" y="46"/>
      <point x="632" y="34"/>
    </contour>
    <contour>
      <point x="942" y="34" type="curve" smooth="yes"/>
      <point x="900" y="34"/>
      <point x="859" y="40"/>
      <point x="805" y="65" type="curve"/>
      <point x="805" y="1028" type="line"/>
      <point x="840" y="1039"/>
      <point x="874" y="1045"/>
      <point x="905" y="1048" type="curve" smooth="yes"/>
      <point x="1162" y="1071"/>
      <point x="1291" y="842"/>
      <point x="1291" y="531" type="curve" smooth="yes"/>
      <point x="1291" y="224"/>
      <point x="1173" y="34"/>
    </contour>
    <contour>
      <point x="794" y="1226" type="line" name="❌"/>
      <point x="605" y="1492" type="line"/>
      <point x="539" y="1492" type="line"/>
      <point x="734" y="1226" type="line" name="❌"/>
    </contour>
    <contour>
      <point x="753" y="-356" type="line"/>
      <point x="810" y="-356" type="line"/>
      <point x="810" y="-2" type="line"/>
      <point x="753" y="-2" type="line"/>
    </contour>
    <component base="_smart.hat" xOffset="840" yOffset="1251"/>
  </outline>
</glyph>
<glyph name="ba-ethiopic" format="2">
  <advance width="1242"/>
  <unicode hex="1260"/>
  <outline>
    <contour>
      <point x="232" y="0" type="line"/>
      <point x="286" y="0" type="line"/>
      <point x="286" y="716" type="line" smooth="yes"/>
      <point x="286" y="862"/>
      <point x="319" y="1061"/>
      <point x="614" y="1061" type="curve" smooth="yes"/>
      <point x="926" y="1061"/>
      <point x="960" y="872"/>
      <point x="960" y="716" type="curve" smooth="yes"/>
      <point x="960" y="0" type="line"/>
      <point x="1015" y="0" type="line"/>
      <point x="1015" y="715" type="line" smooth="yes"/>
      <point x="1015" y="973"/>
      <point x="863" y="1111"/>
      <point x="608" y="1111" type="curve"/>
      <point x="344" y="1093"/>
      <point x="232" y="957"/>
      <point x="232" y="748" type="curve" smooth="yes"/>
    </contour>
  </outline>
</glyph>
<glyph name="bwa-ethiopic" format="2">
  <advance width="1242"/>
  <unicode hex="1267"/>
  <outline>
    <contour>
      <point x="232" y="0" type="line"/>
      <point x="286" y="0" type="line"/>
      <point x="286" y="716" type="line" smooth="yes"/>
      <point x="286" y="862"/>
      <point x="319" y="1061"/>
      <point x="614" y="1061" type="curve" smooth="yes"/>
      <point x="926" y="1061"/>
      <point x="960" y="872"/>
      <point x="960" y="716" type="curve" smooth="yes"/>
      <point x="960" y="0" type="line"/>
      <point x="1015" y="0" type="line"/>
      <point x="1015" y="715" type="line" smooth="yes"/>
      <point x="1015" y="973"/>
      <point x="863" y="1111"/>
      <point x="608" y="1111" type="curve"/>
      <point x="344" y="1093"/>
      <point x="232" y="957"/>
      <point x="232" y="748" type="curve" smooth="yes"/>
    </contour>
    <contour>
      <point x="668" y="-276" type="line"/>
      <point x="1185" y="-276" type="line"/>
      <point x="1185" y="-381" type="line"/>
      <point x="1220" y="-381" type="line"/>
      <point x="1220" y="-234" type="line"/>
      <point x="1015" y="-234" type="line"/>
      <point x="1015" y="77" type="line"/>
      <point x="958" y="77" type="line"/>
      <point x="958" y="-234" type="line"/>
      <point x="668" y="-234" type="line"/>
    </contour>
  </outline>
</glyph>
<glyph name="vi-ethiopic" format="2">
  <advance width="1242"/>
  <unicode hex="126A"/>
  <outline>
    <contour>
      <point x="232" y="0" type="line"/>
      <point x="286" y="0" type="line"/>
      <point x="286" y="716" type="line" smooth="yes"/>
      <point x="286" y="862"/>
      <point x="319" y="1061"/>
      <point x="614" y="1061" type="curve" smooth="yes"/>
      <point x="926" y="1061"/>
      <point x="960" y="872"/>
      <point x="960" y="716" type="curve" smooth="yes"/>
      <point x="960" y="0" type="line"/>
      <point x="1015" y="0" type="line"/>
      <point x="1015" y="715" type="line" smooth="yes"/>
      <point x="1015" y="973"/>
      <point x="863" y="1111"/>
      <point x="608" y="1111" type="curve"/>
      <point x="344" y="1093"/>
      <point x="232" y="957"/>
      <point x="232" y="748" type="curve" smooth="yes"/>
    </contour>
    <contour>
      <point x="1129" y="5" type="curve" smooth="yes"/>
      <point x="1160" y="5"/>
      <point x="1185" y="29"/>
      <point x="1185" y="60" type="curve" smooth="yes"/>
      <point x="1185" y="91"/>
      <point x="1160" y="116"/>
      <point x="1129" y="116" type="curve" smooth="yes"/>
      <point x="1098" y="116"/>
      <point x="1074" y="91"/>
      <point x="1074" y="60" type="curve" smooth="yes"/>
      <point x="1074" y="29"/>
      <point x="1098" y="5"/>
    </contour>
    <contour>
      <point x="371" y="1379" type="line"/>
      <point x="886" y="1379" type="line"/>
      <point x="886" y="1423" type="line"/>
      <point x="371" y="1423" type="line"/>
    </contour>
  </outline>
</glyph>
<glyph name="ta-ethiopic" format="2">
  <advance width="735"/>
  <unicode hex="1270"/>
  <outline>
    <contour>
      <point x="353" y="0" type="line"/>
      <point x="353" y="1027" type="line"/>
      <point x="599" y="1027" type="line"/>
      <point x="599" y="1082" type="line"/>
      <point x="98" y="1082" type="line"/>
      <point x="98" y="1027" type="line"/>
      <point x="298" y="1027" type="line"/>
      <point x="298" y="0" type="line"/>
    </contour>
    <contour>
      <point x="294" y="1090" type="line"/>
      <point x="354" y="1090" type="line"/>
      <point x="354" y="1356" type="line"/>
      <point x="294" y="1356" type="line"/>
    </contour>
  </outline>
</glyph>
<glyph name="te-ethiopic" format="2">
  <advance width="735"/>
  <unicode hex="1275"/>
  <outline>
    <contour>
      <point x="353" y="0" type="line"/>
      <point x="353" y="1027" type="line"/>
      <point x="599" y="1027" type="line"/>
      <point x="599" y="1082" type="line"/>
      <point x="98" y="1082" type="line"/>
      <point x="98" y="1027" type="line"/>
      <point x="298" y="1027" type="line"/>
      <point x="298" y="0" type="line"/>
    </contour>
    <contour>
      <point x="287" y="1161" type="line" name="❌"/>
      <point x="98" y="1427" type="line"/>
      <point x="32" y="1427" type="line"/>
      <point x="227" y="1161" type="line" name="❌"/>
    </contour>
  </outline>
</glyph>
<glyph name="ca-ethiopic" format="2">
  <advance width="735"/>
  <unicode hex="1278"/>
  <outline>
    <contour>
      <point x="353" y="0" type="line"/>
      <point x="353" y="1027" type="line"/>
      <point x="599" y="1027" type="line"/>
      <point x="599" y="1082" type="line"/>
      <point x="98" y="1082" type="line"/>
      <point x="98" y="1027" type="line"/>
      <point x="298" y="1027" type="line"/>
      <point x="298" y="0" type="line"/>
    </contour>
    <contour>
      <point x="294" y="1090" type="line"/>
      <point x="354" y="1090" type="line"/>
      <point x="354" y="1356" type="line"/>
      <point x="294" y="1356" type="line"/>
    </contour>
    <contour>
      <point x="64" y="1336" type="line"/>
      <point x="579" y="1336" type="line"/>
      <point x="579" y="1380" type="line"/>
      <point x="64" y="1380" type="line"/>
    </contour>
  </outline>
</glyph>
<glyph name="cu-ethiopic" format="2">
  <advance width="735"/>
  <unicode hex="1279"/>
  <outline>
    <contour>
      <point x="353" y="0" type="line"/>
      <point x="353" y="1027" type="line"/>
      <point x="599" y="1027" type="line"/>
      <point x="599" y="1082" type="line"/>
      <point x="98" y="1082" type="line"/>
      <point x="98" y="1027" type="line"/>
      <point x="298" y="1027" type="line"/>
      <point x="298" y="0" type="line"/>
    </contour>
    <contour>
      <point x="429" y="624" type="curve" smooth="yes"/>
      <point x="460" y="624"/>
      <point x="485" y="648"/>
      <point x="485" y="679" type="curve" smooth="yes"/>
      <point x="485" y="710"/>
      <point x="460" y="735"/>
      <point x="429" y="735" type="curve" smooth="yes"/>
      <point x="398" y="735"/>
      <point x="374" y="710"/>
      <point x="374" y="679" type="curve" smooth="yes"/>
      <point x="374" y="648"/>
      <point x="398" y="624"/>
    </contour>
    <contour>
      <point x="294" y="1090" type="line"/>
      <point x="354" y="1090" type="line"/>
      <point x="354" y="1356" type="line"/>
      <point x="294" y="1356" type="line"/>
    </contour>
    <component base="_smart.hat" xOffset="342" yOffset="1227"/>
  </outline>
</glyph>
<glyph name="ci-ethiopic" format="2">
  <advance width="735"/>
  <unicode hex="127A"/>
  <outline>
    <contour>
      <point x="353" y="0" type="line"/>
      <point x="353" y="1027" type="line"/>
      <point x="599" y="1027" type="line"/>
      <point x="599" y="1082" type="line"/>
      <point x="98" y="1082" type="line"/>
      <point x="98" y="1027" type="line"/>
      <point x="298" y="1027" type="line"/>
      <point x="298" y="0" type="line"/>
    </contour>
    <contour>
      <point x="440" y="-5" type="curve" smooth="yes"/>
      <point x="471" y="-5"/>
      <point x="496" y="19"/>
      <point x="496" y="50" type="curve" smooth="yes"/>
      <point x="496" y="81"/>
      <point x="471" y="106"/>
      <point x="440" y="106" type="curve" smooth="yes"/>
      <point x="409" y="106"/>
      <point x="385" y="81"/>
      <point x="385" y="50" type="curve" smooth="yes"/>
      <point x="385" y="19"/>
      <point x="409" y="-5"/>
    </contour>
    <contour>
      <point x="294" y="1090" type="line"/>
      <point x="354" y="1090" type="line"/>
      <point x="354" y="1356" type="line"/>
      <point x="294" y="1356" type="line"/>
    </contour>
    <component base="_smart.hat" xOffset="342" yOffset="1227"/>
  </outline>
</glyph>
<glyph name="ce-ethiopic" format="2">
  <advance width="735"/>
  <unicode hex="127D"/>
  <outline>
    <contour>
      <point x="353" y="0" type="line"/>
      <point x="353" y="1027" type="line"/>
      <point x="599" y="1027" type="line"/>
      <point x="599" y="1082" type="line"/>
      <point x="98" y="1082" type="line"/>
      <point x="98" y="1027" type="line"/>
      <point x="298" y="1027" type="line"/>
      <point x="298" y="0" type="line"/>
    </contour>
    <contour>
      <point x="287" y="1161" type="line" name="❌"/>
      <point x="98" y="1427" type="line"/>
      <point x="32" y="1427" type="line"/>
      <point x="227" y="1161" type="line" name="❌"/>
    </contour>
    <contour>
      <point x="64" y="1336" type="line"/>
      <point x="579" y="1336" type="line"/>
      <point x="579" y="1380" type="line"/>
      <point x="64" y="1380" type="line"/>
    </contour>
  </outline>
</glyph>
<glyph name="co-ethiopic" format="2">
  <advance width="735"/>
  <unicode hex="127E"/>
  <outline>
    <contour>
      <point x="353" y="0" type="line"/>
      <point x="353" y="1027" type="line"/>
      <point x="599" y="1027" type="line"/>
      <point x="599" y="1082" type="line"/>
      <point x="98" y="1082" type="line"/>
      <point x="98" y="1027" type="line"/>
      <point x="298" y="1027" type="line"/>
      <point x="298" y="0" type="line"/>
    </contour>
    <contour>
      <point x="290" y="1042" type="curve" smooth="yes"/>
      <point x="415" y="1042"/>
      <point x="512" y="1139"/>
      <point x="512" y="1263" type="curve" smooth="yes"/>
      <point x="512" y="1388"/>
      <point x="415" y="1490"/>
      <point x="290" y="1490" type="curve" smooth="yes"/>
      <point x="169" y="1490"/>
      <point x="68" y="1393"/>
      <point x="68" y="1263" type="curve" smooth="yes"/>
      <point x="68" y="1133"/>
      <point x="170" y="1042"/>
    </contour>
    <contour>
      <point x="289" y="1080" type="curve" smooth="yes"/>
      <point x="187" y="1080"/>
      <point x="114" y="1151"/>
      <point x="114" y="1254" type="curve" smooth="yes"/>
      <point x="114" y="1362"/>
      <point x="187" y="1434"/>
      <point x="289" y="1434" type="curve" smooth="yes"/>
      <point x="391" y="1434"/>
      <point x="464" y="1362"/>
      <point x="464" y="1254" type="curve" smooth="yes"/>
      <point x="464" y="1151"/>
      <point x="391" y="1080"/>
    </contour>
    <contour>
      <point x="64" y="1336" type="line"/>
      <point x="579" y="1336" type="line"/>
      <point x="579" y="1380" type="line"/>
      <point x="64" y="1380" type="line"/>
    </contour>
  </outline>
</glyph>
<glyph name="cwa-ethiopic" format="2">
  <advance width="735"/>
  <unicode hex="127F"/>
  <outline>
    <contour>
      <point x="353" y="0" type="line"/>
      <point x="353" y="1027" type="line"/>
      <point x="599" y="1027" type="line"/>
      <point x="599" y="1082" type="line"/>
      <point x="98" y="1082" type="line"/>
      <point x="98" y="1027" type="line"/>
      <point x="298" y="1027" type="line"/>
      <point x="298" y="0" type="line"/>
    </contour>
    <contour>
      <point x="6" y="-282" type="line"/>
      <point x="523" y="-282" type="line"/>
      <point x="523" y="-387" type="line"/>
      <point x="558" y="-387" type="line"/>
      <point x="558" y="-240" type="line"/>
      <point x="353" y="-240" type="line"/>
      <point x="353" y="71" type="line"/>
      <point x="296" y="71" type="line"/>
      <point x="296" y="-240" type="line"/>
      <point x="6" y="-240" type="line"/>
    </contour>
    <contour>
      <point x="294" y="1090" type="line"/>
      <point x="354" y="1090" type="line"/>
      <point x="354" y="1356" type="line"/>
      <point x="294" y="1356" type="line"/>
    </contour>
    <component base="_smart.hat" xOffset="342" yOffset="1227"/>
  </outline>
</glyph>
<glyph name="xa-ethiopic" format="2">
  <advance width="793"/>
  <unicode hex="1280"/>
  <outline>
    <contour>
      <point x="571" y="0" type="line"/>
      <point x="626" y="0" type="line"/>
      <point x="626" y="706" type="line" smooth="yes"/>
      <point x="626" y="971"/>
      <point x="513" y="1102"/>
      <point x="281" y="1102" type="curve" smooth="yes"/>
      <point x="210" y="1102"/>
      <point x="144" y="1083"/>
      <point x="85" y="1049" type="curve"/>
      <point x="123" y="1012" type="line"/>
      <point x="170" y="1036"/>
      <point x="222" y="1049"/>
      <point x="278" y="1049" type="curve" smooth="yes"/>
      <point x="481" y="1049"/>
      <point x="571" y="940"/>
      <point x="571" y="708" type="curve" smooth="yes"/>
    </contour>
    <contour>
      <point x="85" y="1049" type="line"/>
      <point x="145" y="1049" type="line"/>
      <point x="145" y="1315" type="line"/>
      <point x="85" y="1315" type="line"/>
    </contour>
    <contour>
      <point x="24" y="1086" type="curve" smooth="yes"/>
      <point x="55" y="1086"/>
      <point x="80" y="1110"/>
      <point x="80" y="1141" type="curve" smooth="yes"/>
      <point x="80" y="1172"/>
      <point x="55" y="1197"/>
      <point x="24" y="1197" type="curve" smooth="yes"/>
      <point x="-7" y="1197"/>
      <point x="-31" y="1172"/>
      <point x="-31" y="1141" type="curve" smooth="yes"/>
      <point x="-31" y="1110"/>
      <point x="-7" y="1086"/>
    </contour>
  </outline>
</glyph>
<glyph name="xee-ethiopic" format="2">
  <advance width="793"/>
  <unicode hex="1284"/>
  <outline>
    <contour>
      <point x="571" y="0" type="line"/>
      <point x="626" y="0" type="line"/>
      <point x="626" y="706" type="line" smooth="yes"/>
      <point x="626" y="971"/>
      <point x="513" y="1102"/>
      <point x="281" y="1102" type="curve" smooth="yes"/>
      <point x="210" y="1102"/>
      <point x="144" y="1083"/>
      <point x="85" y="1049" type="curve"/>
      <point x="123" y="1012" type="line"/>
      <point x="170" y="1036"/>
      <point x="222" y="1049"/>
      <point x="278" y="1049" type="curve" smooth="yes"/>
      <point x="481" y="1049"/>
      <point x="571" y="940"/>
      <point x="571" y="708" type="curve" smooth="yes"/>
    </contour>
    <contour>
      <point x="542" y="-367" type="curve" smooth="yes"/>
      <point x="667" y="-367"/>
      <point x="764" y="-270"/>
      <point x="764" y="-146" type="curve" smooth="yes"/>
      <point x="764" y="-21"/>
      <point x="667" y="81"/>
      <point x="542" y="81" type="curve" smooth="yes"/>
      <point x="421" y="81"/>
      <point x="320" y="-16"/>
      <point x="320" y="-146" type="curve" smooth="yes"/>
      <point x="320" y="-276"/>
      <point x="422" y="-367"/>
    </contour>
    <contour>
      <point x="541" y="-329" type="curve" smooth="yes"/>
      <point x="439" y="-329"/>
      <point x="366" y="-258"/>
      <point x="366" y="-155" type="curve" smooth="yes"/>
      <point x="366" y="-47"/>
      <point x="439" y="25"/>
      <point x="541" y="25" type="curve" smooth="yes"/>
      <point x="643" y="25"/>
      <point x="716" y="-47"/>
      <point x="716" y="-155" type="curve" smooth="yes"/>
      <point x="716" y="-258"/>
      <point x="643" y="-329"/>
    </contour>
    <contour>
      <point x="85" y="1049" type="line"/>
      <point x="145" y="1049" type="line"/>
      <point x="145" y="1315" type="line"/>
      <point x="85" y="1315" type="line"/>
    </contour>
    <component base="_smart.nose" xOffset="-227" yOffset="1134"/>
  </outline>
</glyph>
<glyph name="xe-ethiopic" format="2">
  <advance width="823"/>
  <unicode hex="1285"/>
  <outline>
    <contour>
      <point x="-1" y="1061" type="line"/>
      <point x="-1" y="797" type="line"/>
      <point x="40" y="797" type="line"/>
      <point x="40" y="1061" type="line"/>
    </contour>
    <contour>
      <point x="631" y="0" type="line"/>
      <point x="686" y="0" type="line"/>
      <point x="686" y="706" type="line" smooth="yes"/>
      <point x="686" y="971"/>
      <point x="573" y="1102"/>
      <point x="341" y="1102" type="curve" smooth="yes"/>
      <point x="270" y="1102"/>
      <point x="204" y="1083"/>
      <point x="145" y="1049" type="curve"/>
      <point x="183" y="1012" type="line"/>
      <point x="230" y="1036"/>
      <point x="282" y="1049"/>
      <point x="338" y="1049" type="curve" smooth="yes"/>
      <point x="541" y="1049"/>
      <point x="631" y="940"/>
      <point x="631" y="708" type="curve" smooth="yes"/>
    </contour>
    <contour>
      <point x="115" y="1049" type="line"/>
      <point x="175" y="1049" type="line"/>
      <point x="175" y="1315" type="line"/>
      <point x="115" y="1315" type="line"/>
    </contour>
    <contour>
      <point x="54" y="1086" type="curve" smooth="yes"/>
      <point x="85" y="1086"/>
      <point x="110" y="1110"/>
      <point x="110" y="1141" type="curve" smooth="yes"/>
      <point x="110" y="1172"/>
      <point x="85" y="1197"/>
      <point x="54" y="1197" type="curve" smooth="yes"/>
      <point x="23" y="1197"/>
      <point x="-1" y="1172"/>
      <point x="-1" y="1141" type="curve" smooth="yes"/>
      <point x="-1" y="1110"/>
      <point x="23" y="1086"/>
    </contour>
  </outline>
</glyph>
<glyph name="xwee-ethiopic" format="2">
  <advance width="793"/>
  <unicode hex="128C"/>
  <outline>
    <contour>
      <point x="571" y="0" type="line"/>
      <point x="626" y="0" type="line"/>
      <point x="626" y="706" type="line" smooth="yes"/>
      <point x="626" y="971"/>
      <point x="513" y="1102"/>
      <point x="281" y="1102" type="curve" smooth="yes"/>
      <point x="210" y="1102"/>
      <point x="144" y="1083"/>
      <point x="85" y="1049" type="curve"/>
      <point x="123" y="1012" type="line"/>
      <point x="170" y="1036"/>
      <point x="222" y="1049"/>
      <point x="278" y="1049" type="curve" smooth="yes"/>
      <point x="481" y="1049"/>
      <point x="571" y="940"/>
      <point x="571" y="708" type="curve" smooth="yes"/>
    </contour>
    <contour>
      <point x="270" y="-55" type="line"/>
      <point x="746" y="-55" type="line"/>
      <point x="746" y="-277" type="line"/>
      <point x="806" y="-277" type="line"/>
      <point x="806" y="-11" type="line"/>
      <point x="270" y="-11" type="line"/>
    </contour>
    <contour>
      <point x="85" y="1049" type="line"/>
      <point x="145" y="1049" type="line"/>
      <point x="145" y="1315" type="line"/>
      <point x="85" y="1315" type="line"/>
    </contour>
    <component base="_smart.nose" xOffset="-227" yOffset="1134"/>
  </outline>
</glyph>
<glyph name="naa-ethiopic" format="2">
  <advance width="1081"/>
  <unicode hex="1293"/>
  <outline>
    <contour>
      <point x="602" y="-21" type="curve" smooth="yes"/>
      <point x="804" y="-21"/>
      <point x="801" y="-21"/>
      <point x="931" y="-21" type="curve"/>
      <point x="931" y="32" type="line"/>
      <point x="826" y="32"/>
      <point x="774" y="32"/>
      <point x="582" y="32" type="curve" smooth="yes"/>
      <point x="311" y="32"/>
      <point x="275" y="270"/>
      <point x="275" y="517" type="curve" smooth="yes"/>
      <point x="275" y="1082" type="line"/>
      <point x="220" y="1082" type="line"/>
      <point x="220" y="524" type="line" smooth="yes"/>
      <point x="220" y="187"/>
      <point x="309" y="-19"/>
    </contour>
    <contour>
      <point x="874" y="-383" type="line"/>
      <point x="931" y="-383" type="line"/>
      <point x="931" y="-29" type="line"/>
      <point x="874" y="-29" type="line"/>
    </contour>
    <contour>
      <point x="242" y="1038" type="line"/>
      <point x="757" y="1038" type="line"/>
      <point x="757" y="1082" type="line"/>
      <point x="242" y="1082" type="line"/>
    </contour>
  </outline>
</glyph>
<glyph name="nya-ethiopic" format="2">
  <advance width="793"/>
  <unicode hex="1298"/>
  <outline>
    <contour>
      <point x="571" y="0" type="line"/>
      <point x="626" y="0" type="line"/>
      <point x="626" y="706" type="line" smooth="yes"/>
      <point x="626" y="971"/>
      <point x="513" y="1102"/>
      <point x="281" y="1102" type="curve" smooth="yes"/>
      <point x="210" y="1102"/>
      <point x="144" y="1083"/>
      <point x="85" y="1049" type="curve"/>
      <point x="123" y="1012" type="line"/>
      <point x="170" y="1036"/>
      <point x="222" y="1049"/>
      <point x="278" y="1049" type="curve" smooth="yes"/>
      <point x="481" y="1049"/>
      <point x="571" y="940"/>
      <point x="571" y="708" type="curve" smooth="yes"/>
    </contour>
    <contour>
      <point x="85" y="1049" type="line"/>
      <point x="145" y="1049" type="line"/>
      <point x="145" y="1315" type="line"/>
      <point x="85" y="1315" type="line"/>
    </contour>
    <contour>
      <point x="-22" y="1273" type="line"/>
      <point x="493" y="1273" type="line"/>
      <point x="493" y="1317" type="line"/>
      <point x="-22" y="1317" type="line"/>
    </contour>
  </outline>
</glyph>
<glyph name="uGlottal-ethiopic" format="2">
  <advance width="1241"/>
  <unicode hex="12A1"/>
  <outline>
    <contour>
      <point x="232" y="0" type="line"/>
      <point x="286" y="0" type="line"/>
      <point x="286" y="693" type="line"/>
      <point x="334" y="902"/>
      <point x="480" y="1049"/>
      <point x="667" y="1049" type="curve" smooth="yes"/>
      <point x="870" y="1049"/>
      <point x="960" y="940"/>
      <point x="960" y="708" type="curve" smooth="yes"/>
      <point x="960" y="0" type="line"/>
      <point x="1014" y="0" type="line"/>
      <point x="1014" y="706" type="line" smooth="yes"/>
      <point x="1014" y="971"/>
      <point x="902" y="1102"/>
      <point x="670" y="1102" type="curve" smooth="yes"/>
      <point x="503" y="1102"/>
      <point x="357" y="998"/>
      <point x="286" y="830" type="curve"/>
      <point x="286" y="1151" type="line"/>
      <point x="576" y="1536" type="line"/>
      <point x="522" y="1536" type="line"/>
      <point x="232" y="1167" type="line"/>
    </contour>
    <contour>
      <point x="380" y="1460" type="line"/>
      <point x="191" y="1726" type="line"/>
      <point x="125" y="1726" type="line"/>
      <point x="320" y="1460" type="line"/>
    </contour>
    <contour>
      <point x="1104" y="622" type="curve" smooth="yes"/>
      <point x="1135" y="622"/>
      <point x="1160" y="646"/>
      <point x="1160" y="677" type="curve" smooth="yes"/>
      <point x="1160" y="708"/>
      <point x="1135" y="733"/>
      <point x="1104" y="733" type="curve" smooth="yes"/>
      <point x="1073" y="733"/>
      <point x="1049" y="708"/>
      <point x="1049" y="677" type="curve" smooth="yes"/>
      <point x="1049" y="646"/>
      <point x="1073" y="622"/>
    </contour>
  </outline>
</glyph>
<glyph name="oGlottal-ethiopic" format="2">
  <advance width="1241"/>
  <unicode hex="12A6"/>
  <outline>
    <contour>
      <point x="232" y="0" type="line"/>
      <point x="286" y="0" type="line"/>
      <point x="286" y="693" type="line"/>
      <point x="334" y="902"/>
      <point x="480" y="1049"/>
      <point x="667" y="1049" type="curve" smooth="yes"/>
      <point x="870" y="1049"/>
      <point x="960" y="940"/>
      <point x="960" y="708" type="curve" smooth="yes"/>
      <point x="960" y="0" type="line"/>
      <point x="1014" y="0" type="line"/>
      <point x="1014" y="706" type="line" smooth="yes"/>
      <point x="1014" y="971"/>
      <point x="902" y="1102"/>
      <point x="670" y="1102" type="curve" smooth="yes"/>
      <point x="503" y="1102"/>
      <point x="357" y="998"/>
      <point x="286" y="830" type="curve"/>
      <point x="286" y="1151" type="line"/>
      <point x="576" y="1536" type="line"/>
      <point x="522" y="1536" type="line"/>
      <point x="232" y="1167" type="line"/>
    </contour>
    <contour>
      <point x="380" y="1460" type="line"/>
      <point x="191" y="1726" type="line"/>
      <point x="125" y="1726" type="line"/>
      <point x="320" y="1460" type="line"/>
    </contour>
    <contour>
      <point x="232" y="-375" type="line" name="❌"/>
      <point x="289" y="-375" type="line" name="❌"/>
      <point x="289" y="-21" type="line"/>
      <point x="232" y="-21" type="line"/>
    </contour>
  </outline>
</glyph>
<glyph name="kee-ethiopic" format="2">
  <advance width="1242"/>
  <unicode hex="12AC"/>
  <outline>
    <contour>
      <point x="232" y="0" type="line"/>
      <point x="286" y="0" type="line"/>
      <point x="286" y="716" type="line" smooth="yes"/>
      <point x="286" y="862"/>
      <point x="319" y="1061"/>
      <point x="614" y="1061" type="curve" smooth="yes"/>
      <point x="926" y="1061"/>
      <point x="960" y="872"/>
      <point x="960" y="716" type="curve" smooth="yes"/>
      <point x="960" y="0" type="line"/>
      <point x="1015" y="0" type="line"/>
      <point x="1015" y="715" type="line" smooth="yes"/>
      <point x="1015" y="973"/>
      <point x="863" y="1111"/>
      <point x="608" y="1111" type="curve"/>
      <point x="344" y="1093"/>
      <point x="232" y="957"/>
      <point x="232" y="748" type="curve" smooth="yes"/>
    </contour>
    <contour>
      <point x="820" y="-327" type="curve" smooth="yes"/>
      <point x="945" y="-327"/>
      <point x="1042" y="-230"/>
      <point x="1042" y="-106" type="curve" smooth="yes"/>
      <point x="1042" y="19"/>
      <point x="945" y="121"/>
      <point x="820" y="121" type="curve" smooth="yes"/>
      <point x="699" y="121"/>
      <point x="598" y="24"/>
      <point x="598" y="-106" type="curve" smooth="yes"/>
      <point x="598" y="-236"/>
      <point x="700" y="-327"/>
    </contour>
    <contour>
      <point x="819" y="-289" type="curve" smooth="yes"/>
      <point x="717" y="-289"/>
      <point x="644" y="-218"/>
      <point x="644" y="-115" type="curve" smooth="yes"/>
      <point x="644" y="-7"/>
      <point x="717" y="65"/>
      <point x="819" y="65" type="curve" smooth="yes"/>
      <point x="921" y="65"/>
      <point x="994" y="-7"/>
      <point x="994" y="-115" type="curve" smooth="yes"/>
      <point x="994" y="-218"/>
      <point x="921" y="-289"/>
    </contour>
    <contour>
      <point x="526" y="1061" type="line"/>
      <point x="617" y="1104" type="line"/>
      <point x="200" y="1104" type="line"/>
      <point x="200" y="1329" type="line"/>
      <point x="136" y="1329" type="line"/>
      <point x="136" y="1061" type="line"/>
    </contour>
  </outline>
</glyph>
<glyph name="kxwaa-ethiopic" format="2">
  <advance width="1242"/>
  <unicode hex="12C3"/>
  <outline>
    <contour>
      <point x="232" y="0" type="line"/>
      <point x="286" y="0" type="line"/>
      <point x="286" y="716" type="line" smooth="yes"/>
      <point x="286" y="862"/>
      <point x="319" y="1061"/>
      <point x="614" y="1061" type="curve" smooth="yes"/>
      <point x="926" y="1061"/>
      <point x="960" y="872"/>
      <point x="960" y="716" type="curve" smooth="yes"/>
      <point x="960" y="0" type="line"/>
      <point x="1015" y="0" type="line"/>
      <point x="1015" y="715" type="line" smooth="yes"/>
      <point x="1015" y="973"/>
      <point x="863" y="1111"/>
      <point x="608" y="1111" type="curve"/>
      <point x="344" y="1093"/>
      <point x="232" y="957"/>
      <point x="232" y="748" type="curve" smooth="yes"/>
    </contour>
    <contour>
      <point x="668" y="-276" type="line"/>
      <point x="1185" y="-276" type="line"/>
      <point x="1185" y="-381" type="line"/>
      <point x="1220" y="-381" type="line"/>
      <point x="1220" y="-234" type="line"/>
      <point x="1015" y="-234" type="line"/>
      <point x="1015" y="77" type="line"/>
      <point x="958" y="77" type="line"/>
      <point x="958" y="-234" type="line"/>
      <point x="668" y="-234" type="line"/>
    </contour>
    <contour>
      <point x="526" y="1061" type="line"/>
      <point x="617" y="1104" type="line"/>
      <point x="200" y="1104" type="line"/>
      <point x="200" y="1329" type="line"/>
      <point x="136" y="1329" type="line"/>
      <point x="136" y="1061" type="line"/>
    </contour>
    <component base="_smart.hat.left" xOffset="287" yOffset="1220"/>
  </outline>
</glyph>
<glyph name="uPharyngeal-ethiopic" format="2">
  <advance width="1247"/>
  <unicode hex="12D1"/>
  <outline>
    <contour>
      <point x="625" y="-20" type="curve" smooth="yes"/>
      <point x="809" y="-20"/>
      <point x="959" y="77"/>
      <point x="1038" y="241" type="curve" smooth="yes"/>
      <point x="1077" y="323"/>
      <point x="1097" y="416"/>
      <point x="1097" y="520" type="curve" smooth="yes"/>
      <point x="1097" y="568" type="line" smooth="yes"/>
      <point x="1097" y="868"/>
      <point x="913" y="1102"/>
      <point x="623" y="1102" type="curve" smooth="yes"/>
      <point x="440" y="1102"/>
      <point x="289" y="1005"/>
      <point x="210" y="841" type="curve" smooth="yes"/>
      <point x="170" y="758"/>
      <point x="150" y="665"/>
      <point x="150" y="562" type="curve" smooth="yes"/>
      <point x="150" y="514" type="line" smooth="yes"/>
      <point x="150" y="140"/>
      <point x="400" y="-20"/>
    </contour>
    <contour>
      <point x="625" y="34" type="curve" smooth="yes"/>
      <point x="361" y="34"/>
      <point x="204" y="261"/>
      <point x="204" y="520" type="curve" smooth="yes"/>
      <point x="204" y="837"/>
      <point x="376" y="1048"/>
      <point x="623" y="1048" type="curve" smooth="yes"/>
      <point x="884" y="1048"/>
      <point x="1043" y="818"/>
      <point x="1043" y="531" type="curve" smooth="yes"/>
      <point x="1043" y="239"/>
      <point x="872" y="34"/>
    </contour>
    <contour>
      <point x="1154" y="696" type="curve" smooth="yes"/>
      <point x="1185" y="696"/>
      <point x="1210" y="720"/>
      <point x="1210" y="751" type="curve" smooth="yes"/>
      <point x="1210" y="782"/>
      <point x="1185" y="807"/>
      <point x="1154" y="807" type="curve" smooth="yes"/>
      <point x="1123" y="807"/>
      <point x="1099" y="782"/>
      <point x="1099" y="751" type="curve" smooth="yes"/>
      <point x="1099" y="720"/>
      <point x="1123" y="696"/>
    </contour>
  </outline>
</glyph>
<glyph name="za-ethiopic" format="2">
  <advance width="1243"/>
  <unicode hex="12D8"/>
  <outline>
    <contour>
      <point x="232" y="0" type="line"/>
      <point x="286" y="0" type="line"/>
      <point x="286" y="611" type="line"/>
      <point x="962" y="611" type="line"/>
      <point x="962" y="0" type="line"/>
      <point x="1016" y="0" type="line"/>
      <point x="1016" y="1082" type="line"/>
      <point x="962" y="1082" type="line"/>
      <point x="962" y="665" type="line"/>
      <point x="286" y="665" type="line"/>
      <point x="286" y="1082" type="line"/>
      <point x="232" y="1082" type="line"/>
    </contour>
  </outline>
</glyph>
<glyph name="zu-ethiopic" format="2">
  <advance width="1243"/>
  <unicode hex="12D9"/>
  <outline>
    <contour>
      <point x="232" y="0" type="line"/>
      <point x="286" y="0" type="line"/>
      <point x="286" y="611" type="line"/>
      <point x="962" y="611" type="line"/>
      <point x="962" y="0" type="line"/>
      <point x="1016" y="0" type="line"/>
      <point x="1016" y="1082" type="line"/>
      <point x="962" y="1082" type="line"/>
      <point x="962" y="665" type="line"/>
      <point x="286" y="665" type="line"/>
      <point x="286" y="1082" type="line"/>
      <point x="232" y="1082" type="line"/>
    </contour>
    <contour>
      <point x="1163" y="636" type="curve" smooth="yes"/>
      <point x="1194" y="636"/>
      <point x="1219" y="660"/>
      <point x="1219" y="691" type="curve" smooth="yes"/>
      <point x="1219" y="722"/>
      <point x="1194" y="747"/>
      <point x="1163" y="747" type="curve" smooth="yes"/>
      <point x="1132" y="747"/>
      <point x="1108" y="722"/>
      <point x="1108" y="691" type="curve" smooth="yes"/>
      <point x="1108" y="660"/>
      <point x="1132" y="636"/>
    </contour>
  </outline>
</glyph>
<glyph name="zi-ethiopic" format="2">
  <advance width="1243"/>
  <unicode hex="12DA"/>
  <outline>
    <contour>
      <point x="232" y="0" type="line"/>
      <point x="286" y="0" type="line"/>
      <point x="286" y="611" type="line"/>
      <point x="962" y="611" type="line"/>
      <point x="962" y="0" type="line"/>
      <point x="1016" y="0" type="line"/>
      <point x="1016" y="1082" type="line"/>
      <point x="962" y="1082" type="line"/>
      <point x="962" y="665" type="line"/>
      <point x="286" y="665" type="line"/>
      <point x="286" y="1082" type="line"/>
      <point x="232" y="1082" type="line"/>
    </contour>
    <contour>
      <point x="1103" y="-18" type="curve" smooth="yes"/>
      <point x="1134" y="-18"/>
      <point x="1159" y="6"/>
      <point x="1159" y="37" type="curve" smooth="yes"/>
      <point x="1159" y="68"/>
      <point x="1134" y="93"/>
      <point x="1103" y="93" type="curve" smooth="yes"/>
      <point x="1072" y="93"/>
      <point x="1048" y="68"/>
      <point x="1048" y="37" type="curve" smooth="yes"/>
      <point x="1048" y="6"/>
      <point x="1072" y="-18"/>
    </contour>
  </outline>
</glyph>
<glyph name="zaa-ethiopic" format="2">
  <advance width="1243"/>
  <unicode hex="12DB"/>
  <outline>
    <contour>
      <point x="232" y="0" type="line"/>
      <point x="286" y="0" type="line"/>
      <point x="286" y="611" type="line"/>
      <point x="962" y="611" type="line"/>
      <point x="962" y="0" type="line"/>
      <point x="1016" y="0" type="line"/>
      <point x="1016" y="1082" type="line"/>
      <point x="962" y="1082" type="line"/>
      <point x="962" y="665" type="line"/>
      <point x="286" y="665" type="line"/>
      <point x="286" y="1082" type="line"/>
      <point x="232" y="1082" type="line"/>
    </contour>
    <contour>
      <point x="962" y="-370" type="line"/>
      <point x="1019" y="-370" type="line"/>
      <point x="1019" y="-16" type="line"/>
      <point x="962" y="-16" type="line"/>
    </contour>
  </outline>
</glyph>
<glyph name="zee-ethiopic" format="2">
  <advance width="1243"/>
  <unicode hex="12DC"/>
  <outline>
    <contour>
      <point x="232" y="0" type="line"/>
      <point x="286" y="0" type="line"/>
      <point x="286" y="611" type="line"/>
      <point x="962" y="611" type="line"/>
      <point x="962" y="0" type="line"/>
      <point x="1016" y="0" type="line"/>
      <point x="1016" y="1082" type="line"/>
      <point x="962" y="1082" type="line"/>
      <point x="962" y="665" type="line"/>
      <point x="286" y="665" type="line"/>
      <point x="286" y="1082" type="line"/>
      <point x="232" y="1082" type="line"/>
    </contour>
    <contour>
      <point x="795" y="-283" type="curve" smooth="yes"/>
      <point x="920" y="-283"/>
      <point x="1017" y="-186"/>
      <point x="1017" y="-62" type="curve" smooth="yes"/>
      <point x="1017" y="63"/>
      <point x="920" y="165"/>
      <point x="795" y="165" type="curve" smooth="yes"/>
      <point x="674" y="165"/>
      <point x="573" y="68"/>
      <point x="573" y="-62" type="curve" smooth="yes"/>
      <point x="573" y="-192"/>
      <point x="675" y="-283"/>
    </contour>
    <contour>
      <point x="794" y="-245" type="curve" smooth="yes"/>
      <point x="692" y="-245"/>
      <point x="619" y="-174"/>
      <point x="619" y="-71" type="curve" smooth="yes"/>
      <point x="619" y="37"/>
      <point x="692" y="109"/>
      <point x="794" y="109" type="curve" smooth="yes"/>
      <point x="896" y="109"/>
      <point x="969" y="37"/>
      <point x="969" y="-71" type="curve" smooth="yes"/>
      <point x="969" y="-174"/>
      <point x="896" y="-245"/>
    </contour>
  </outline>
</glyph>
<glyph name="ze-ethiopic" format="2">
  <advance width="1243"/>
  <unicode hex="12DD"/>
  <outline>
    <contour>
      <point x="232" y="0" type="line"/>
      <point x="286" y="0" type="line"/>
      <point x="286" y="611" type="line"/>
      <point x="962" y="611" type="line"/>
      <point x="962" y="0" type="line"/>
      <point x="1016" y="0" type="line"/>
      <point x="1016" y="1082" type="line"/>
      <point x="962" y="1082" type="line"/>
      <point x="962" y="665" type="line"/>
      <point x="286" y="665" type="line"/>
      <point x="286" y="1082" type="line"/>
      <point x="232" y="1082" type="line"/>
    </contour>
    <contour>
      <point x="330" y="1156" type="line" name="❌"/>
      <point x="141" y="1422" type="line"/>
      <point x="75" y="1422" type="line"/>
      <point x="270" y="1156" type="line" name="❌"/>
    </contour>
  </outline>
</glyph>
<glyph name="zo-ethiopic" format="2">
  <advance width="1243"/>
  <unicode hex="12DE"/>
  <outline>
    <contour>
      <point x="232" y="0" type="line"/>
      <point x="286" y="0" type="line"/>
      <point x="286" y="611" type="line"/>
      <point x="962" y="611" type="line"/>
      <point x="962" y="0" type="line"/>
      <point x="1016" y="0" type="line"/>
      <point x="1016" y="1082" type="line"/>
      <point x="962" y="1082" type="line"/>
      <point x="962" y="665" type="line"/>
      <point x="286" y="665" type="line"/>
      <point x="286" y="1082" type="line"/>
      <point x="232" y="1082" type="line"/>
    </contour>
    <contour>
      <point x="227" y="-365" type="line" name="❌"/>
      <point x="284" y="-365" type="line" name="❌"/>
      <point x="284" y="-11" type="line"/>
      <point x="227" y="-11" type="line"/>
    </contour>
  </outline>
</glyph>
<glyph name="zwa-ethiopic" format="2">
  <advance width="1243"/>
  <unicode hex="12DF"/>
  <outline>
    <contour>
      <point x="232" y="0" type="line"/>
      <point x="286" y="0" type="line"/>
      <point x="286" y="611" type="line"/>
      <point x="962" y="611" type="line"/>
      <point x="962" y="0" type="line"/>
      <point x="1016" y="0" type="line"/>
      <point x="1016" y="1082" type="line"/>
      <point x="962" y="1082" type="line"/>
      <point x="962" y="665" type="line"/>
      <point x="286" y="665" type="line"/>
      <point x="286" y="1082" type="line"/>
      <point x="232" y="1082" type="line"/>
    </contour>
    <contour>
      <point x="676" y="-302" type="line"/>
      <point x="1193" y="-302" type="line"/>
      <point x="1193" y="-407" type="line"/>
      <point x="1228" y="-407" type="line"/>
      <point x="1228" y="-260" type="line"/>
      <point x="1023" y="-260" type="line"/>
      <point x="1023" y="51" type="line"/>
      <point x="966" y="51" type="line"/>
      <point x="966" y="-260" type="line"/>
      <point x="676" y="-260" type="line"/>
    </contour>
  </outline>
</glyph>
<glyph name="zhi-ethiopic" format="2">
  <advance width="1243"/>
  <unicode hex="12E2"/>
  <outline>
    <contour>
      <point x="232" y="0" type="line"/>
      <point x="286" y="0" type="line"/>
      <point x="286" y="611" type="line"/>
      <point x="962" y="611" type="line"/>
      <point x="962" y="0" type="line"/>
      <point x="1016" y="0" type="line"/>
      <point x="1016" y="1082" type="line"/>
      <point x="962" y="1082" type="line"/>
      <point x="962" y="665" type="line"/>
      <point x="286" y="665" type="line"/>
      <point x="286" y="1082" type="line"/>
      <point x="232" y="1082" type="line"/>
    </contour>
    <contour>
      <point x="1103" y="-18" type="curve" smooth="yes"/>
      <point x="1134" y="-18"/>
      <point x="1159" y="6"/>
      <point x="1159" y="37" type="curve" smooth="yes"/>
      <point x="1159" y="68"/>
      <point x="1134" y="93"/>
      <point x="1103" y="93" type="curve" smooth="yes"/>
      <point x="1072" y="93"/>
      <point x="1048" y="68"/>
      <point x="1048" y="37" type="curve" smooth="yes"/>
      <point x="1048" y="6"/>
      <point x="1072" y="-18"/>
    </contour>
    <contour>
      <point x="171" y="999" type="curve" smooth="yes"/>
      <point x="202" y="999"/>
      <point x="227" y="1023"/>
      <point x="227" y="1054" type="curve" smooth="yes"/>
      <point x="227" y="1085"/>
      <point x="202" y="1110"/>
      <point x="171" y="1110" type="curve" smooth="yes"/>
      <point x="140" y="1110"/>
      <point x="116" y="1085"/>
      <point x="116" y="1054" type="curve" smooth="yes"/>
      <point x="116" y="1023"/>
      <point x="140" y="999"/>
    </contour>
    <contour>
      <point x="1073" y="1001" type="curve" smooth="yes"/>
      <point x="1104" y="1001"/>
      <point x="1129" y="1025"/>
      <point x="1129" y="1056" type="curve" smooth="yes"/>
      <point x="1129" y="1087"/>
      <point x="1104" y="1112"/>
      <point x="1073" y="1112" type="curve" smooth="yes"/>
      <point x="1042" y="1112"/>
      <point x="1018" y="1087"/>
      <point x="1018" y="1056" type="curve" smooth="yes"/>
      <point x="1018" y="1025"/>
      <point x="1042" y="1001"/>
    </contour>
  </outline>
</glyph>
<glyph name="zhaa-ethiopic" format="2">
  <advance width="1243"/>
  <unicode hex="12E3"/>
  <outline>
    <contour>
      <point x="232" y="0" type="line"/>
      <point x="286" y="0" type="line"/>
      <point x="286" y="611" type="line"/>
      <point x="962" y="611" type="line"/>
      <point x="962" y="0" type="line"/>
      <point x="1016" y="0" type="line"/>
      <point x="1016" y="1082" type="line"/>
      <point x="962" y="1082" type="line"/>
      <point x="962" y="665" type="line"/>
      <point x="286" y="665" type="line"/>
      <point x="286" y="1082" type="line"/>
      <point x="232" y="1082" type="line"/>
    </contour>
    <contour>
      <point x="962" y="-370" type="line"/>
      <point x="1019" y="-370" type="line"/>
      <point x="1019" y="-16" type="line"/>
      <point x="962" y="-16" type="line"/>
    </contour>
    <contour>
      <point x="171" y="999" type="curve" smooth="yes"/>
      <point x="202" y="999"/>
      <point x="227" y="1023"/>
      <point x="227" y="1054" type="curve" smooth="yes"/>
      <point x="227" y="1085"/>
      <point x="202" y="1110"/>
      <point x="171" y="1110" type="curve" smooth="yes"/>
      <point x="140" y="1110"/>
      <point x="116" y="1085"/>
      <point x="116" y="1054" type="curve" smooth="yes"/>
      <point x="116" y="1023"/>
      <point x="140" y="999"/>
    </contour>
    <contour>
      <point x="1073" y="1001" type="curve" smooth="yes"/>
      <point x="1104" y="1001"/>
      <point x="1129" y="1025"/>
      <point x="1129" y="1056" type="curve" smooth="yes"/>
      <point x="1129" y="1087"/>
      <point x="1104" y="1112"/>
      <point x="1073" y="1112" type="curve" smooth="yes"/>
      <point x="1042" y="1112"/>
      <point x="1018" y="1087"/>
      <point x="1018" y="1056" type="curve" smooth="yes"/>
      <point x="1018" y="1025"/>
      <point x="1042" y="1001"/>
    </contour>
  </outline>
</glyph>
<glyph name="zhe-ethiopic" format="2">
  <advance width="1243"/>
  <unicode hex="12E5"/>
  <outline>
    <contour>
      <point x="232" y="0" type="line"/>
      <point x="286" y="0" type="line"/>
      <point x="286" y="611" type="line"/>
      <point x="962" y="611" type="line"/>
      <point x="962" y="0" type="line"/>
      <point x="1016" y="0" type="line"/>
      <point x="1016" y="1082" type="line"/>
      <point x="962" y="1082" type="line"/>
      <point x="962" y="665" type="line"/>
      <point x="286" y="665" type="line"/>
      <point x="286" y="1082" type="line"/>
      <point x="232" y="1082" type="line"/>
    </contour>
    <contour>
      <point x="330" y="1156" type="line" name="❌"/>
      <point x="141" y="1422" type="line"/>
      <point x="75" y="1422" type="line"/>
      <point x="270" y="1156" type="line" name="❌"/>
    </contour>
    <contour>
      <point x="171" y="999" type="curve" smooth="yes"/>
      <point x="202" y="999"/>
      <point x="227" y="1023"/>
      <point x="227" y="1054" type="curve" smooth="yes"/>
      <point x="227" y="1085"/>
      <point x="202" y="1110"/>
      <point x="171" y="1110" type="curve" smooth="yes"/>
      <point x="140" y="1110"/>
      <point x="116" y="1085"/>
      <point x="116" y="1054" type="curve" smooth="yes"/>
      <point x="116" y="1023"/>
      <point x="140" y="999"/>
    </contour>
    <contour>
      <point x="1073" y="1001" type="curve" smooth="yes"/>
      <point x="1104" y="1001"/>
      <point x="1129" y="1025"/>
      <point x="1129" y="1056" type="curve" smooth="yes"/>
      <point x="1129" y="1087"/>
      <point x="1104" y="1112"/>
      <point x="1073" y="1112" type="curve" smooth="yes"/>
      <point x="1042" y="1112"/>
      <point x="1018" y="1087"/>
      <point x="1018" y="1056" type="curve" smooth="yes"/>
      <point x="1018" y="1025"/>
      <point x="1042" y="1001"/>
    </contour>
  </outline>
</glyph>
<glyph name="zhwa-ethiopic" format="2">
  <advance width="1243"/>
  <unicode hex="12E7"/>
  <outline>
    <contour>
      <point x="232" y="0" type="line"/>
      <point x="286" y="0" type="line"/>
      <point x="286" y="611" type="line"/>
      <point x="962" y="611" type="line"/>
      <point x="962" y="0" type="line"/>
      <point x="1016" y="0" type="line"/>
      <point x="1016" y="1082" type="line"/>
      <point x="962" y="1082" type="line"/>
      <point x="962" y="665" type="line"/>
      <point x="286" y="665" type="line"/>
      <point x="286" y="1082" type="line"/>
      <point x="232" y="1082" type="line"/>
    </contour>
    <contour>
      <point x="676" y="-302" type="line"/>
      <point x="1193" y="-302" type="line"/>
      <point x="1193" y="-407" type="line"/>
      <point x="1228" y="-407" type="line"/>
      <point x="1228" y="-260" type="line"/>
      <point x="1023" y="-260" type="line"/>
      <point x="1023" y="51" type="line"/>
      <point x="966" y="51" type="line"/>
      <point x="966" y="-260" type="line"/>
      <point x="676" y="-260" type="line"/>
    </contour>
    <contour>
      <point x="171" y="999" type="curve" smooth="yes"/>
      <point x="202" y="999"/>
      <point x="227" y="1023"/>
      <point x="227" y="1054" type="curve" smooth="yes"/>
      <point x="227" y="1085"/>
      <point x="202" y="1110"/>
      <point x="171" y="1110" type="curve" smooth="yes"/>
      <point x="140" y="1110"/>
      <point x="116" y="1085"/>
      <point x="116" y="1054" type="curve" smooth="yes"/>
      <point x="116" y="1023"/>
      <point x="140" y="999"/>
    </contour>
    <contour>
      <point x="1073" y="1001" type="curve" smooth="yes"/>
      <point x="1104" y="1001"/>
      <point x="1129" y="1025"/>
      <point x="1129" y="1056" type="curve" smooth="yes"/>
      <point x="1129" y="1087"/>
      <point x="1104" y="1112"/>
      <point x="1073" y="1112" type="curve" smooth="yes"/>
      <point x="1042" y="1112"/>
      <point x="1018" y="1087"/>
      <point x="1018" y="1056" type="curve" smooth="yes"/>
      <point x="1018" y="1025"/>
      <point x="1042" y="1001"/>
    </contour>
  </outline>
</glyph>
<glyph name="yee-ethiopic" format="2">
  <advance width="1132"/>
  <unicode hex="12EC"/>
  <outline>
    <contour>
      <point x="365" y="0" type="line"/>
      <point x="419" y="0" type="line"/>
      <point x="279" y="577" type="line"/>
      <point x="1017" y="577" type="line" smooth="yes"/>
      <point x="1056" y="577"/>
      <point x="1052" y="595"/>
      <point x="1052" y="634" type="curve" smooth="yes"/>
      <point x="1052" y="914"/>
      <point x="922" y="1102"/>
      <point x="681" y="1102" type="curve" smooth="yes"/>
      <point x="516" y="1102"/>
      <point x="367" y="1004"/>
      <point x="287" y="837" type="curve" smooth="yes"/>
      <point x="254" y="768"/>
      <point x="217" y="663"/>
      <point x="235" y="582" type="curve" smooth="yes"/>
    </contour>
    <contour>
      <point x="284" y="631" type="line"/>
      <point x="309" y="874"/>
      <point x="470" y="1048"/>
      <point x="681" y="1048" type="curve" smooth="yes"/>
      <point x="906" y="1048"/>
      <point x="998" y="856"/>
      <point x="998" y="631" type="curve"/>
    </contour>
    <contour>
      <point x="581" y="110" type="curve" smooth="yes"/>
      <point x="677" y="110"/>
      <point x="752" y="184"/>
      <point x="752" y="280" type="curve" smooth="yes"/>
      <point x="752" y="376"/>
      <point x="677" y="454"/>
      <point x="581" y="454" type="curve" smooth="yes"/>
      <point x="488" y="454"/>
      <point x="410" y="380"/>
      <point x="410" y="280" type="curve" smooth="yes"/>
      <point x="410" y="180"/>
      <point x="489" y="110"/>
    </contour>
    <contour>
      <point x="581" y="164" type="curve" smooth="yes"/>
      <point x="513" y="164"/>
      <point x="464" y="211"/>
      <point x="464" y="280" type="curve" smooth="yes"/>
      <point x="464" y="352"/>
      <point x="513" y="400"/>
      <point x="581" y="400" type="curve" smooth="yes"/>
      <point x="649" y="400"/>
      <point x="698" y="352"/>
      <point x="698" y="280" type="curve" smooth="yes"/>
      <point x="698" y="211"/>
      <point x="649" y="164"/>
    </contour>
  </outline>
</glyph>
<glyph name="ye-ethiopic" format="2">
  <advance width="1132"/>
  <unicode hex="12ED"/>
  <outline>
    <contour>
      <point x="365" y="0" type="line"/>
      <point x="419" y="0" type="line"/>
      <point x="279" y="577" type="line"/>
      <point x="1017" y="577" type="line" smooth="yes"/>
      <point x="1056" y="577"/>
      <point x="1052" y="595"/>
      <point x="1052" y="634" type="curve" smooth="yes"/>
      <point x="1052" y="914"/>
      <point x="922" y="1102"/>
      <point x="681" y="1102" type="curve" smooth="yes"/>
      <point x="516" y="1102"/>
      <point x="367" y="1004"/>
      <point x="287" y="837" type="curve" smooth="yes"/>
      <point x="254" y="768"/>
      <point x="217" y="663"/>
      <point x="235" y="582" type="curve" smooth="yes"/>
    </contour>
    <contour>
      <point x="284" y="631" type="line"/>
      <point x="309" y="874"/>
      <point x="470" y="1048"/>
      <point x="681" y="1048" type="curve" smooth="yes"/>
      <point x="906" y="1048"/>
      <point x="998" y="856"/>
      <point x="998" y="631" type="curve"/>
    </contour>
    <contour>
      <point x="155" y="-143" type="curve"/>
      <point x="210" y="-143" type="line"/>
      <point x="210" y="-67"/>
      <point x="256" y="-18"/>
      <point x="331" y="-18" type="curve" smooth="yes"/>
      <point x="442" y="-18"/>
      <point x="590" y="-13"/>
      <point x="728" y="-13" type="curve" smooth="yes"/>
      <point x="958" y="-13"/>
      <point x="974" y="235"/>
      <point x="974" y="344" type="curve"/>
      <point x="919" y="344" type="line"/>
      <point x="919" y="265"/>
      <point x="930" y="42"/>
      <point x="728" y="42" type="curve" smooth="yes"/>
      <point x="622" y="42"/>
      <point x="465" y="36"/>
      <point x="331" y="36" type="curve" smooth="yes"/>
      <point x="230" y="36"/>
      <point x="155" y="-36"/>
    </contour>
  </outline>
</glyph>
<glyph name="dee-ethiopic" format="2">
  <advance width="1132"/>
  <unicode hex="12F4"/>
  <outline>
    <contour>
      <point x="365" y="0" type="line"/>
      <point x="419" y="0" type="line"/>
      <point x="279" y="577" type="line"/>
      <point x="1017" y="577" type="line" smooth="yes"/>
      <point x="1056" y="577"/>
      <point x="1052" y="595"/>
      <point x="1052" y="634" type="curve" smooth="yes"/>
      <point x="1052" y="914"/>
      <point x="922" y="1102"/>
      <point x="681" y="1102" type="curve" smooth="yes"/>
      <point x="516" y="1102"/>
      <point x="367" y="1004"/>
      <point x="287" y="837" type="curve" smooth="yes"/>
      <point x="254" y="768"/>
      <point x="217" y="663"/>
      <point x="235" y="582" type="curve" smooth="yes"/>
    </contour>
    <contour>
      <point x="284" y="631" type="line"/>
      <point x="309" y="874"/>
      <point x="470" y="1048"/>
      <point x="681" y="1048" type="curve" smooth="yes"/>
      <point x="906" y="1048"/>
      <point x="998" y="856"/>
      <point x="998" y="631" type="curve"/>
    </contour>
    <contour>
      <point x="874" y="-395" type="curve" smooth="yes"/>
      <point x="999" y="-395"/>
      <point x="1096" y="-298"/>
      <point x="1096" y="-174" type="curve" smooth="yes"/>
      <point x="1096" y="-49"/>
      <point x="999" y="53"/>
      <point x="874" y="53" type="curve" smooth="yes"/>
      <point x="753" y="53"/>
      <point x="652" y="-44"/>
      <point x="652" y="-174" type="curve" smooth="yes"/>
      <point x="652" y="-304"/>
      <point x="754" y="-395"/>
    </contour>
    <contour>
      <point x="873" y="-357" type="curve" smooth="yes"/>
      <point x="771" y="-357"/>
      <point x="698" y="-286"/>
      <point x="698" y="-183" type="curve" smooth="yes"/>
      <point x="698" y="-75"/>
      <point x="771" y="-3"/>
      <point x="873" y="-3" type="curve" smooth="yes"/>
      <point x="975" y="-3"/>
      <point x="1048" y="-75"/>
      <point x="1048" y="-183" type="curve" smooth="yes"/>
      <point x="1048" y="-286"/>
      <point x="975" y="-357"/>
    </contour>
    <contour>
      <point x="152" y="-3" type="line"/>
      <point x="902" y="-3" type="line"/>
      <point x="902" y="51" type="line"/>
      <point x="152" y="51" type="line"/>
    </contour>
  </outline>
</glyph>
<glyph name="dwa-ethiopic" format="2">
  <advance width="1132"/>
  <unicode hex="12F7"/>
  <outline>
    <contour>
      <point x="365" y="0" type="line"/>
      <point x="419" y="0" type="line"/>
      <point x="279" y="577" type="line"/>
      <point x="1017" y="577" type="line" smooth="yes"/>
      <point x="1056" y="577"/>
      <point x="1052" y="595"/>
      <point x="1052" y="634" type="curve" smooth="yes"/>
      <point x="1052" y="914"/>
      <point x="922" y="1102"/>
      <point x="681" y="1102" type="curve" smooth="yes"/>
      <point x="516" y="1102"/>
      <point x="367" y="1004"/>
      <point x="287" y="837" type="curve" smooth="yes"/>
      <point x="254" y="768"/>
      <point x="217" y="663"/>
      <point x="235" y="582" type="curve" smooth="yes"/>
    </contour>
    <contour>
      <point x="284" y="631" type="line"/>
      <point x="309" y="874"/>
      <point x="470" y="1048"/>
      <point x="681" y="1048" type="curve" smooth="yes"/>
      <point x="906" y="1048"/>
      <point x="998" y="856"/>
      <point x="998" y="631" type="curve"/>
    </contour>
    <contour>
      <point x="152" y="-3" type="line"/>
      <point x="902" y="-3" type="line"/>
      <point x="902" y="51" type="line"/>
      <point x="152" y="51" type="line"/>
    </contour>
    <contour>
      <point x="554" y="-302" type="line"/>
      <point x="1071" y="-302" type="line"/>
      <point x="1071" y="-407" type="line"/>
      <point x="1106" y="-407" type="line"/>
      <point x="1106" y="-260" type="line"/>
      <point x="901" y="-260" type="line"/>
      <point x="901" y="51" type="line"/>
      <point x="844" y="51" type="line"/>
      <point x="844" y="-260" type="line"/>
      <point x="554" y="-260" type="line"/>
    </contour>
  </outline>
</glyph>
<glyph name="ge-ethiopic" format="2">
  <advance width="793"/>
  <unicode hex="130D"/>
  <outline>
    <contour>
      <point x="571" y="0" type="line"/>
      <point x="626" y="0" type="line"/>
      <point x="626" y="706" type="line" smooth="yes"/>
      <point x="626" y="971"/>
      <point x="513" y="1102"/>
      <point x="281" y="1102" type="curve" smooth="yes"/>
      <point x="210" y="1102"/>
      <point x="144" y="1083"/>
      <point x="85" y="1049" type="curve"/>
      <point x="123" y="1012" type="line"/>
      <point x="170" y="1036"/>
      <point x="222" y="1049"/>
      <point x="278" y="1049" type="curve" smooth="yes"/>
      <point x="481" y="1049"/>
      <point x="571" y="940"/>
      <point x="571" y="708" type="curve" smooth="yes"/>
    </contour>
    <contour>
      <point x="178" y="635" type="curve" smooth="yes"/>
      <point x="303" y="635"/>
      <point x="400" y="732"/>
      <point x="400" y="856" type="curve" smooth="yes"/>
      <point x="400" y="981"/>
      <point x="303" y="1083"/>
      <point x="178" y="1083" type="curve" smooth="yes"/>
      <point x="57" y="1083"/>
      <point x="-44" y="986"/>
      <point x="-44" y="856" type="curve" smooth="yes"/>
      <point x="-44" y="726"/>
      <point x="58" y="635"/>
    </contour>
    <contour>
      <point x="177" y="673" type="curve" smooth="yes"/>
      <point x="75" y="673"/>
      <point x="2" y="744"/>
      <point x="2" y="847" type="curve" smooth="yes"/>
      <point x="2" y="955"/>
      <point x="75" y="1027"/>
      <point x="177" y="1027" type="curve" smooth="yes"/>
      <point x="279" y="1027"/>
      <point x="352" y="955"/>
      <point x="352" y="847" type="curve" smooth="yes"/>
      <point x="352" y="744"/>
      <point x="279" y="673"/>
    </contour>
  </outline>
</glyph>
<glyph name="gwa-ethiopic" format="2">
  <advance width="793"/>
  <unicode hex="1310"/>
  <outline>
    <contour>
      <point x="571" y="0" type="line"/>
      <point x="626" y="0" type="line"/>
      <point x="626" y="706" type="line" smooth="yes"/>
      <point x="626" y="971"/>
      <point x="513" y="1102"/>
      <point x="281" y="1102" type="curve" smooth="yes"/>
      <point x="210" y="1102"/>
      <point x="144" y="1083"/>
      <point x="85" y="1049" type="curve"/>
      <point x="123" y="1012" type="line"/>
      <point x="170" y="1036"/>
      <point x="222" y="1049"/>
      <point x="278" y="1049" type="curve" smooth="yes"/>
      <point x="481" y="1049"/>
      <point x="571" y="940"/>
      <point x="571" y="708" type="curve" smooth="yes"/>
    </contour>
    <contour>
      <point x="270" y="-55" type="line"/>
      <point x="746" y="-55" type="line"/>
      <point x="746" y="-277" type="line"/>
      <point x="806" y="-277" type="line"/>
      <point x="806" y="-11" type="line"/>
      <point x="270" y="-11" type="line"/>
    </contour>
  </outline>
</glyph>
<glyph name="gga-ethiopic" format="2">
  <advance width="793"/>
  <unicode hex="1318"/>
  <outline>
    <contour>
      <point x="571" y="0" type="line"/>
      <point x="626" y="0" type="line"/>
      <point x="626" y="706" type="line" smooth="yes"/>
      <point x="626" y="971"/>
      <point x="513" y="1102"/>
      <point x="281" y="1102" type="curve" smooth="yes"/>
      <point x="210" y="1102"/>
      <point x="144" y="1083"/>
      <point x="85" y="1049" type="curve"/>
      <point x="123" y="1012" type="line"/>
      <point x="170" y="1036"/>
      <point x="222" y="1049"/>
      <point x="278" y="1049" type="curve" smooth="yes"/>
      <point x="481" y="1049"/>
      <point x="571" y="940"/>
      <point x="571" y="708" type="curve" smooth="yes"/>
    </contour>
    <contour>
      <point x="273" y="1110" type="line"/>
      <point x="333" y="1110" type="line"/>
      <point x="333" y="1376" type="line"/>
      <point x="273" y="1376" type="line"/>
    </contour>
    <contour>
      <point x="108" y="1364" type="line"/>
      <point x="623" y="1364" type="line"/>
      <point x="623" y="1408" type="line"/>
      <point x="108" y="1408" type="line"/>
    </contour>
  </outline>
</glyph>
<glyph name="ggu-ethiopic" format="2">
  <advance width="793"/>
  <unicode hex="1319"/>
  <outline>
    <contour>
      <point x="571" y="0" type="line"/>
      <point x="626" y="0" type="line"/>
      <point x="626" y="706" type="line" smooth="yes"/>
      <point x="626" y="971"/>
      <point x="513" y="1102"/>
      <point x="281" y="1102" type="curve" smooth="yes"/>
      <point x="210" y="1102"/>
      <point x="144" y="1083"/>
      <point x="85" y="1049" type="curve"/>
      <point x="123" y="1012" type="line"/>
      <point x="170" y="1036"/>
      <point x="222" y="1049"/>
      <point x="278" y="1049" type="curve" smooth="yes"/>
      <point x="481" y="1049"/>
      <point x="571" y="940"/>
      <point x="571" y="708" type="curve" smooth="yes"/>
    </contour>
    <contour>
      <point x="706" y="593" type="curve" smooth="yes"/>
      <point x="737" y="593"/>
      <point x="762" y="617"/>
      <point x="762" y="648" type="curve" smooth="yes"/>
      <point x="762" y="679"/>
      <point x="737" y="704"/>
      <point x="706" y="704" type="curve" smooth="yes"/>
      <point x="675" y="704"/>
      <point x="651" y="679"/>
      <point x="651" y="648" type="curve" smooth="yes"/>
      <point x="651" y="617"/>
      <point x="675" y="593"/>
    </contour>
    <contour>
      <point x="273" y="1110" type="line"/>
      <point x="333" y="1110" type="line"/>
      <point x="333" y="1376" type="line"/>
      <point x="273" y="1376" type="line"/>
    </contour>
    <component base="_smart.hat" xOffset="386" yOffset="1255"/>
  </outline>
</glyph>
<glyph name="ggi-ethiopic" format="2">
  <advance width="793"/>
  <unicode hex="131A"/>
  <outline>
    <contour>
      <point x="571" y="0" type="line"/>
      <point x="626" y="0" type="line"/>
      <point x="626" y="706" type="line" smooth="yes"/>
      <point x="626" y="971"/>
      <point x="513" y="1102"/>
      <point x="281" y="1102" type="curve" smooth="yes"/>
      <point x="210" y="1102"/>
      <point x="144" y="1083"/>
      <point x="85" y="1049" type="curve"/>
      <point x="123" y="1012" type="line"/>
      <point x="170" y="1036"/>
      <point x="222" y="1049"/>
      <point x="278" y="1049" type="curve" smooth="yes"/>
      <point x="481" y="1049"/>
      <point x="571" y="940"/>
      <point x="571" y="708" type="curve" smooth="yes"/>
    </contour>
    <contour>
      <point x="714" y="-5" type="curve" smooth="yes"/>
      <point x="745" y="-5"/>
      <point x="770" y="19"/>
      <point x="770" y="50" type="curve" smooth="yes"/>
      <point x="770" y="81"/>
      <point x="745" y="106"/>
      <point x="714" y="106" type="curve" smooth="yes"/>
      <point x="683" y="106"/>
      <point x="659" y="81"/>
      <point x="659" y="50" type="curve" smooth="yes"/>
      <point x="659" y="19"/>
      <point x="683" y="-5"/>
    </contour>
    <contour>
      <point x="273" y="1110" type="line"/>
      <point x="333" y="1110" type="line"/>
      <point x="333" y="1376" type="line"/>
      <point x="273" y="1376" type="line"/>
    </contour>
    <component base="_smart.hat" xOffset="386" yOffset="1255"/>
  </outline>
</glyph>
<glyph name="ggee-ethiopic" format="2">
  <advance width="793"/>
  <unicode hex="131C"/>
  <outline>
    <contour>
      <point x="571" y="0" type="line"/>
      <point x="626" y="0" type="line"/>
      <point x="626" y="706" type="line" smooth="yes"/>
      <point x="626" y="971"/>
      <point x="513" y="1102"/>
      <point x="281" y="1102" type="curve" smooth="yes"/>
      <point x="210" y="1102"/>
      <point x="144" y="1083"/>
      <point x="85" y="1049" type="curve"/>
      <point x="123" y="1012" type="line"/>
      <point x="170" y="1036"/>
      <point x="222" y="1049"/>
      <point x="278" y="1049" type="curve" smooth="yes"/>
      <point x="481" y="1049"/>
      <point x="571" y="940"/>
      <point x="571" y="708" type="curve" smooth="yes"/>
    </contour>
    <contour>
      <point x="542" y="-367" type="curve" smooth="yes"/>
      <point x="667" y="-367"/>
      <point x="764" y="-270"/>
      <point x="764" y="-146" type="curve" smooth="yes"/>
      <point x="764" y="-21"/>
      <point x="667" y="81"/>
      <point x="542" y="81" type="curve" smooth="yes"/>
      <point x="421" y="81"/>
      <point x="320" y="-16"/>
      <point x="320" y="-146" type="curve" smooth="yes"/>
      <point x="320" y="-276"/>
      <point x="422" y="-367"/>
    </contour>
    <contour>
      <point x="541" y="-329" type="curve" smooth="yes"/>
      <point x="439" y="-329"/>
      <point x="366" y="-258"/>
      <point x="366" y="-155" type="curve" smooth="yes"/>
      <point x="366" y="-47"/>
      <point x="439" y="25"/>
      <point x="541" y="25" type="curve" smooth="yes"/>
      <point x="643" y="25"/>
      <point x="716" y="-47"/>
      <point x="716" y="-155" type="curve" smooth="yes"/>
      <point x="716" y="-258"/>
      <point x="643" y="-329"/>
    </contour>
    <contour>
      <point x="273" y="1110" type="line"/>
      <point x="333" y="1110" type="line"/>
      <point x="333" y="1376" type="line"/>
      <point x="273" y="1376" type="line"/>
    </contour>
    <component base="_smart.hat" xOffset="386" yOffset="1255"/>
  </outline>
</glyph>
<glyph name="ggo-ethiopic" format="2">
  <advance width="793"/>
  <unicode hex="131E"/>
  <outline>
    <contour>
      <point x="571" y="0" type="line"/>
      <point x="626" y="0" type="line"/>
      <point x="626" y="706" type="line" smooth="yes"/>
      <point x="626" y="971"/>
      <point x="513" y="1102"/>
      <point x="281" y="1102" type="curve" smooth="yes"/>
      <point x="210" y="1102"/>
      <point x="144" y="1083"/>
      <point x="85" y="1049" type="curve"/>
      <point x="123" y="1012" type="line"/>
      <point x="170" y="1036"/>
      <point x="222" y="1049"/>
      <point x="278" y="1049" type="curve" smooth="yes"/>
      <point x="481" y="1049"/>
      <point x="571" y="940"/>
      <point x="571" y="708" type="curve" smooth="yes"/>
    </contour>
    <contour>
      <point x="108" y="1364" type="line"/>
      <point x="623" y="1364" type="line"/>
      <point x="623" y="1408" type="line"/>
      <point x="108" y="1408" type="line"/>
    </contour>
    <contour>
      <point x="360" y="1047" type="curve" smooth="yes"/>
      <point x="456" y="1047"/>
      <point x="531" y="1121"/>
      <point x="531" y="1217" type="curve" smooth="yes"/>
      <point x="531" y="1313"/>
      <point x="456" y="1391"/>
      <point x="360" y="1391" type="curve" smooth="yes"/>
      <point x="267" y="1391"/>
      <point x="189" y="1317"/>
      <point x="189" y="1217" type="curve" smooth="yes"/>
      <point x="189" y="1117"/>
      <point x="268" y="1047"/>
    </contour>
    <contour>
      <point x="360" y="1101" type="curve" smooth="yes"/>
      <point x="292" y="1101"/>
      <point x="243" y="1148"/>
      <point x="243" y="1217" type="curve" smooth="yes"/>
      <point x="243" y="1289"/>
      <point x="292" y="1337"/>
      <point x="360" y="1337" type="curve" smooth="yes"/>
      <point x="428" y="1337"/>
      <point x="477" y="1289"/>
      <point x="477" y="1217" type="curve" smooth="yes"/>
      <point x="477" y="1148"/>
      <point x="428" y="1101"/>
    </contour>
  </outline>
</glyph>
<glyph name="tha-ethiopic" format="2">
  <advance width="1956"/>
  <unicode hex="1320"/>
  <outline>
    <contour>
      <point x="221" y="0" type="line"/>
      <point x="276" y="0" type="line"/>
      <point x="276" y="684" type="line" smooth="yes"/>
      <point x="276" y="875"/>
      <point x="429" y="1049"/>
      <point x="606" y="1049" type="curve" smooth="yes"/>
      <point x="811" y="1049"/>
      <point x="952" y="944"/>
      <point x="952" y="727" type="curve" smooth="yes"/>
      <point x="952" y="0" type="line"/>
      <point x="1006" y="0" type="line"/>
      <point x="1006" y="720" type="line" smooth="yes"/>
      <point x="1006" y="823"/>
      <point x="1132" y="1045"/>
      <point x="1390" y="1049" type="curve" smooth="yes"/>
      <point x="1594" y="1052"/>
      <point x="1686" y="939"/>
      <point x="1686" y="702" type="curve" smooth="yes"/>
      <point x="1686" y="0" type="line"/>
      <point x="1740" y="0" type="line"/>
      <point x="1740" y="706" type="line" smooth="yes"/>
      <point x="1740" y="970"/>
      <point x="1626" y="1102"/>
      <point x="1393" y="1102" type="curve" smooth="yes"/>
      <point x="1214" y="1102"/>
      <point x="1059" y="1002"/>
      <point x="995" y="846" type="curve"/>
      <point x="959" y="1027"/>
      <point x="790" y="1102"/>
      <point x="609" y="1102" type="curve" smooth="yes"/>
      <point x="390" y="1102"/>
      <point x="221" y="920"/>
      <point x="221" y="683" type="curve" smooth="yes"/>
    </contour>
  </outline>
</glyph>
<glyph name="thee-ethiopic" format="2">
  <advance width="1956"/>
  <unicode hex="1324"/>
  <outline>
    <contour>
      <point x="221" y="0" type="line"/>
      <point x="276" y="0" type="line"/>
      <point x="276" y="684" type="line" smooth="yes"/>
      <point x="276" y="875"/>
      <point x="429" y="1049"/>
      <point x="606" y="1049" type="curve" smooth="yes"/>
      <point x="811" y="1049"/>
      <point x="952" y="944"/>
      <point x="952" y="727" type="curve" smooth="yes"/>
      <point x="952" y="0" type="line"/>
      <point x="1006" y="0" type="line"/>
      <point x="1006" y="720" type="line" smooth="yes"/>
      <point x="1006" y="823"/>
      <point x="1132" y="1045"/>
      <point x="1390" y="1049" type="curve" smooth="yes"/>
      <point x="1594" y="1052"/>
      <point x="1686" y="939"/>
      <point x="1686" y="702" type="curve" smooth="yes"/>
      <point x="1686" y="0" type="line"/>
      <point x="1740" y="0" type="line"/>
      <point x="1740" y="706" type="line" smooth="yes"/>
      <point x="1740" y="970"/>
      <point x="1626" y="1102"/>
      <point x="1393" y="1102" type="curve" smooth="yes"/>
      <point x="1214" y="1102"/>
      <point x="1059" y="1002"/>
      <point x="995" y="846" type="curve"/>
      <point x="959" y="1027"/>
      <point x="790" y="1102"/>
      <point x="609" y="1102" type="curve" smooth="yes"/>
      <point x="390" y="1102"/>
      <point x="221" y="920"/>
      <point x="221" y="683" type="curve" smooth="yes"/>
    </contour>
    <contour>
      <point x="1509" y="-267" type="curve" smooth="yes"/>
      <point x="1634" y="-267"/>
      <point x="1731" y="-170"/>
      <point x="1731" y="-46" type="curve" smooth="yes"/>
      <point x="1731" y="79"/>
      <point x="1634" y="181"/>
      <point x="1509" y="181" type="curve" smooth="yes"/>
      <point x="1388" y="181"/>
      <point x="1287" y="84"/>
      <point x="1287" y="-46" type="curve" smooth="yes"/>
      <point x="1287" y="-176"/>
      <point x="1389" y="-267"/>
    </contour>
    <contour>
      <point x="1508" y="-229" type="curve" smooth="yes"/>
      <point x="1406" y="-229"/>
      <point x="1333" y="-158"/>
      <point x="1333" y="-55" type="curve" smooth="yes"/>
      <point x="1333" y="53"/>
      <point x="1406" y="125"/>
      <point x="1508" y="125" type="curve" smooth="yes"/>
      <point x="1610" y="125"/>
      <point x="1683" y="53"/>
      <point x="1683" y="-55" type="curve" smooth="yes"/>
      <point x="1683" y="-158"/>
      <point x="1610" y="-229"/>
    </contour>
  </outline>
</glyph>
<glyph name="phaa-ethiopic" format="2">
  <advance width="1105"/>
  <unicode hex="1333"/>
  <outline>
    <contour>
      <point x="168" y="0" type="line"/>
      <point x="223" y="0" type="line"/>
      <point x="223" y="285" type="line" smooth="yes"/>
      <point x="223" y="403"/>
      <point x="335" y="530"/>
      <point x="544" y="530" type="curve" smooth="yes"/>
      <point x="752" y="530"/>
      <point x="865" y="403"/>
      <point x="865" y="285" type="curve" smooth="yes"/>
      <point x="865" y="0" type="line"/>
      <point x="919" y="0" type="line"/>
      <point x="919" y="292" type="line" smooth="yes"/>
      <point x="919" y="447"/>
      <point x="773" y="515"/>
      <point x="645" y="554" type="curve"/>
      <point x="847" y="610"/>
      <point x="918" y="690"/>
      <point x="918" y="829" type="curve" smooth="yes"/>
      <point x="918" y="988"/>
      <point x="771" y="1102"/>
      <point x="556" y="1102" type="curve" smooth="yes"/>
      <point x="316" y="1102"/>
      <point x="169" y="988"/>
      <point x="169" y="829" type="curve" smooth="yes"/>
      <point x="169" y="690"/>
      <point x="240" y="610"/>
      <point x="442" y="554" type="curve"/>
      <point x="316" y="516"/>
      <point x="168" y="452"/>
      <point x="168" y="292" type="curve" smooth="yes"/>
    </contour>
    <contour>
      <point x="544" y="581" type="curve" smooth="yes"/>
      <point x="376" y="581"/>
      <point x="223" y="672"/>
      <point x="223" y="831" type="curve" smooth="yes"/>
      <point x="223" y="955"/>
      <point x="342" y="1048"/>
      <point x="556" y="1048" type="curve" smooth="yes"/>
      <point x="745" y="1048"/>
      <point x="864" y="955"/>
      <point x="864" y="831" type="curve" smooth="yes"/>
      <point x="864" y="672"/>
      <point x="711" y="581"/>
    </contour>
    <contour>
      <point x="864" y="-372" type="line"/>
      <point x="921" y="-372" type="line"/>
      <point x="921" y="-18" type="line"/>
      <point x="864" y="-18" type="line"/>
    </contour>
    <contour>
      <point x="530" y="1113" type="line"/>
      <point x="590" y="1113" type="line"/>
      <point x="590" y="1379" type="line"/>
      <point x="530" y="1379" type="line"/>
    </contour>
  </outline>
</glyph>
<glyph name="tsu-ethiopic" format="2">
  <advance width="1105"/>
  <unicode hex="1339"/>
  <outline>
    <contour>
      <point x="168" y="0" type="line"/>
      <point x="223" y="0" type="line"/>
      <point x="223" y="285" type="line" smooth="yes"/>
      <point x="223" y="403"/>
      <point x="335" y="530"/>
      <point x="544" y="530" type="curve" smooth="yes"/>
      <point x="752" y="530"/>
      <point x="865" y="403"/>
      <point x="865" y="285" type="curve" smooth="yes"/>
      <point x="865" y="0" type="line"/>
      <point x="919" y="0" type="line"/>
      <point x="919" y="292" type="line" smooth="yes"/>
      <point x="919" y="447"/>
      <point x="773" y="515"/>
      <point x="645" y="554" type="curve"/>
      <point x="847" y="610"/>
      <point x="918" y="690"/>
      <point x="918" y="829" type="curve" smooth="yes"/>
      <point x="918" y="988"/>
      <point x="771" y="1102"/>
      <point x="556" y="1102" type="curve" smooth="yes"/>
      <point x="316" y="1102"/>
      <point x="169" y="988"/>
      <point x="169" y="829" type="curve" smooth="yes"/>
      <point x="169" y="690"/>
      <point x="240" y="610"/>
      <point x="442" y="554" type="curve"/>
      <point x="316" y="516"/>
      <point x="168" y="452"/>
      <point x="168" y="292" type="curve" smooth="yes"/>
    </contour>
    <contour>
      <point x="544" y="581" type="curve" smooth="yes"/>
      <point x="376" y="581"/>
      <point x="223" y="672"/>
      <point x="223" y="831" type="curve" smooth="yes"/>
      <point x="223" y="955"/>
      <point x="342" y="1048"/>
      <point x="556" y="1048" type="curve" smooth="yes"/>
      <point x="745" y="1048"/>
      <point x="864" y="955"/>
      <point x="864" y="831" type="curve" smooth="yes"/>
      <point x="864" y="672"/>
      <point x="711" y="581"/>
    </contour>
    <contour>
      <point x="935" y="414" type="curve" smooth="yes"/>
      <point x="966" y="414"/>
      <point x="991" y="438"/>
      <point x="991" y="469" type="curve" smooth="yes"/>
      <point x="991" y="500"/>
      <point x="966" y="525"/>
      <point x="935" y="525" type="curve" smooth="yes"/>
      <point x="904" y="525"/>
      <point x="880" y="500"/>
      <point x="880" y="469" type="curve" smooth="yes"/>
      <point x="880" y="438"/>
      <point x="904" y="414"/>
    </contour>
  </outline>
</glyph>
<glyph name="tsee-ethiopic" format="2">
  <advance width="1105"/>
  <unicode hex="133C"/>
  <outline>
    <contour>
      <point x="168" y="0" type="line"/>
      <point x="223" y="0" type="line"/>
      <point x="223" y="285" type="line" smooth="yes"/>
      <point x="223" y="403"/>
      <point x="335" y="530"/>
      <point x="544" y="530" type="curve" smooth="yes"/>
      <point x="752" y="530"/>
      <point x="865" y="403"/>
      <point x="865" y="285" type="curve" smooth="yes"/>
      <point x="865" y="0" type="line"/>
      <point x="919" y="0" type="line"/>
      <point x="919" y="292" type="line" smooth="yes"/>
      <point x="919" y="447"/>
      <point x="773" y="515"/>
      <point x="645" y="554" type="curve"/>
      <point x="847" y="610"/>
      <point x="918" y="690"/>
      <point x="918" y="829" type="curve" smooth="yes"/>
      <point x="918" y="988"/>
      <point x="771" y="1102"/>
      <point x="556" y="1102" type="curve" smooth="yes"/>
      <point x="316" y="1102"/>
      <point x="169" y="988"/>
      <point x="169" y="829" type="curve" smooth="yes"/>
      <point x="169" y="690"/>
      <point x="240" y="610"/>
      <point x="442" y="554" type="curve"/>
      <point x="316" y="516"/>
      <point x="168" y="452"/>
      <point x="168" y="292" type="curve" smooth="yes"/>
    </contour>
    <contour>
      <point x="544" y="581" type="curve" smooth="yes"/>
      <point x="376" y="581"/>
      <point x="223" y="672"/>
      <point x="223" y="831" type="curve" smooth="yes"/>
      <point x="223" y="955"/>
      <point x="342" y="1048"/>
      <point x="556" y="1048" type="curve" smooth="yes"/>
      <point x="745" y="1048"/>
      <point x="864" y="955"/>
      <point x="864" y="831" type="curve" smooth="yes"/>
      <point x="864" y="672"/>
      <point x="711" y="581"/>
    </contour>
    <contour>
      <point x="734" y="-337" type="curve" smooth="yes"/>
      <point x="859" y="-337"/>
      <point x="956" y="-240"/>
      <point x="956" y="-116" type="curve" smooth="yes"/>
      <point x="956" y="9"/>
      <point x="859" y="111"/>
      <point x="734" y="111" type="curve" smooth="yes"/>
      <point x="613" y="111"/>
      <point x="512" y="14"/>
      <point x="512" y="-116" type="curve" smooth="yes"/>
      <point x="512" y="-246"/>
      <point x="614" y="-337"/>
    </contour>
    <contour>
      <point x="733" y="-299" type="curve" smooth="yes"/>
      <point x="631" y="-299"/>
      <point x="558" y="-228"/>
      <point x="558" y="-125" type="curve" smooth="yes"/>
      <point x="558" y="-17"/>
      <point x="631" y="55"/>
      <point x="733" y="55" type="curve" smooth="yes"/>
      <point x="835" y="55"/>
      <point x="908" y="-17"/>
      <point x="908" y="-125" type="curve" smooth="yes"/>
      <point x="908" y="-228"/>
      <point x="835" y="-299"/>
    </contour>
  </outline>
</glyph>
<glyph name="fu-ethiopic" format="2">
  <advance width="1157"/>
  <unicode hex="1349"/>
  <outline>
    <contour>
      <point x="627" y="-20" type="curve" smooth="yes"/>
      <point x="829" y="-20"/>
      <point x="1030" y="155"/>
      <point x="1067" y="276" type="curve"/>
      <point x="1006" y="276" type="line"/>
      <point x="987" y="188"/>
      <point x="799" y="34"/>
      <point x="607" y="34" type="curve" smooth="yes"/>
      <point x="336" y="34"/>
      <point x="300" y="270"/>
      <point x="300" y="517" type="curve" smooth="yes"/>
      <point x="300" y="1082" type="line"/>
      <point x="245" y="1082" type="line"/>
      <point x="245" y="524" type="line" smooth="yes"/>
      <point x="245" y="187"/>
      <point x="334" y="-20"/>
    </contour>
    <contour>
      <point x="663" y="32" type="line"/>
      <point x="663" y="552" type="line"/>
      <point x="456" y="552" type="line"/>
      <point x="456" y="499" type="line"/>
      <point x="606" y="499" type="line"/>
      <point x="606" y="32" type="line"/>
    </contour>
    <contour>
      <point x="515" y="-344" type="line"/>
      <point x="575" y="-344" type="line"/>
      <point x="770" y="-78" type="line"/>
      <point x="704" y="-78" type="line"/>
    </contour>
  </outline>
</glyph>
<glyph name="fi-ethiopic" format="2">
  <advance width="1157"/>
  <unicode hex="134A"/>
  <outline>
    <contour>
      <point x="627" y="-20" type="curve" smooth="yes"/>
      <point x="829" y="-20"/>
      <point x="1030" y="155"/>
      <point x="1067" y="276" type="curve"/>
      <point x="1006" y="276" type="line"/>
      <point x="987" y="188"/>
      <point x="799" y="34"/>
      <point x="607" y="34" type="curve" smooth="yes"/>
      <point x="336" y="34"/>
      <point x="300" y="270"/>
      <point x="300" y="517" type="curve" smooth="yes"/>
      <point x="300" y="1082" type="line"/>
      <point x="245" y="1082" type="line"/>
      <point x="245" y="524" type="line" smooth="yes"/>
      <point x="245" y="187"/>
      <point x="334" y="-20"/>
    </contour>
    <contour>
      <point x="663" y="32" type="line"/>
      <point x="663" y="552" type="line"/>
      <point x="456" y="552" type="line"/>
      <point x="456" y="499" type="line"/>
      <point x="606" y="499" type="line"/>
      <point x="606" y="32" type="line"/>
    </contour>
    <contour>
      <point x="1055" y="294" type="line"/>
      <point x="1055" y="560" type="line"/>
      <point x="888" y="560" type="line"/>
      <point x="888" y="512" type="line"/>
      <point x="1005" y="512" type="line"/>
      <point x="1005" y="294" type="line"/>
    </contour>
  </outline>
</glyph>
<glyph name="fee-ethiopic" format="2">
  <advance width="1157"/>
  <unicode hex="134C"/>
  <outline>
    <contour>
      <point x="627" y="-20" type="curve" smooth="yes"/>
      <point x="829" y="-20"/>
      <point x="1030" y="155"/>
      <point x="1067" y="276" type="curve"/>
      <point x="1006" y="276" type="line"/>
      <point x="987" y="188"/>
      <point x="799" y="34"/>
      <point x="607" y="34" type="curve" smooth="yes"/>
      <point x="336" y="34"/>
      <point x="300" y="270"/>
      <point x="300" y="517" type="curve" smooth="yes"/>
      <point x="300" y="1082" type="line"/>
      <point x="245" y="1082" type="line"/>
      <point x="245" y="524" type="line" smooth="yes"/>
      <point x="245" y="187"/>
      <point x="334" y="-20"/>
    </contour>
    <contour>
      <point x="663" y="32" type="line"/>
      <point x="663" y="552" type="line"/>
      <point x="456" y="552" type="line"/>
      <point x="456" y="499" type="line"/>
      <point x="606" y="499" type="line"/>
      <point x="606" y="32" type="line"/>
    </contour>
    <contour>
      <point x="952" y="283" type="curve" smooth="yes"/>
      <point x="1077" y="283"/>
      <point x="1174" y="380"/>
      <point x="1174" y="504" type="curve" smooth="yes"/>
      <point x="1174" y="629"/>
      <point x="1077" y="731"/>
      <point x="952" y="731" type="curve" smooth="yes"/>
      <point x="831" y="731"/>
      <point x="730" y="634"/>
      <point x="730" y="504" type="curve" smooth="yes"/>
      <point x="730" y="374"/>
      <point x="832" y="283"/>
    </contour>
    <contour>
      <point x="951" y="321" type="curve" smooth="yes"/>
      <point x="849" y="321"/>
      <point x="776" y="392"/>
      <point x="776" y="495" type="curve" smooth="yes"/>
      <point x="776" y="603"/>
      <point x="849" y="675"/>
      <point x="951" y="675" type="curve" smooth="yes"/>
      <point x="1053" y="675"/>
      <point x="1126" y="603"/>
      <point x="1126" y="495" type="curve" smooth="yes"/>
      <point x="1126" y="392"/>
      <point x="1053" y="321"/>
    </contour>
  </outline>
</glyph>
<glyph name="fo-ethiopic" format="2">
  <advance width="1157"/>
  <unicode hex="134E"/>
  <outline>
    <contour>
      <point x="627" y="-20" type="curve" smooth="yes"/>
      <point x="829" y="-20"/>
      <point x="1030" y="155"/>
      <point x="1067" y="276" type="curve"/>
      <point x="1006" y="276" type="line"/>
      <point x="987" y="188"/>
      <point x="799" y="34"/>
      <point x="607" y="34" type="curve" smooth="yes"/>
      <point x="336" y="34"/>
      <point x="300" y="270"/>
      <point x="300" y="517" type="curve" smooth="yes"/>
      <point x="300" y="1082" type="line"/>
      <point x="245" y="1082" type="line"/>
      <point x="245" y="524" type="line" smooth="yes"/>
      <point x="245" y="187"/>
      <point x="334" y="-20"/>
    </contour>
    <contour>
      <point x="663" y="32" type="line"/>
      <point x="663" y="552" type="line"/>
      <point x="456" y="552" type="line"/>
      <point x="456" y="499" type="line"/>
      <point x="606" y="499" type="line"/>
      <point x="606" y="32" type="line"/>
    </contour>
    <contour>
      <point x="691" y="752" type="curve" smooth="yes"/>
      <point x="816" y="752"/>
      <point x="913" y="849"/>
      <point x="913" y="973" type="curve" smooth="yes"/>
      <point x="913" y="1098"/>
      <point x="816" y="1200"/>
      <point x="691" y="1200" type="curve" smooth="yes"/>
      <point x="570" y="1200"/>
      <point x="469" y="1103"/>
      <point x="469" y="973" type="curve" smooth="yes"/>
      <point x="469" y="843"/>
      <point x="571" y="752"/>
    </contour>
    <contour>
      <point x="690" y="790" type="curve" smooth="yes"/>
      <point x="588" y="790"/>
      <point x="515" y="861"/>
      <point x="515" y="964" type="curve" smooth="yes"/>
      <point x="515" y="1072"/>
      <point x="588" y="1144"/>
      <point x="690" y="1144" type="curve" smooth="yes"/>
      <point x="792" y="1144"/>
      <point x="865" y="1072"/>
      <point x="865" y="964" type="curve" smooth="yes"/>
      <point x="865" y="861"/>
      <point x="792" y="790"/>
    </contour>
  </outline>
</glyph>
<glyph name="fwa-ethiopic" format="2">
  <advance width="1157"/>
  <unicode hex="134F"/>
  <outline>
    <contour>
      <point x="627" y="-20" type="curve" smooth="yes"/>
      <point x="829" y="-20"/>
      <point x="1030" y="155"/>
      <point x="1067" y="276" type="curve"/>
      <point x="1006" y="276" type="line"/>
      <point x="987" y="188"/>
      <point x="799" y="34"/>
      <point x="607" y="34" type="curve" smooth="yes"/>
      <point x="336" y="34"/>
      <point x="300" y="270"/>
      <point x="300" y="517" type="curve" smooth="yes"/>
      <point x="300" y="1082" type="line"/>
      <point x="245" y="1082" type="line"/>
      <point x="245" y="524" type="line" smooth="yes"/>
      <point x="245" y="187"/>
      <point x="334" y="-20"/>
    </contour>
    <contour>
      <point x="663" y="32" type="line"/>
      <point x="663" y="552" type="line"/>
      <point x="456" y="552" type="line"/>
      <point x="456" y="499" type="line"/>
      <point x="606" y="499" type="line"/>
      <point x="606" y="32" type="line"/>
    </contour>
    <contour>
      <point x="246" y="1048" type="line"/>
      <point x="761" y="1048" type="line"/>
      <point x="761" y="1092" type="line"/>
      <point x="246" y="1092" type="line"/>
    </contour>
    <component base="_smart.hwa" xOffset="696" yOffset="-364"/>
  </outline>
</glyph>
<glyph name="pa-ethiopic" format="2">
  <advance width="735"/>
  <unicode hex="1350"/>
  <outline>
    <contour>
      <point x="353" y="0" type="line"/>
      <point x="353" y="1027" type="line"/>
      <point x="599" y="1027" type="line"/>
      <point x="599" y="1082" type="line"/>
      <point x="98" y="1082" type="line"/>
      <point x="98" y="1027" type="line"/>
      <point x="298" y="1027" type="line"/>
      <point x="298" y="0" type="line"/>
    </contour>
  </outline>
</glyph>
<glyph name="pi-ethiopic" format="2">
  <advance width="735"/>
  <unicode hex="1352"/>
  <outline>
    <contour>
      <point x="353" y="0" type="line"/>
      <point x="353" y="1027" type="line"/>
      <point x="599" y="1027" type="line"/>
      <point x="599" y="1082" type="line"/>
      <point x="98" y="1082" type="line"/>
      <point x="98" y="1027" type="line"/>
      <point x="298" y="1027" type="line"/>
      <point x="298" y="0" type="line"/>
    </contour>
    <contour>
      <point x="440" y="-5" type="curve" smooth="yes"/>
      <point x="471" y="-5"/>
      <point x="496" y="19"/>
      <point x="496" y="50" type="curve" smooth="yes"/>
      <point x="496" y="81"/>
      <point x="471" y="106"/>
      <point x="440" y="106" type="curve" smooth="yes"/>
      <point x="409" y="106"/>
      <point x="385" y="81"/>
      <point x="385" y="50" type="curve" smooth="yes"/>
      <point x="385" y="19"/>
      <point x="409" y="-5"/>
    </contour>
  </outline>
</glyph>
<glyph name="paa-ethiopic" format="2">
  <advance width="742"/>
  <unicode hex="1353"/>
  <outline>
    <contour>
      <point x="98" y="0" type="line"/>
      <point x="355" y="0" type="line"/>
      <point x="355" y="45" type="line"/>
      <point x="98" y="45" type="line"/>
    </contour>
    <contour>
      <point x="360" y="0" type="line"/>
      <point x="360" y="1027" type="line"/>
      <point x="606" y="1027" type="line"/>
      <point x="606" y="1082" type="line"/>
      <point x="105" y="1082" type="line"/>
      <point x="105" y="1027" type="line"/>
      <point x="305" y="1027" type="line"/>
      <point x="305" y="0" type="line"/>
    </contour>
  </outline>
</glyph>
<glyph name="pee-ethiopic" format="2">
  <advance width="735"/>
  <unicode hex="1354"/>
  <outline>
    <contour>
      <point x="353" y="0" type="line"/>
      <point x="353" y="1027" type="line"/>
      <point x="599" y="1027" type="line"/>
      <point x="599" y="1082" type="line"/>
      <point x="98" y="1082" type="line"/>
      <point x="98" y="1027" type="line"/>
      <point x="298" y="1027" type="line"/>
      <point x="298" y="0" type="line"/>
    </contour>
    <contour>
      <point x="312" y="-407" type="curve" smooth="yes"/>
      <point x="437" y="-407"/>
      <point x="534" y="-310"/>
      <point x="534" y="-186" type="curve" smooth="yes"/>
      <point x="534" y="-61"/>
      <point x="437" y="41"/>
      <point x="312" y="41" type="curve" smooth="yes"/>
      <point x="191" y="41"/>
      <point x="90" y="-56"/>
      <point x="90" y="-186" type="curve" smooth="yes"/>
      <point x="90" y="-316"/>
      <point x="192" y="-407"/>
    </contour>
    <contour>
      <point x="311" y="-369" type="curve" smooth="yes"/>
      <point x="209" y="-369"/>
      <point x="136" y="-298"/>
      <point x="136" y="-195" type="curve" smooth="yes"/>
      <point x="136" y="-87"/>
      <point x="209" y="-15"/>
      <point x="311" y="-15" type="curve" smooth="yes"/>
      <point x="413" y="-15"/>
      <point x="486" y="-87"/>
      <point x="486" y="-195" type="curve" smooth="yes"/>
      <point x="486" y="-298"/>
      <point x="413" y="-369"/>
    </contour>
  </outline>
</glyph>
<glyph name="pe-ethiopic" format="2">
  <advance width="735"/>
  <unicode hex="1355"/>
  <outline>
    <contour>
      <point x="353" y="0" type="line"/>
      <point x="353" y="1027" type="line"/>
      <point x="599" y="1027" type="line"/>
      <point x="599" y="1082" type="line"/>
      <point x="98" y="1082" type="line"/>
      <point x="98" y="1027" type="line"/>
      <point x="298" y="1027" type="line"/>
      <point x="298" y="0" type="line"/>
    </contour>
    <contour>
      <point x="423" y="-314" type="line"/>
      <point x="480" y="-314" type="line"/>
      <point x="480" y="40" type="line"/>
      <point x="423" y="40" type="line"/>
    </contour>
  </outline>
</glyph>
<glyph name="po-ethiopic" format="2">
  <advance width="735"/>
  <unicode hex="1356"/>
  <outline>
    <contour>
      <point x="353" y="0" type="line"/>
      <point x="353" y="1027" type="line"/>
      <point x="599" y="1027" type="line"/>
      <point x="599" y="1082" type="line"/>
      <point x="98" y="1082" type="line"/>
      <point x="98" y="1027" type="line"/>
      <point x="298" y="1027" type="line"/>
      <point x="298" y="0" type="line"/>
    </contour>
    <contour>
      <point x="99" y="-272" type="line"/>
      <point x="159" y="-272" type="line"/>
      <point x="354" y="-6" type="line"/>
      <point x="288" y="-6" type="line"/>
    </contour>
  </outline>
</glyph>
<glyph name="comma-ethiopic" format="2">
  <advance width="556"/>
  <unicode hex="1363"/>
  <outline>
    <contour>
      <point x="128" y="1382" type="line"/>
      <point x="447" y="1382" type="line"/>
      <point x="447" y="1439" type="line"/>
      <point x="128" y="1439" type="line"/>
    </contour>
    <component base="period" xOffset="20" yOffset="100"/>
    <component base="period" xOffset="21" yOffset="983"/>
  </outline>
</glyph>
<glyph name="question-ethiopic" format="2">
  <advance width="556"/>
  <unicode hex="1367"/>
  <outline>
    <contour>
      <point x="242" y="555" type="curve" smooth="yes"/>
      <point x="273" y="555"/>
      <point x="298" y="579"/>
      <point x="298" y="610" type="curve" smooth="yes"/>
      <point x="298" y="641"/>
      <point x="273" y="666"/>
      <point x="242" y="666" type="curve" smooth="yes"/>
      <point x="211" y="666"/>
      <point x="187" y="641"/>
      <point x="187" y="610" type="curve" smooth="yes"/>
      <point x="187" y="579"/>
      <point x="211" y="555"/>
    </contour>
    <component base="period" xOffset="90" yOffset="20"/>
    <component base="period" xOffset="81" yOffset="903"/>
  </outline>
</glyph>
<glyph name="paragraphseparator-ethiopic" format="2">
  <advance width="1337"/>
  <unicode hex="1368"/>
  <outline>
    <contour>
      <point x="1001" y="723" type="curve" smooth="yes"/>
      <point x="1028" y="738"/>
      <point x="1037" y="773"/>
      <point x="1022" y="800" type="curve" smooth="yes"/>
      <point x="1007" y="826"/>
      <point x="972" y="835"/>
      <point x="946" y="819" type="curve" smooth="yes"/>
      <point x="919" y="804"/>
      <point x="910" y="771"/>
      <point x="926" y="744" type="curve" smooth="yes"/>
      <point x="941" y="718"/>
      <point x="975" y="708"/>
    </contour>
    <contour>
      <point x="236" y="283" type="curve" smooth="yes"/>
      <point x="263" y="298"/>
      <point x="272" y="333"/>
      <point x="257" y="360" type="curve" smooth="yes"/>
      <point x="242" y="386"/>
      <point x="207" y="395"/>
      <point x="181" y="379" type="curve" smooth="yes"/>
      <point x="154" y="364"/>
      <point x="145" y="331"/>
      <point x="161" y="304" type="curve" smooth="yes"/>
      <point x="176" y="278"/>
      <point x="210" y="268"/>
    </contour>
    <contour>
      <point x="608" y="-6" type="curve" smooth="yes"/>
      <point x="639" y="-6"/>
      <point x="664" y="18"/>
      <point x="664" y="49" type="curve" smooth="yes"/>
      <point x="664" y="80"/>
      <point x="639" y="105"/>
      <point x="608" y="105" type="curve" smooth="yes"/>
      <point x="577" y="105"/>
      <point x="553" y="80"/>
      <point x="553" y="49" type="curve" smooth="yes"/>
      <point x="553" y="18"/>
      <point x="577" y="-6"/>
    </contour>
    <contour>
      <point x="214" y="705" type="curve" smooth="yes"/>
      <point x="243" y="695"/>
      <point x="276" y="711"/>
      <point x="286" y="740" type="curve" smooth="yes"/>
      <point x="295" y="769"/>
      <point x="279" y="800"/>
      <point x="250" y="810" type="curve" smooth="yes"/>
      <point x="221" y="820"/>
      <point x="191" y="805"/>
      <point x="181" y="776" type="curve" smooth="yes"/>
      <point x="171" y="747"/>
      <point x="185" y="715"/>
    </contour>
    <contour>
      <point x="607" y="479" type="curve" smooth="yes"/>
      <point x="638" y="479"/>
      <point x="663" y="503"/>
      <point x="663" y="534" type="curve" smooth="yes"/>
      <point x="663" y="565"/>
      <point x="638" y="590"/>
      <point x="607" y="590" type="curve" smooth="yes"/>
      <point x="576" y="590"/>
      <point x="552" y="565"/>
      <point x="552" y="534" type="curve" smooth="yes"/>
      <point x="552" y="503"/>
      <point x="576" y="479"/>
    </contour>
    <contour>
      <point x="1049" y="417" type="curve" smooth="yes"/>
      <point x="1078" y="407"/>
      <point x="1111" y="423"/>
      <point x="1121" y="452" type="curve" smooth="yes"/>
      <point x="1130" y="481"/>
      <point x="1114" y="512"/>
      <point x="1085" y="522" type="curve" smooth="yes"/>
      <point x="1056" y="532"/>
      <point x="1026" y="517"/>
      <point x="1016" y="488" type="curve" smooth="yes"/>
      <point x="1006" y="459"/>
      <point x="1020" y="427"/>
    </contour>
    <contour>
      <point x="609" y="877" type="curve" smooth="yes"/>
      <point x="640" y="877"/>
      <point x="665" y="901"/>
      <point x="665" y="932" type="curve" smooth="yes"/>
      <point x="665" y="963"/>
      <point x="640" y="988"/>
      <point x="609" y="988" type="curve" smooth="yes"/>
      <point x="578" y="988"/>
      <point x="554" y="963"/>
      <point x="554" y="932" type="curve" smooth="yes"/>
      <point x="554" y="901"/>
      <point x="578" y="877"/>
    </contour>
  </outline>
</glyph>
<glyph name="thirty-ethiopic" format="2">
  <advance width="1423"/>
  <unicode hex="1374"/>
  <outline>
    <contour>
      <point x="249" y="-1" type="line"/>
      <point x="313" y="-1" type="line"/>
      <point x="306" y="828" type="line" smooth="yes"/>
      <point x="302" y="1323"/>
      <point x="339" y="1405"/>
      <point x="480" y="1404" type="curve" smooth="yes"/>
      <point x="588" y="1403"/>
      <point x="622" y="1368"/>
      <point x="622" y="714" type="curve" smooth="yes"/>
      <point x="622" y="38"/>
      <point x="685" y="-4"/>
      <point x="918" y="-1" type="curve" smooth="yes"/>
      <point x="1058" y="1"/>
      <point x="1101" y="91"/>
      <point x="1101" y="632" type="curve" smooth="yes"/>
      <point x="1101" y="1456" type="line"/>
      <point x="1046" y="1456" type="line"/>
      <point x="1046" y="587" type="line" smooth="yes"/>
      <point x="1046" y="161"/>
      <point x="1000" y="51"/>
      <point x="896" y="51" type="curve" smooth="yes"/>
      <point x="738" y="51"/>
      <point x="686" y="83"/>
      <point x="687" y="714" type="curve" smooth="yes"/>
      <point x="688" y="1339"/>
      <point x="719" y="1456"/>
      <point x="466" y="1456" type="curve" smooth="yes"/>
      <point x="267" y="1456"/>
      <point x="249" y="1371"/>
      <point x="249" y="823" type="curve" smooth="yes"/>
    </contour>
    <component base="_num.bar" xOffset="103"/>
  </outline>
</glyph>
<glyph name="bullet" format="2">
  <advance width="635"/>
  <unicode hex="2022"/>
  <note>
uni2022
</note>
  <outline>
    <contour>
      <point x="322" y="545" type="curve" smooth="yes"/>
      <point x="419.333" y="545"/>
      <point x="489" y="608.333"/>
      <point x="489" y="703" type="curve" smooth="yes"/>
      <point x="489" y="730" type="line" smooth="yes"/>
      <point x="489" y="830"/>
      <point x="421" y="893"/>
      <point x="321" y="893" type="curve" smooth="yes"/>
      <point x="221" y="893"/>
      <point x="155" y="827.667"/>
      <point x="155" y="733" type="curve" smooth="yes"/>
      <point x="155" y="701" type="line" smooth="yes"/>
      <point x="156.333" y="606.333"/>
      <point x="226" y="545"/>
    </contour>
  </outline>
</glyph>
<glyph name="guilsinglleft" format="2">
  <advance width="604"/>
  <unicode hex="2039"/>
  <note>
uni2039
</note>
  <outline>
    <contour>
      <point x="403" y="181" type="line"/>
      <point x="473" y="181" type="line"/>
      <point x="179" y="560" type="line"/>
      <point x="473" y="940" type="line"/>
      <point x="403" y="940" type="line"/>
      <point x="108" y="570" type="line"/>
      <point x="108" y="551" type="line"/>
    </contour>
  </outline>
</glyph>
<glyph name="radical" format="2">
  <advance width="1016"/>
  <unicode hex="221A"/>
  <note>
uni221A
</note>
  <outline>
    <contour>
      <point x="427" y="1" type="line"/>
      <point x="479" y="0" type="line"/>
      <point x="938" y="1456" type="line"/>
      <point x="880" y="1456" type="line"/>
      <point x="452" y="80" type="line"/>
      <point x="228" y="705" type="line"/>
      <point x="65" y="705" type="line"/>
      <point x="65" y="651" type="line"/>
      <point x="189" y="651" type="line"/>
    </contour>
  </outline>
</glyph>
<glyph name="approxequal" format="2">
  <advance width="1154"/>
  <unicode hex="2248"/>
  <note>
uni2248
</note>
  <outline>
    <contour>
      <point x="806" y="765" type="curve" smooth="yes"/>
      <point x="895" y="765"/>
      <point x="974" y="823.667"/>
      <point x="1042" y="921" type="curve"/>
      <point x="1035" y="987" type="line"/>
      <point x="965.667" y="887"/>
      <point x="888" y="827"/>
      <point x="803" y="827" type="curve" smooth="yes"/>
      <point x="752" y="827"/>
      <point x="702" y="847"/>
      <point x="656" y="871" type="curve" smooth="yes"/>
      <point x="503" y="950" type="line" smooth="yes"/>
      <point x="455" y="975"/>
      <point x="402" y="984"/>
      <point x="347" y="983" type="curve" smooth="yes"/>
      <point x="258" y="983"/>
      <point x="179" y="934"/>
      <point x="101" y="837" type="curve"/>
      <point x="101" y="771" type="line"/>
      <point x="187" y="871"/>
      <point x="265" y="921"/>
      <point x="350" y="921" type="curve" smooth="yes"/>
      <point x="403" y="922"/>
      <point x="454" y="914"/>
      <point x="502" y="889" type="curve" smooth="yes"/>
      <point x="662" y="806" type="line" smooth="yes"/>
      <point x="705" y="784"/>
      <point x="754" y="765"/>
    </contour>
    <contour>
      <point x="795" y="377" type="curve" smooth="yes"/>
      <point x="884" y="377"/>
      <point x="963" y="435.667"/>
      <point x="1031" y="533" type="curve"/>
      <point x="1025" y="597" type="line"/>
      <point x="955.667" y="497"/>
      <point x="878" y="437"/>
      <point x="793" y="437" type="curve" smooth="yes"/>
      <point x="742" y="437"/>
      <point x="692" y="457"/>
      <point x="646" y="481" type="curve" smooth="yes"/>
      <point x="493" y="560" type="line" smooth="yes"/>
      <point x="445" y="585"/>
      <point x="392" y="594"/>
      <point x="337" y="593" type="curve" smooth="yes"/>
      <point x="248" y="593"/>
      <point x="169" y="544"/>
      <point x="101" y="447" type="curve"/>
      <point x="101" y="383" type="line"/>
      <point x="176" y="483"/>
      <point x="254" y="533"/>
      <point x="339" y="533" type="curve" smooth="yes"/>
      <point x="392" y="534"/>
      <point x="443" y="526"/>
      <point x="491" y="501" type="curve" smooth="yes"/>
      <point x="651" y="418" type="line" smooth="yes"/>
      <point x="694" y="396"/>
      <point x="743" y="377"/>
    </contour>
  </outline>
</glyph>
<glyph name="_smart.aGlhat" format="2">
  <anchor x="198" y="1242" name="_aGlhat"/>
  <outline>
    <contour>
      <point x="226" y="1270" type="line"/>
      <point x="37" y="1536" type="line"/>
      <point x="-29" y="1536" type="line"/>
      <point x="166" y="1270" type="line"/>
    </contour>
  </outline>
</glyph>
<glyph name="_smart.cha.caps" format="2">
  <anchor x="-5" y="34" name="_cha.caps"/>
  <outline>
    <contour>
      <point x="-385" y="5" type="curve" smooth="yes"/>
      <point x="-354" y="5"/>
      <point x="-329" y="29"/>
      <point x="-329" y="60" type="curve" smooth="yes"/>
      <point x="-329" y="91"/>
      <point x="-354" y="116"/>
      <point x="-385" y="116" type="curve" smooth="yes"/>
      <point x="-416" y="116"/>
      <point x="-440" y="91"/>
      <point x="-440" y="60" type="curve" smooth="yes"/>
      <point x="-440" y="29"/>
      <point x="-416" y="5"/>
    </contour>
    <contour>
      <point x="637" y="5" type="curve" smooth="yes"/>
      <point x="668" y="5"/>
      <point x="693" y="29"/>
      <point x="693" y="60" type="curve" smooth="yes"/>
      <point x="693" y="91"/>
      <point x="668" y="116"/>
      <point x="637" y="116" type="curve" smooth="yes"/>
      <point x="606" y="116"/>
      <point x="582" y="91"/>
      <point x="582" y="60" type="curve" smooth="yes"/>
      <point x="582" y="29"/>
      <point x="606" y="5"/>
    </contour>
  </outline>
</glyph>
<glyph name="_smart.da" format="2">
  <anchor x="-66" y="156" name="_da"/>
  <outline>
    <contour>
      <point x="-129" y="99" type="line"/>
      <point x="621" y="99" type="line"/>
      <point x="621" y="153" type="line"/>
      <point x="-129" y="153" type="line"/>
    </contour>
  </outline>
</glyph>
<glyph name="_smart.hi" format="2">
  <anchor x="1" y="127" name="_hi"/>
  <outline>
    <contour>
      <point x="56" y="72" type="curve" smooth="yes"/>
      <point x="87" y="72"/>
      <point x="112" y="96"/>
      <point x="112" y="127" type="curve" smooth="yes"/>
      <point x="112" y="158"/>
      <point x="87" y="183"/>
      <point x="56" y="183" type="curve" smooth="yes"/>
      <point x="25" y="183"/>
      <point x="1" y="158"/>
      <point x="1" y="127" type="curve" smooth="yes"/>
      <point x="1" y="96"/>
      <point x="25" y="72"/>
    </contour>
  </outline>
</glyph>
<glyph name="_smart.ho.ring.uniq" format="2">
  <anchor x="-944" y="133" name="_ho.ring.uniq"/>
  <outline>
    <contour>
      <point x="-803" y="-334" type="curve" smooth="yes"/>
      <point x="-686" y="-334"/>
      <point x="-585" y="-245"/>
      <point x="-585" y="-118" type="curve" smooth="yes"/>
      <point x="-585" y="10"/>
      <point x="-684" y="104"/>
      <point x="-803" y="104" type="curve" smooth="yes"/>
      <point x="-925" y="104"/>
      <point x="-1021" y="5"/>
      <point x="-1021" y="-118" type="curve" smooth="yes"/>
      <point x="-1021" y="-240"/>
      <point x="-925" y="-334"/>
    </contour>
    <contour>
      <point x="-803" y="-278" type="curve" smooth="yes"/>
      <point x="-897" y="-278"/>
      <point x="-965" y="-213"/>
      <point x="-965" y="-118" type="curve" smooth="yes"/>
      <point x="-965" y="-18"/>
      <point x="-897" y="48"/>
      <point x="-803" y="48" type="curve" smooth="yes"/>
      <point x="-709" y="48"/>
      <point x="-641" y="-18"/>
      <point x="-641" y="-118" type="curve" smooth="yes"/>
      <point x="-641" y="-213"/>
      <point x="-709" y="-278"/>
    </contour>
  </outline>
</glyph>
<glyph name="_smart.hu" format="2">
  <anchor x="-4" y="967" name="_hu"/>
  <outline>
    <contour>
      <point x="51" y="922" type="curve" smooth="yes"/>
      <point x="82" y="922"/>
      <point x="107" y="946"/>
      <point x="107" y="977" type="curve" smooth="yes"/>
      <point x="107" y="1008"/>
      <point x="82" y="1033"/>
      <point x="51" y="1033" type="curve" smooth="yes"/>
      <point x="20" y="1033"/>
      <point x="-4" y="1008"/>
      <point x="-4" y="977" type="curve" smooth="yes"/>
      <point x="-4" y="946"/>
      <point x="20" y="922"/>
    </contour>
  </outline>
</glyph>
<glyph name="_smart.ka.caps" format="2">
  <anchor x="-758" y="1456" name="_ka.caps"/>
  <outline>
    <contour>
      <point x="-865" y="1386" type="line"/>
      <point x="-774" y="1436" type="line"/>
      <point x="-1180" y="1436" type="line"/>
      <point x="-1180" y="1654" type="line"/>
      <point x="-1255" y="1654" type="line"/>
      <point x="-1255" y="1386" type="line"/>
    </contour>
  </outline>
</glyph>
<glyph name="_smart.ka" format="2">
  <anchor x="-620" y="1035" name="_ka"/>
  <outline>
    <contour>
      <point x="-695" y="1056" type="line"/>
      <point x="-604" y="1099" type="line"/>
      <point x="-1021" y="1099" type="line"/>
      <point x="-1021" y="1324" type="line"/>
      <point x="-1085" y="1324" type="line"/>
      <point x="-1085" y="1056" type="line"/>
    </contour>
  </outline>
</glyph>
<glyph name="_smart.neck.caps" format="2">
  <anchor x="-15" y="1439" name="_neck.caps"/>
  <outline>
    <contour>
      <point x="-49" y="1456" type="line"/>
      <point x="18" y="1456" type="line"/>
      <point x="18" y="1713" type="line"/>
      <point x="-49" y="1713" type="line"/>
    </contour>
  </outline>
</glyph>
<glyph name="_smart.tsa.belt" format="2">
  <anchor x="-7" y="602" name="_tsa.belt"/>
  <outline>
    <contour>
      <point x="-431" y="501" type="line"/>
      <point x="374" y="501" type="line"/>
      <point x="374" y="555" type="line"/>
      <point x="-431" y="555" type="line"/>
    </contour>
  </outline>
</glyph>
<glyph name="_smart.ye" format="2">
  <advance width="912"/>
  <anchor x="334.498" y="44" name="_ye"/>
  <outline>
    <contour>
      <point x="-20" y="-123" type="curve"/>
      <point x="35" y="-123" type="line"/>
      <point x="35" y="-47"/>
      <point x="81" y="2"/>
      <point x="156" y="2" type="curve" smooth="yes"/>
      <point x="267" y="2"/>
      <point x="415" y="7"/>
      <point x="553" y="7" type="curve" smooth="yes"/>
      <point x="783" y="7"/>
      <point x="799" y="255"/>
      <point x="799" y="364" type="curve"/>
      <point x="744" y="364" type="line"/>
      <point x="744" y="285"/>
      <point x="755" y="62"/>
      <point x="553" y="62" type="curve" smooth="yes"/>
      <point x="447" y="62"/>
      <point x="290" y="56"/>
      <point x="156" y="56" type="curve" smooth="yes"/>
      <point x="55" y="56"/>
      <point x="-20" y="-16"/>
    </contour>
  </outline>
</glyph>
<glyph name="_smart.yee" format="2">
  <anchor x="-26" y="322" name="_yee"/>
  <outline>
    <contour>
      <point x="145" y="152" type="curve" smooth="yes"/>
      <point x="241" y="152"/>
      <point x="316" y="226"/>
      <point x="316" y="322" type="curve" smooth="yes"/>
      <point x="316" y="418"/>
      <point x="241" y="496"/>
      <point x="145" y="496" type="curve" smooth="yes"/>
      <point x="52" y="496"/>
      <point x="-26" y="422"/>
      <point x="-26" y="322" type="curve" smooth="yes"/>
      <point x="-26" y="222"/>
      <point x="53" y="152"/>
    </contour>
    <contour>
      <point x="145" y="206" type="curve" smooth="yes"/>
      <point x="77" y="206"/>
      <point x="28" y="253"/>
      <point x="28" y="322" type="curve" smooth="yes"/>
      <point x="28" y="394"/>
      <point x="77" y="442"/>
      <point x="145" y="442" type="curve" smooth="yes"/>
      <point x="213" y="442"/>
      <point x="262" y="394"/>
      <point x="262" y="322" type="curve" smooth="yes"/>
      <point x="262" y="253"/>
      <point x="213" y="206"/>
    </contour>
  </outline>
</glyph>
<glyph name="_smart.zha.caps" format="2">
  <anchor x="-7" y="956" name="_zha.caps"/>
  <outline>
    <contour>
      <point x="-969" y="855" type="curve" smooth="yes"/>
      <point x="-938" y="855"/>
      <point x="-913" y="879"/>
      <point x="-913" y="910" type="curve" smooth="yes"/>
      <point x="-913" y="941"/>
      <point x="-938" y="966"/>
      <point x="-969" y="966" type="curve" smooth="yes"/>
      <point x="-1000" y="966"/>
      <point x="-1024" y="941"/>
      <point x="-1024" y="910" type="curve" smooth="yes"/>
      <point x="-1024" y="879"/>
      <point x="-1000" y="855"/>
    </contour>
    <contour>
      <point x="233" y="857" type="curve" smooth="yes"/>
      <point x="264" y="857"/>
      <point x="289" y="881"/>
      <point x="289" y="912" type="curve" smooth="yes"/>
      <point x="289" y="943"/>
      <point x="264" y="968"/>
      <point x="233" y="968" type="curve" smooth="yes"/>
      <point x="202" y="968"/>
      <point x="178" y="943"/>
      <point x="178" y="912" type="curve" smooth="yes"/>
      <point x="178" y="881"/>
      <point x="202" y="857"/>
    </contour>
  </outline>
</glyph>
<glyph name="aGl.base.cap" format="2">
  <advance width="1112"/>
  <anchor x="1048" y="-24" name="haa"/>
  <anchor x="225.46" y="1677" name="hat"/>
  <anchor x="225.46" y="1677" name="hat.left"/>
  <anchor x="1051.208" y="-1" name="hee"/>
  <anchor x="62" y="-32" name="ho"/>
  <anchor x="794" y="965" name="hu"/>
  <anchor x="1077" y="-31" name="hwa"/>
  <anchor x="1196.817" y="4" name="ni"/>
  <outline>
    <contour>
      <point x="33" y="0" type="line"/>
      <point x="86" y="0" type="line"/>
      <point x="552" y="1238" type="line"/>
      <point x="1017" y="0" type="line"/>
      <point x="1078" y="0" type="line"/>
      <point x="587" y="1294" type="line"/>
      <point x="585" y="1356" type="line"/>
      <point x="110" y="1356" type="line"/>
      <point x="110" y="1673" type="line"/>
      <point x="56" y="1673" type="line"/>
      <point x="56" y="1294" type="line"/>
      <point x="517" y="1294" type="line"/>
    </contour>
  </outline>
</glyph>
<glyph name="aGlottal-ethiopic.liga" format="2">
  <advance width="1112"/>
  <outline>
    <contour>
      <point x="33" y="0" type="line"/>
      <point x="86" y="0" type="line"/>
      <point x="552" y="1238" type="line"/>
      <point x="1017" y="0" type="line"/>
      <point x="1078" y="0" type="line"/>
      <point x="587" y="1294" type="line"/>
      <point x="585" y="1356" type="line"/>
      <point x="110" y="1356" type="line"/>
      <point x="110" y="1673" type="line"/>
      <point x="56" y="1673" type="line"/>
      <point x="56" y="1294" type="line"/>
      <point x="517" y="1294" type="line"/>
    </contour>
  </outline>
</glyph>
<glyph name="aaGlottal-ethiopic.liga" format="2">
  <advance width="1112"/>
  <outline>
    <contour>
      <point x="33" y="0" type="line"/>
      <point x="86" y="0" type="line"/>
      <point x="552" y="1238" type="line"/>
      <point x="1017" y="0" type="line"/>
      <point x="1078" y="0" type="line"/>
      <point x="587" y="1294" type="line"/>
      <point x="585" y="1356" type="line"/>
      <point x="110" y="1356" type="line"/>
      <point x="110" y="1673" type="line"/>
      <point x="56" y="1673" type="line"/>
      <point x="56" y="1294" type="line"/>
      <point x="517" y="1294" type="line"/>
    </contour>
    <contour>
      <point x="1018" y="-380" type="line"/>
      <point x="1075" y="-380" type="line"/>
      <point x="1075" y="-26" type="line"/>
      <point x="1018" y="-26" type="line"/>
    </contour>
  </outline>
</glyph>
<glyph name="ba.base" format="2">
  <advance width="1242"/>
  <anchor x="319" y="721" name="aGl"/>
  <anchor x="29.478" y="1465" name="eGl"/>
  <anchor x="988" y="-15" name="haa"/>
  <anchor x="630" y="1382" name="hat"/>
  <anchor x="292" y="1232" name="hat.left"/>
  <anchor x="570" y="1194" name="he.acute.top"/>
  <anchor x="349" y="560" name="he.left.inner"/>
  <anchor x="192" y="634" name="he.left.outer"/>
  <anchor x="880" y="80" name="hee"/>
  <anchor x="1074" y="60" name="hi"/>
  <anchor x="260" y="-23" name="ho"/>
  <anchor x="1048" y="673" name="hu"/>
  <anchor x="987" y="26" name="hwa"/>
  <anchor x="601" y="1040" name="ka"/>
  <anchor x="585" y="1114" name="neck"/>
  <outline>
    <contour>
      <point x="232" y="0" type="line"/>
      <point x="286" y="0" type="line"/>
      <point x="286" y="716" type="line" smooth="yes"/>
      <point x="286" y="862"/>
      <point x="319" y="1061"/>
      <point x="614" y="1061" type="curve" smooth="yes"/>
      <point x="926" y="1061"/>
      <point x="960" y="872"/>
      <point x="960" y="716" type="curve" smooth="yes"/>
      <point x="960" y="0" type="line"/>
      <point x="1015" y="0" type="line"/>
      <point x="1015" y="715" type="line" smooth="yes"/>
      <point x="1015" y="973"/>
      <point x="863" y="1111"/>
      <point x="608" y="1111" type="curve"/>
      <point x="344" y="1093"/>
      <point x="232" y="957"/>
      <point x="232" y="748" type="curve" smooth="yes"/>
    </contour>
  </outline>
</glyph>
<glyph name="bo-ethiopic.liga" format="2">
  <advance width="1365"/>
  <outline>
    <contour>
      <point x="185" y="0" type="line"/>
      <point x="239" y="0" type="line"/>
      <point x="239" y="984" type="line" smooth="yes"/>
      <point x="239" y="1253"/>
      <point x="415" y="1422"/>
      <point x="683" y="1422" type="curve" smooth="yes"/>
      <point x="951" y="1422"/>
      <point x="1126" y="1254"/>
      <point x="1126" y="983" type="curve" smooth="yes"/>
      <point x="1126" y="0" type="line"/>
      <point x="1180" y="0" type="line"/>
      <point x="1180" y="986" type="line" smooth="yes"/>
      <point x="1180" y="1294"/>
      <point x="988" y="1476"/>
      <point x="683" y="1476" type="curve" smooth="yes"/>
      <point x="378" y="1476"/>
      <point x="185" y="1293"/>
      <point x="185" y="990" type="curve" smooth="yes"/>
    </contour>
    <contour>
      <point x="185" y="-373" type="line" name="❌"/>
      <point x="242" y="-373" type="line" name="❌"/>
      <point x="242" y="-19" type="line"/>
      <point x="185" y="-19" type="line"/>
    </contour>
  </outline>
</glyph>
<glyph name="ca-ethiopic.liga" format="2">
  <advance width="1224"/>
  <outline>
    <contour>
      <point x="585" y="0" type="line"/>
      <point x="639" y="0" type="line"/>
      <point x="639" y="1402" type="line"/>
      <point x="1169" y="1402" type="line"/>
      <point x="1169" y="1456" type="line"/>
      <point x="55" y="1456" type="line"/>
      <point x="55" y="1402" type="line"/>
      <point x="585" y="1402" type="line"/>
    </contour>
    <contour>
      <point x="568" y="1549" type="line"/>
      <point x="635" y="1549" type="line"/>
      <point x="635" y="1806" type="line"/>
      <point x="568" y="1806" type="line"/>
    </contour>
    <contour>
      <point x="263" y="1764" type="line"/>
      <point x="937" y="1764" type="line"/>
      <point x="937" y="1807" type="line"/>
      <point x="263" y="1807" type="line"/>
    </contour>
  </outline>
</glyph>
<glyph name="caa-ethiopic.liga" format="2">
  <advance width="1224"/>
  <outline>
    <contour>
      <point x="585" y="0" type="line"/>
      <point x="639" y="0" type="line"/>
      <point x="639" y="1402" type="line"/>
      <point x="1169" y="1402" type="line"/>
      <point x="1169" y="1456" type="line"/>
      <point x="55" y="1456" type="line"/>
      <point x="55" y="1402" type="line"/>
      <point x="585" y="1402" type="line"/>
    </contour>
    <contour>
      <point x="395" y="-247" type="line"/>
      <point x="455" y="-247" type="line"/>
      <point x="650" y="19" type="line"/>
      <point x="584" y="19" type="line"/>
    </contour>
    <contour>
      <point x="568" y="1549" type="line"/>
      <point x="635" y="1549" type="line"/>
      <point x="635" y="1806" type="line"/>
      <point x="568" y="1806" type="line"/>
    </contour>
    <component base="_smart.hat.caps" xOffset="567" yOffset="82"/>
  </outline>
</glyph>
<glyph name="ce-ethiopic.liga" format="2">
  <advance width="1224"/>
  <outline>
    <contour>
      <point x="585" y="0" type="line"/>
      <point x="639" y="0" type="line"/>
      <point x="639" y="1402" type="line"/>
      <point x="1169" y="1402" type="line"/>
      <point x="1169" y="1456" type="line"/>
      <point x="55" y="1456" type="line"/>
      <point x="55" y="1402" type="line"/>
      <point x="585" y="1402" type="line"/>
    </contour>
    <contour>
      <point x="263" y="1764" type="line"/>
      <point x="937" y="1764" type="line"/>
      <point x="937" y="1807" type="line"/>
      <point x="263" y="1807" type="line"/>
    </contour>
    <contour>
      <point x="639" y="1525" type="line" name="❌"/>
      <point x="450" y="1791" type="line"/>
      <point x="384" y="1791" type="line"/>
      <point x="579" y="1525" type="line" name="❌"/>
    </contour>
  </outline>
</glyph>
